M48
;GenerationSoftware,Autodesk,EAGLE,9.2.2*%
;CreationDate,2018-12-05T11:58:26Z*%
FMAT,2
ICI,OFF
METRIC,TZ,000.000
T7C1.000
T6C1.016
T5C1.118
T4C1.300
T3C1.500
T2C2.000
T1C3.302
%
G90
M71
T1
X1164Y55490
T2
X83693Y66802
X2413Y66802
X2413Y1905
X83693Y1778
T3
X11420Y64490
X11420Y46490
T4
X57150Y58420
X52150Y58420
T5
X5340Y8170
X5340Y10710
X5340Y13250
X5340Y15790
X5340Y18330
X5340Y20870
X18340Y8170
X18340Y10710
X18340Y13250
X18340Y15790
X18340Y18330
X18340Y20870
X5334Y39624
X5334Y37084
X5334Y34544
X5334Y32004
X5334Y29464
X5334Y26924
T6
X65040Y31300
X65040Y28760
X65040Y26220
X65040Y23680
X65040Y21140
X65040Y18600
X65040Y16060
X65040Y13520
X65040Y10980
X65040Y8440
X65040Y5900
X32780Y41460
X32780Y38920
X32780Y36380
X32780Y33840
X32780Y31300
X32780Y28760
X32780Y26220
X32780Y23680
X32780Y21140
X32780Y18600
X32780Y16060
X32780Y13520
X32780Y10980
X32780Y8440
X32780Y5900
X16150Y52950
X56388Y5572
X16150Y55490
X16150Y58030
X65040Y41460
X65040Y38920
X65040Y36380
X65040Y33840
X38100Y60960
X40640Y60960
X59182Y5572
T7
X72517Y44958
X75057Y44958
X72517Y42418
X75057Y42418
X72517Y39878
X75057Y39878
X72517Y37338
X75057Y37338
X72517Y34798
X75057Y34798
X72517Y32258
X75057Y32258
X72517Y29718
X72517Y57658
X72517Y27178
X75057Y27178
X72517Y24638
X75057Y24638
X72517Y22098
X75057Y22098
X72517Y19558
X75057Y19558
X72517Y17018
X75057Y17018
X72517Y14478
X75057Y14478
X75057Y29718
X75057Y11938
X72517Y9398
X75057Y9398
X75057Y57658
X72517Y55118
X75057Y55118
X72517Y52578
X75057Y52578
X72517Y50038
X75057Y50038
X72517Y47498
X75057Y47498
X72517Y11938
M30