G04 EAGLE Gerber RS-274X export*
G75*
%MOMM*%
%FSLAX34Y34*%
%LPD*%
%INBottom Copper*%
%IPPOS*%
%AMOC8*
5,1,8,0,0,1.08239X$1,22.5*%
G01*
%ADD10C,1.524000*%
%ADD11C,1.879600*%
%ADD12C,1.950000*%
%ADD13C,1.508000*%
%ADD14C,1.879600*%
%ADD15C,2.032000*%
%ADD16C,0.500000*%

G36*
X814617Y10169D02*
X814617Y10169D01*
X814710Y10168D01*
X814839Y10189D01*
X814969Y10201D01*
X815059Y10225D01*
X815151Y10241D01*
X815274Y10285D01*
X815399Y10319D01*
X815484Y10360D01*
X815572Y10391D01*
X815684Y10456D01*
X815802Y10512D01*
X815878Y10567D01*
X815959Y10614D01*
X816058Y10698D01*
X816164Y10774D01*
X816229Y10842D01*
X816300Y10902D01*
X816383Y11003D01*
X816474Y11096D01*
X816525Y11174D01*
X816585Y11246D01*
X816649Y11360D01*
X816721Y11468D01*
X816758Y11554D01*
X816804Y11636D01*
X816846Y11759D01*
X816898Y11879D01*
X816919Y11970D01*
X816949Y12058D01*
X816969Y12187D01*
X816999Y12314D01*
X817004Y12407D01*
X817018Y12499D01*
X817015Y12630D01*
X817021Y12760D01*
X817009Y12852D01*
X817007Y12946D01*
X816980Y13074D01*
X816963Y13203D01*
X816935Y13292D01*
X816916Y13383D01*
X816833Y13616D01*
X816769Y13770D01*
X816769Y21790D01*
X819839Y29200D01*
X825510Y34871D01*
X832920Y37941D01*
X840940Y37941D01*
X848350Y34871D01*
X848973Y34249D01*
X849078Y34161D01*
X849176Y34066D01*
X849249Y34018D01*
X849316Y33962D01*
X849435Y33895D01*
X849548Y33819D01*
X849628Y33785D01*
X849704Y33742D01*
X849833Y33696D01*
X849959Y33642D01*
X850043Y33622D01*
X850125Y33594D01*
X850260Y33572D01*
X850394Y33541D01*
X850480Y33537D01*
X850566Y33523D01*
X850703Y33526D01*
X850840Y33519D01*
X850926Y33530D01*
X851013Y33532D01*
X851147Y33559D01*
X851283Y33576D01*
X851366Y33603D01*
X851451Y33620D01*
X851578Y33671D01*
X851708Y33712D01*
X851785Y33753D01*
X851866Y33785D01*
X851982Y33857D01*
X852103Y33921D01*
X852172Y33975D01*
X852245Y34021D01*
X852347Y34113D01*
X852454Y34197D01*
X852512Y34262D01*
X852576Y34321D01*
X852660Y34429D01*
X852751Y34532D01*
X852796Y34606D01*
X852849Y34675D01*
X852912Y34796D01*
X852983Y34913D01*
X853014Y34994D01*
X853054Y35072D01*
X853094Y35202D01*
X853143Y35330D01*
X853160Y35416D01*
X853185Y35499D01*
X853201Y35634D01*
X853227Y35769D01*
X853234Y35905D01*
X853238Y35942D01*
X853237Y35966D01*
X853239Y36016D01*
X853239Y649784D01*
X853227Y649920D01*
X853224Y650057D01*
X853207Y650142D01*
X853199Y650229D01*
X853163Y650361D01*
X853136Y650495D01*
X853104Y650576D01*
X853081Y650660D01*
X853022Y650783D01*
X852971Y650910D01*
X852925Y650984D01*
X852888Y651062D01*
X852807Y651173D01*
X852735Y651289D01*
X852677Y651354D01*
X852626Y651424D01*
X852527Y651519D01*
X852435Y651620D01*
X852366Y651673D01*
X852304Y651734D01*
X852190Y651809D01*
X852081Y651893D01*
X852004Y651933D01*
X851932Y651981D01*
X851806Y652035D01*
X851684Y652098D01*
X851601Y652124D01*
X851521Y652158D01*
X851389Y652189D01*
X851257Y652229D01*
X851171Y652239D01*
X851086Y652259D01*
X850950Y652266D01*
X850814Y652282D01*
X850727Y652277D01*
X850640Y652281D01*
X850505Y652264D01*
X850368Y652255D01*
X850283Y652235D01*
X850197Y652224D01*
X850067Y652182D01*
X849934Y652150D01*
X849854Y652114D01*
X849772Y652088D01*
X849651Y652024D01*
X849526Y651968D01*
X849454Y651920D01*
X849377Y651879D01*
X849269Y651794D01*
X849156Y651717D01*
X849055Y651626D01*
X849026Y651603D01*
X849010Y651585D01*
X848973Y651551D01*
X848350Y650929D01*
X840940Y647859D01*
X832920Y647859D01*
X825510Y650929D01*
X819839Y656600D01*
X816769Y664010D01*
X816769Y672030D01*
X818096Y675234D01*
X818124Y675323D01*
X818161Y675409D01*
X818191Y675535D01*
X818230Y675660D01*
X818241Y675753D01*
X818262Y675844D01*
X818269Y675974D01*
X818285Y676103D01*
X818280Y676197D01*
X818284Y676290D01*
X818268Y676419D01*
X818260Y676549D01*
X818239Y676640D01*
X818227Y676733D01*
X818187Y676857D01*
X818157Y676984D01*
X818120Y677069D01*
X818091Y677158D01*
X818030Y677273D01*
X817978Y677393D01*
X817926Y677471D01*
X817882Y677553D01*
X817801Y677655D01*
X817729Y677764D01*
X817664Y677831D01*
X817606Y677904D01*
X817508Y677991D01*
X817418Y678084D01*
X817342Y678139D01*
X817272Y678201D01*
X817160Y678268D01*
X817054Y678344D01*
X816970Y678384D01*
X816890Y678433D01*
X816768Y678480D01*
X816651Y678535D01*
X816561Y678560D01*
X816473Y678593D01*
X816345Y678618D01*
X816219Y678652D01*
X816126Y678659D01*
X816034Y678677D01*
X815787Y678689D01*
X45273Y678689D01*
X45180Y678681D01*
X45086Y678682D01*
X44958Y678661D01*
X44828Y678649D01*
X44738Y678625D01*
X44646Y678609D01*
X44523Y678565D01*
X44397Y678531D01*
X44313Y678490D01*
X44225Y678459D01*
X44112Y678394D01*
X43994Y678338D01*
X43919Y678283D01*
X43838Y678236D01*
X43738Y678152D01*
X43633Y678076D01*
X43568Y678008D01*
X43496Y677948D01*
X43413Y677848D01*
X43323Y677754D01*
X43271Y677676D01*
X43212Y677604D01*
X43148Y677490D01*
X43076Y677382D01*
X43039Y677296D01*
X42993Y677214D01*
X42950Y677091D01*
X42899Y676971D01*
X42878Y676881D01*
X42847Y676792D01*
X42827Y676663D01*
X42798Y676536D01*
X42793Y676443D01*
X42779Y676351D01*
X42782Y676220D01*
X42776Y676090D01*
X42788Y675998D01*
X42790Y675904D01*
X42816Y675776D01*
X42833Y675647D01*
X42862Y675558D01*
X42881Y675467D01*
X42964Y675234D01*
X44291Y672030D01*
X44291Y664010D01*
X41221Y656600D01*
X35550Y650929D01*
X28140Y647859D01*
X20120Y647859D01*
X13616Y650553D01*
X13527Y650581D01*
X13441Y650618D01*
X13315Y650648D01*
X13190Y650686D01*
X13097Y650698D01*
X13006Y650719D01*
X12876Y650726D01*
X12747Y650742D01*
X12653Y650737D01*
X12560Y650741D01*
X12431Y650725D01*
X12301Y650717D01*
X12210Y650696D01*
X12117Y650684D01*
X11993Y650644D01*
X11866Y650614D01*
X11781Y650576D01*
X11692Y650548D01*
X11577Y650487D01*
X11457Y650435D01*
X11379Y650383D01*
X11297Y650339D01*
X11194Y650258D01*
X11086Y650186D01*
X11019Y650121D01*
X10946Y650063D01*
X10859Y649965D01*
X10766Y649874D01*
X10711Y649799D01*
X10649Y649729D01*
X10582Y649617D01*
X10506Y649511D01*
X10466Y649427D01*
X10417Y649347D01*
X10370Y649225D01*
X10315Y649108D01*
X10290Y649017D01*
X10257Y648930D01*
X10232Y648802D01*
X10198Y648676D01*
X10191Y648583D01*
X10173Y648491D01*
X10161Y648244D01*
X10161Y609470D01*
X10165Y609420D01*
X10163Y609370D01*
X10185Y609198D01*
X10201Y609025D01*
X10214Y608977D01*
X10220Y608927D01*
X10273Y608762D01*
X10319Y608594D01*
X10341Y608549D01*
X10356Y608502D01*
X10437Y608348D01*
X10512Y608192D01*
X10542Y608151D01*
X10565Y608107D01*
X10672Y607970D01*
X10774Y607830D01*
X10810Y607795D01*
X10841Y607756D01*
X10971Y607640D01*
X11096Y607520D01*
X11138Y607493D01*
X11176Y607459D01*
X11324Y607369D01*
X11468Y607273D01*
X11514Y607253D01*
X11557Y607227D01*
X11719Y607165D01*
X11879Y607096D01*
X11927Y607085D01*
X11974Y607067D01*
X12145Y607034D01*
X12314Y606995D01*
X12364Y606992D01*
X12413Y606983D01*
X12660Y606971D01*
X18495Y606971D01*
X31739Y603422D01*
X43612Y596567D01*
X50870Y589309D01*
X50908Y589277D01*
X50942Y589240D01*
X51080Y589134D01*
X51213Y589023D01*
X51256Y588998D01*
X51296Y588968D01*
X51450Y588888D01*
X51601Y588802D01*
X51648Y588786D01*
X51693Y588763D01*
X51858Y588712D01*
X52022Y588654D01*
X52072Y588646D01*
X52120Y588631D01*
X52292Y588611D01*
X52463Y588583D01*
X52514Y588584D01*
X52563Y588578D01*
X52737Y588589D01*
X52910Y588592D01*
X52959Y588602D01*
X53009Y588605D01*
X53178Y588646D01*
X53348Y588681D01*
X53394Y588699D01*
X53443Y588711D01*
X53602Y588781D01*
X53763Y588845D01*
X53806Y588872D01*
X53851Y588892D01*
X53995Y588989D01*
X54142Y589081D01*
X54180Y589115D01*
X54221Y589143D01*
X54404Y589309D01*
X56128Y591033D01*
X60782Y592961D01*
X140360Y592961D01*
X140546Y592977D01*
X140732Y592989D01*
X140768Y592997D01*
X140805Y593001D01*
X140985Y593050D01*
X141166Y593094D01*
X141200Y593109D01*
X141235Y593119D01*
X141404Y593200D01*
X141574Y593276D01*
X141605Y593296D01*
X141638Y593312D01*
X141789Y593422D01*
X141944Y593527D01*
X141981Y593561D01*
X142000Y593574D01*
X142025Y593601D01*
X142127Y593693D01*
X143808Y595374D01*
X150343Y598081D01*
X160341Y598081D01*
X160527Y598097D01*
X160713Y598109D01*
X160748Y598117D01*
X160785Y598121D01*
X160966Y598170D01*
X161147Y598214D01*
X161180Y598229D01*
X161216Y598239D01*
X161384Y598320D01*
X161555Y598396D01*
X161585Y598416D01*
X161619Y598432D01*
X161770Y598542D01*
X161924Y598647D01*
X161962Y598681D01*
X161981Y598694D01*
X162006Y598721D01*
X162108Y598813D01*
X183628Y620333D01*
X188282Y622261D01*
X364965Y622261D01*
X365151Y622277D01*
X365337Y622289D01*
X365373Y622297D01*
X365410Y622301D01*
X365591Y622350D01*
X365771Y622394D01*
X365805Y622409D01*
X365841Y622419D01*
X366009Y622500D01*
X366180Y622576D01*
X366210Y622596D01*
X366244Y622612D01*
X366395Y622722D01*
X366549Y622827D01*
X366587Y622861D01*
X366605Y622874D01*
X366631Y622901D01*
X366733Y622993D01*
X369921Y626181D01*
X377109Y629159D01*
X384891Y629159D01*
X392135Y626158D01*
X392142Y626152D01*
X392275Y626041D01*
X392319Y626016D01*
X392359Y625986D01*
X392513Y625906D01*
X392664Y625820D01*
X392711Y625804D01*
X392756Y625781D01*
X392921Y625730D01*
X393085Y625672D01*
X393135Y625664D01*
X393183Y625650D01*
X393355Y625629D01*
X393526Y625602D01*
X393576Y625603D01*
X393626Y625597D01*
X393799Y625607D01*
X393973Y625610D01*
X394022Y625620D01*
X394072Y625623D01*
X394240Y625664D01*
X394411Y625699D01*
X394457Y625717D01*
X394506Y625729D01*
X394664Y625799D01*
X394826Y625863D01*
X394868Y625890D01*
X394914Y625910D01*
X395058Y626008D01*
X395205Y626100D01*
X395242Y626133D01*
X395284Y626161D01*
X395293Y626169D01*
X402509Y629159D01*
X410291Y629159D01*
X417479Y626181D01*
X422981Y620679D01*
X425959Y613491D01*
X425959Y605709D01*
X422981Y598521D01*
X417479Y593019D01*
X410291Y590041D01*
X402510Y590041D01*
X397116Y592275D01*
X397027Y592303D01*
X396941Y592340D01*
X396815Y592370D01*
X396690Y592409D01*
X396597Y592420D01*
X396506Y592441D01*
X396376Y592448D01*
X396247Y592464D01*
X396153Y592459D01*
X396060Y592463D01*
X395931Y592447D01*
X395801Y592439D01*
X395710Y592418D01*
X395617Y592406D01*
X395493Y592366D01*
X395366Y592336D01*
X395281Y592299D01*
X395192Y592270D01*
X395077Y592209D01*
X394957Y592157D01*
X394879Y592105D01*
X394797Y592061D01*
X394694Y591980D01*
X394586Y591908D01*
X394519Y591843D01*
X394446Y591785D01*
X394359Y591687D01*
X394266Y591597D01*
X394211Y591521D01*
X394149Y591451D01*
X394082Y591339D01*
X394006Y591233D01*
X393966Y591149D01*
X393917Y591069D01*
X393870Y590948D01*
X393815Y590830D01*
X393790Y590739D01*
X393757Y590652D01*
X393732Y590524D01*
X393698Y590398D01*
X393691Y590305D01*
X393673Y590213D01*
X393661Y589966D01*
X393661Y293303D01*
X393677Y293117D01*
X393689Y292931D01*
X393697Y292895D01*
X393701Y292858D01*
X393750Y292678D01*
X393794Y292497D01*
X393809Y292464D01*
X393819Y292428D01*
X393900Y292259D01*
X393976Y292089D01*
X393996Y292058D01*
X394012Y292025D01*
X394122Y291874D01*
X394227Y291720D01*
X394261Y291682D01*
X394274Y291663D01*
X394301Y291638D01*
X394393Y291536D01*
X602553Y83376D01*
X604481Y78722D01*
X604481Y72832D01*
X604497Y72646D01*
X604509Y72460D01*
X604517Y72424D01*
X604521Y72387D01*
X604570Y72207D01*
X604614Y72026D01*
X604629Y71993D01*
X604639Y71957D01*
X604720Y71788D01*
X604796Y71618D01*
X604816Y71587D01*
X604832Y71554D01*
X604942Y71403D01*
X605047Y71249D01*
X605081Y71211D01*
X605094Y71192D01*
X605121Y71167D01*
X605213Y71065D01*
X607165Y69113D01*
X607308Y68993D01*
X607448Y68869D01*
X607480Y68850D01*
X607508Y68826D01*
X607670Y68734D01*
X607830Y68637D01*
X607864Y68624D01*
X607896Y68606D01*
X608072Y68544D01*
X608246Y68477D01*
X608283Y68470D01*
X608318Y68457D01*
X608502Y68428D01*
X608685Y68393D01*
X608736Y68390D01*
X608759Y68387D01*
X608796Y68388D01*
X608932Y68381D01*
X625980Y68381D01*
X626166Y68397D01*
X626352Y68409D01*
X626388Y68417D01*
X626425Y68421D01*
X626605Y68470D01*
X626786Y68514D01*
X626820Y68529D01*
X626855Y68539D01*
X627024Y68620D01*
X627194Y68696D01*
X627225Y68716D01*
X627258Y68732D01*
X627409Y68842D01*
X627564Y68947D01*
X627601Y68981D01*
X627620Y68994D01*
X627645Y69021D01*
X627747Y69113D01*
X628567Y69933D01*
X628599Y69971D01*
X628636Y70005D01*
X628742Y70142D01*
X628853Y70276D01*
X628878Y70319D01*
X628909Y70359D01*
X628988Y70513D01*
X629074Y70664D01*
X629091Y70711D01*
X629114Y70756D01*
X629165Y70922D01*
X629222Y71085D01*
X629230Y71135D01*
X629245Y71183D01*
X629265Y71355D01*
X629293Y71526D01*
X629292Y71576D01*
X629298Y71626D01*
X629288Y71800D01*
X629284Y71973D01*
X629274Y72022D01*
X629271Y72072D01*
X629230Y72241D01*
X629196Y72411D01*
X629177Y72457D01*
X629165Y72506D01*
X629095Y72665D01*
X629031Y72826D01*
X629004Y72869D01*
X628984Y72914D01*
X628886Y73058D01*
X628795Y73205D01*
X628761Y73242D01*
X628733Y73284D01*
X628567Y73467D01*
X627706Y74328D01*
X624999Y80863D01*
X624999Y87937D01*
X627706Y94472D01*
X628567Y95333D01*
X628599Y95371D01*
X628636Y95405D01*
X628742Y95542D01*
X628853Y95676D01*
X628878Y95719D01*
X628909Y95759D01*
X628988Y95913D01*
X629074Y96064D01*
X629091Y96111D01*
X629114Y96156D01*
X629165Y96322D01*
X629222Y96485D01*
X629230Y96535D01*
X629245Y96583D01*
X629265Y96755D01*
X629293Y96926D01*
X629292Y96976D01*
X629298Y97026D01*
X629288Y97200D01*
X629284Y97373D01*
X629274Y97422D01*
X629271Y97472D01*
X629230Y97641D01*
X629196Y97811D01*
X629177Y97857D01*
X629165Y97906D01*
X629095Y98065D01*
X629031Y98226D01*
X629004Y98269D01*
X628984Y98314D01*
X628886Y98458D01*
X628795Y98605D01*
X628761Y98642D01*
X628733Y98684D01*
X628567Y98867D01*
X627706Y99728D01*
X624999Y106263D01*
X624999Y113337D01*
X627706Y119872D01*
X628567Y120733D01*
X628599Y120771D01*
X628636Y120805D01*
X628742Y120942D01*
X628853Y121076D01*
X628878Y121119D01*
X628909Y121159D01*
X628988Y121313D01*
X629074Y121464D01*
X629091Y121511D01*
X629114Y121556D01*
X629165Y121722D01*
X629222Y121885D01*
X629230Y121935D01*
X629245Y121983D01*
X629265Y122155D01*
X629293Y122326D01*
X629292Y122376D01*
X629298Y122426D01*
X629288Y122600D01*
X629284Y122773D01*
X629274Y122822D01*
X629271Y122872D01*
X629230Y123041D01*
X629196Y123211D01*
X629177Y123257D01*
X629165Y123306D01*
X629095Y123465D01*
X629031Y123626D01*
X629004Y123669D01*
X628984Y123714D01*
X628886Y123858D01*
X628795Y124005D01*
X628761Y124042D01*
X628733Y124084D01*
X628567Y124267D01*
X627706Y125128D01*
X624999Y131663D01*
X624999Y138737D01*
X627706Y145272D01*
X628567Y146133D01*
X628599Y146171D01*
X628636Y146205D01*
X628742Y146342D01*
X628853Y146476D01*
X628878Y146519D01*
X628909Y146559D01*
X628988Y146713D01*
X629074Y146864D01*
X629091Y146911D01*
X629114Y146956D01*
X629165Y147122D01*
X629222Y147285D01*
X629230Y147335D01*
X629245Y147383D01*
X629265Y147555D01*
X629293Y147726D01*
X629292Y147776D01*
X629298Y147826D01*
X629288Y148000D01*
X629284Y148173D01*
X629274Y148222D01*
X629271Y148272D01*
X629230Y148441D01*
X629196Y148611D01*
X629177Y148657D01*
X629165Y148706D01*
X629095Y148865D01*
X629031Y149026D01*
X629004Y149069D01*
X628984Y149114D01*
X628886Y149258D01*
X628795Y149405D01*
X628761Y149442D01*
X628733Y149484D01*
X628567Y149667D01*
X627706Y150528D01*
X624999Y157063D01*
X624999Y164137D01*
X627706Y170672D01*
X628567Y171533D01*
X628599Y171571D01*
X628636Y171605D01*
X628742Y171742D01*
X628853Y171876D01*
X628878Y171919D01*
X628909Y171959D01*
X628988Y172113D01*
X629074Y172264D01*
X629091Y172311D01*
X629114Y172356D01*
X629165Y172522D01*
X629222Y172685D01*
X629230Y172735D01*
X629245Y172783D01*
X629265Y172955D01*
X629293Y173126D01*
X629292Y173176D01*
X629298Y173226D01*
X629288Y173400D01*
X629284Y173573D01*
X629274Y173622D01*
X629271Y173672D01*
X629230Y173841D01*
X629196Y174011D01*
X629177Y174057D01*
X629165Y174106D01*
X629095Y174265D01*
X629031Y174426D01*
X629004Y174469D01*
X628984Y174514D01*
X628886Y174658D01*
X628795Y174805D01*
X628761Y174842D01*
X628733Y174884D01*
X628567Y175067D01*
X627706Y175928D01*
X624999Y182463D01*
X624999Y189537D01*
X627706Y196072D01*
X628567Y196933D01*
X628599Y196971D01*
X628636Y197005D01*
X628742Y197142D01*
X628853Y197276D01*
X628878Y197319D01*
X628909Y197359D01*
X628988Y197513D01*
X629074Y197664D01*
X629091Y197711D01*
X629114Y197756D01*
X629165Y197922D01*
X629222Y198085D01*
X629230Y198135D01*
X629245Y198183D01*
X629265Y198355D01*
X629293Y198526D01*
X629292Y198576D01*
X629298Y198626D01*
X629288Y198800D01*
X629284Y198973D01*
X629274Y199022D01*
X629271Y199072D01*
X629230Y199241D01*
X629196Y199411D01*
X629177Y199457D01*
X629165Y199506D01*
X629095Y199665D01*
X629031Y199826D01*
X629004Y199869D01*
X628984Y199914D01*
X628886Y200058D01*
X628795Y200205D01*
X628761Y200242D01*
X628733Y200284D01*
X628567Y200467D01*
X627706Y201328D01*
X624999Y207863D01*
X624999Y214937D01*
X627706Y221472D01*
X628567Y222333D01*
X628599Y222371D01*
X628636Y222405D01*
X628742Y222542D01*
X628853Y222676D01*
X628878Y222719D01*
X628909Y222759D01*
X628988Y222913D01*
X629074Y223064D01*
X629091Y223111D01*
X629114Y223156D01*
X629165Y223322D01*
X629222Y223485D01*
X629230Y223535D01*
X629245Y223583D01*
X629265Y223755D01*
X629293Y223926D01*
X629292Y223976D01*
X629298Y224026D01*
X629288Y224200D01*
X629284Y224373D01*
X629274Y224422D01*
X629271Y224472D01*
X629230Y224641D01*
X629196Y224811D01*
X629177Y224857D01*
X629165Y224906D01*
X629095Y225065D01*
X629031Y225226D01*
X629004Y225269D01*
X628984Y225314D01*
X628886Y225458D01*
X628795Y225605D01*
X628761Y225642D01*
X628733Y225684D01*
X628567Y225867D01*
X627706Y226728D01*
X624999Y233263D01*
X624999Y240337D01*
X627706Y246872D01*
X628567Y247733D01*
X628599Y247771D01*
X628636Y247805D01*
X628742Y247942D01*
X628853Y248076D01*
X628878Y248119D01*
X628909Y248159D01*
X628988Y248313D01*
X629074Y248464D01*
X629091Y248511D01*
X629114Y248556D01*
X629165Y248722D01*
X629222Y248885D01*
X629230Y248935D01*
X629245Y248983D01*
X629265Y249155D01*
X629293Y249326D01*
X629292Y249376D01*
X629298Y249426D01*
X629288Y249600D01*
X629284Y249773D01*
X629274Y249822D01*
X629271Y249872D01*
X629230Y250041D01*
X629196Y250211D01*
X629177Y250257D01*
X629165Y250306D01*
X629095Y250465D01*
X629031Y250626D01*
X629004Y250669D01*
X628984Y250714D01*
X628886Y250858D01*
X628795Y251005D01*
X628761Y251042D01*
X628733Y251084D01*
X628567Y251267D01*
X627706Y252128D01*
X624999Y258663D01*
X624999Y265737D01*
X627706Y272272D01*
X628567Y273133D01*
X628599Y273171D01*
X628636Y273205D01*
X628742Y273342D01*
X628853Y273476D01*
X628878Y273519D01*
X628909Y273559D01*
X628988Y273713D01*
X629074Y273864D01*
X629091Y273911D01*
X629114Y273956D01*
X629165Y274122D01*
X629222Y274285D01*
X629230Y274335D01*
X629245Y274383D01*
X629265Y274555D01*
X629293Y274726D01*
X629292Y274776D01*
X629298Y274826D01*
X629288Y275000D01*
X629284Y275173D01*
X629274Y275222D01*
X629271Y275272D01*
X629230Y275441D01*
X629196Y275611D01*
X629177Y275657D01*
X629165Y275706D01*
X629095Y275865D01*
X629031Y276026D01*
X629004Y276069D01*
X628984Y276114D01*
X628886Y276258D01*
X628795Y276405D01*
X628761Y276442D01*
X628733Y276484D01*
X628567Y276667D01*
X627706Y277528D01*
X624999Y284063D01*
X624999Y291137D01*
X627706Y297672D01*
X628567Y298533D01*
X628599Y298571D01*
X628636Y298605D01*
X628742Y298742D01*
X628853Y298876D01*
X628878Y298919D01*
X628909Y298959D01*
X628988Y299113D01*
X629074Y299264D01*
X629091Y299311D01*
X629114Y299356D01*
X629165Y299522D01*
X629222Y299685D01*
X629230Y299735D01*
X629245Y299783D01*
X629265Y299955D01*
X629293Y300126D01*
X629292Y300176D01*
X629298Y300226D01*
X629288Y300400D01*
X629284Y300573D01*
X629274Y300622D01*
X629271Y300672D01*
X629230Y300841D01*
X629196Y301011D01*
X629177Y301057D01*
X629165Y301106D01*
X629095Y301265D01*
X629031Y301426D01*
X629004Y301469D01*
X628984Y301514D01*
X628886Y301658D01*
X628795Y301805D01*
X628761Y301842D01*
X628733Y301884D01*
X628567Y302067D01*
X627706Y302928D01*
X624999Y309463D01*
X624999Y316537D01*
X627706Y323072D01*
X628567Y323933D01*
X628599Y323971D01*
X628636Y324005D01*
X628742Y324142D01*
X628853Y324276D01*
X628878Y324319D01*
X628909Y324359D01*
X628988Y324513D01*
X629074Y324664D01*
X629091Y324711D01*
X629114Y324756D01*
X629165Y324922D01*
X629222Y325085D01*
X629230Y325135D01*
X629245Y325183D01*
X629265Y325355D01*
X629293Y325526D01*
X629292Y325576D01*
X629298Y325626D01*
X629288Y325800D01*
X629284Y325973D01*
X629274Y326022D01*
X629271Y326072D01*
X629230Y326241D01*
X629196Y326411D01*
X629177Y326457D01*
X629165Y326506D01*
X629095Y326665D01*
X629031Y326826D01*
X629004Y326869D01*
X628984Y326914D01*
X628886Y327058D01*
X628795Y327205D01*
X628761Y327242D01*
X628733Y327284D01*
X628567Y327467D01*
X627706Y328328D01*
X624999Y334863D01*
X624999Y341937D01*
X627706Y348472D01*
X628567Y349333D01*
X628599Y349371D01*
X628636Y349405D01*
X628742Y349542D01*
X628853Y349676D01*
X628878Y349719D01*
X628909Y349759D01*
X628988Y349913D01*
X629074Y350064D01*
X629091Y350111D01*
X629114Y350156D01*
X629165Y350322D01*
X629222Y350485D01*
X629230Y350535D01*
X629245Y350583D01*
X629265Y350755D01*
X629293Y350926D01*
X629292Y350976D01*
X629298Y351026D01*
X629288Y351200D01*
X629284Y351373D01*
X629274Y351422D01*
X629271Y351472D01*
X629230Y351641D01*
X629196Y351811D01*
X629177Y351857D01*
X629165Y351906D01*
X629095Y352065D01*
X629031Y352226D01*
X629004Y352269D01*
X628984Y352314D01*
X628886Y352458D01*
X628795Y352605D01*
X628761Y352642D01*
X628733Y352684D01*
X628567Y352867D01*
X627706Y353728D01*
X624999Y360263D01*
X624999Y367337D01*
X627706Y373872D01*
X628567Y374733D01*
X628599Y374771D01*
X628636Y374805D01*
X628742Y374942D01*
X628853Y375076D01*
X628878Y375119D01*
X628909Y375159D01*
X628988Y375313D01*
X629074Y375464D01*
X629091Y375511D01*
X629114Y375556D01*
X629165Y375722D01*
X629222Y375885D01*
X629230Y375935D01*
X629245Y375983D01*
X629265Y376155D01*
X629293Y376326D01*
X629292Y376376D01*
X629298Y376426D01*
X629288Y376600D01*
X629284Y376773D01*
X629274Y376822D01*
X629271Y376872D01*
X629230Y377041D01*
X629196Y377211D01*
X629177Y377257D01*
X629165Y377306D01*
X629095Y377465D01*
X629031Y377626D01*
X629004Y377669D01*
X628984Y377714D01*
X628886Y377858D01*
X628795Y378005D01*
X628761Y378042D01*
X628733Y378084D01*
X628567Y378267D01*
X627706Y379128D01*
X624999Y385663D01*
X624999Y392737D01*
X627706Y399272D01*
X628567Y400133D01*
X628599Y400171D01*
X628636Y400205D01*
X628742Y400342D01*
X628853Y400476D01*
X628878Y400519D01*
X628909Y400559D01*
X628988Y400713D01*
X629074Y400864D01*
X629091Y400911D01*
X629114Y400956D01*
X629165Y401122D01*
X629222Y401285D01*
X629230Y401335D01*
X629245Y401383D01*
X629265Y401555D01*
X629293Y401726D01*
X629292Y401776D01*
X629298Y401826D01*
X629288Y402000D01*
X629284Y402173D01*
X629274Y402222D01*
X629271Y402272D01*
X629230Y402441D01*
X629196Y402611D01*
X629177Y402657D01*
X629165Y402706D01*
X629095Y402865D01*
X629031Y403026D01*
X629004Y403069D01*
X628984Y403114D01*
X628886Y403258D01*
X628795Y403405D01*
X628761Y403442D01*
X628733Y403484D01*
X628567Y403667D01*
X627706Y404528D01*
X624999Y411063D01*
X624999Y418137D01*
X627706Y424672D01*
X632708Y429674D01*
X639243Y432381D01*
X649241Y432381D01*
X649427Y432397D01*
X649613Y432409D01*
X649648Y432417D01*
X649685Y432421D01*
X649866Y432470D01*
X650047Y432514D01*
X650080Y432529D01*
X650116Y432539D01*
X650285Y432620D01*
X650455Y432696D01*
X650485Y432716D01*
X650519Y432732D01*
X650670Y432842D01*
X650824Y432947D01*
X650862Y432981D01*
X650881Y432994D01*
X650906Y433021D01*
X651008Y433113D01*
X678208Y460313D01*
X682862Y462241D01*
X707547Y462241D01*
X707640Y462249D01*
X707734Y462248D01*
X707862Y462269D01*
X707992Y462281D01*
X708082Y462305D01*
X708174Y462321D01*
X708297Y462365D01*
X708423Y462399D01*
X708507Y462440D01*
X708595Y462471D01*
X708708Y462536D01*
X708826Y462592D01*
X708901Y462647D01*
X708982Y462694D01*
X709082Y462778D01*
X709187Y462854D01*
X709252Y462922D01*
X709324Y462982D01*
X709407Y463082D01*
X709497Y463176D01*
X709549Y463254D01*
X709608Y463326D01*
X709672Y463440D01*
X709744Y463548D01*
X709781Y463634D01*
X709827Y463716D01*
X709870Y463839D01*
X709921Y463959D01*
X709942Y464049D01*
X709973Y464138D01*
X709993Y464267D01*
X710022Y464394D01*
X710027Y464487D01*
X710041Y464579D01*
X710038Y464710D01*
X710044Y464840D01*
X710032Y464932D01*
X710030Y465026D01*
X710004Y465154D01*
X709987Y465283D01*
X709958Y465372D01*
X709940Y465463D01*
X709856Y465696D01*
X707469Y471459D01*
X707469Y478501D01*
X710164Y485007D01*
X711070Y485913D01*
X711102Y485951D01*
X711139Y485985D01*
X711245Y486122D01*
X711356Y486256D01*
X711381Y486299D01*
X711412Y486339D01*
X711492Y486493D01*
X711577Y486644D01*
X711594Y486691D01*
X711617Y486736D01*
X711668Y486902D01*
X711725Y487065D01*
X711733Y487115D01*
X711748Y487163D01*
X711769Y487335D01*
X711796Y487506D01*
X711795Y487556D01*
X711801Y487606D01*
X711791Y487780D01*
X711787Y487953D01*
X711777Y488002D01*
X711774Y488052D01*
X711733Y488221D01*
X711699Y488391D01*
X711680Y488437D01*
X711669Y488486D01*
X711598Y488645D01*
X711534Y488806D01*
X711508Y488849D01*
X711487Y488894D01*
X711390Y489038D01*
X711298Y489185D01*
X711264Y489222D01*
X711236Y489264D01*
X711070Y489447D01*
X710164Y490353D01*
X707469Y496859D01*
X707469Y503901D01*
X710164Y510407D01*
X711070Y511313D01*
X711102Y511351D01*
X711139Y511385D01*
X711245Y511522D01*
X711356Y511656D01*
X711381Y511699D01*
X711412Y511739D01*
X711492Y511893D01*
X711577Y512044D01*
X711594Y512091D01*
X711617Y512136D01*
X711668Y512302D01*
X711725Y512465D01*
X711733Y512515D01*
X711748Y512563D01*
X711769Y512735D01*
X711796Y512906D01*
X711795Y512956D01*
X711801Y513006D01*
X711791Y513180D01*
X711787Y513353D01*
X711777Y513402D01*
X711774Y513452D01*
X711733Y513621D01*
X711699Y513791D01*
X711680Y513837D01*
X711669Y513886D01*
X711598Y514045D01*
X711534Y514206D01*
X711508Y514249D01*
X711487Y514294D01*
X711390Y514438D01*
X711298Y514585D01*
X711264Y514622D01*
X711236Y514664D01*
X711070Y514847D01*
X710164Y515753D01*
X707469Y522259D01*
X707469Y529301D01*
X710164Y535807D01*
X711070Y536713D01*
X711102Y536751D01*
X711139Y536785D01*
X711245Y536922D01*
X711356Y537056D01*
X711381Y537099D01*
X711412Y537139D01*
X711492Y537293D01*
X711577Y537444D01*
X711594Y537491D01*
X711617Y537536D01*
X711668Y537702D01*
X711725Y537865D01*
X711733Y537915D01*
X711748Y537963D01*
X711769Y538135D01*
X711796Y538306D01*
X711795Y538356D01*
X711801Y538406D01*
X711791Y538580D01*
X711787Y538753D01*
X711777Y538802D01*
X711774Y538852D01*
X711733Y539021D01*
X711699Y539191D01*
X711680Y539237D01*
X711669Y539286D01*
X711598Y539445D01*
X711534Y539606D01*
X711508Y539649D01*
X711487Y539694D01*
X711390Y539838D01*
X711298Y539985D01*
X711264Y540022D01*
X711236Y540064D01*
X711070Y540247D01*
X710164Y541153D01*
X707469Y547659D01*
X707469Y554701D01*
X710164Y561207D01*
X711070Y562113D01*
X711102Y562151D01*
X711139Y562185D01*
X711245Y562322D01*
X711356Y562456D01*
X711381Y562499D01*
X711412Y562539D01*
X711492Y562693D01*
X711577Y562844D01*
X711594Y562891D01*
X711617Y562936D01*
X711668Y563102D01*
X711725Y563265D01*
X711733Y563315D01*
X711748Y563363D01*
X711769Y563535D01*
X711796Y563706D01*
X711795Y563756D01*
X711801Y563806D01*
X711791Y563980D01*
X711787Y564153D01*
X711777Y564202D01*
X711774Y564252D01*
X711733Y564421D01*
X711699Y564591D01*
X711680Y564637D01*
X711669Y564686D01*
X711598Y564845D01*
X711534Y565006D01*
X711508Y565049D01*
X711487Y565094D01*
X711390Y565238D01*
X711298Y565385D01*
X711264Y565422D01*
X711236Y565464D01*
X711070Y565647D01*
X710164Y566553D01*
X707469Y573059D01*
X707469Y580101D01*
X710164Y586607D01*
X715143Y591586D01*
X721649Y594281D01*
X728691Y594281D01*
X735197Y591586D01*
X736103Y590680D01*
X736141Y590648D01*
X736175Y590611D01*
X736312Y590505D01*
X736332Y590488D01*
X736347Y590475D01*
X736350Y590473D01*
X736446Y590394D01*
X736489Y590369D01*
X736529Y590338D01*
X736683Y590259D01*
X736834Y590173D01*
X736881Y590156D01*
X736926Y590133D01*
X737091Y590082D01*
X737255Y590025D01*
X737305Y590017D01*
X737353Y590002D01*
X737525Y589981D01*
X737696Y589954D01*
X737746Y589955D01*
X737796Y589949D01*
X737970Y589959D01*
X738143Y589963D01*
X738192Y589973D01*
X738242Y589976D01*
X738410Y590017D01*
X738581Y590051D01*
X738628Y590070D01*
X738676Y590081D01*
X738835Y590152D01*
X738996Y590216D01*
X739038Y590242D01*
X739084Y590263D01*
X739228Y590360D01*
X739375Y590452D01*
X739412Y590486D01*
X739454Y590514D01*
X739637Y590680D01*
X740543Y591586D01*
X747049Y594281D01*
X754091Y594281D01*
X760597Y591586D01*
X765576Y586607D01*
X768271Y580101D01*
X768271Y573059D01*
X765576Y566553D01*
X764670Y565647D01*
X764638Y565609D01*
X764601Y565575D01*
X764495Y565438D01*
X764384Y565304D01*
X764359Y565261D01*
X764328Y565221D01*
X764249Y565067D01*
X764163Y564916D01*
X764146Y564869D01*
X764123Y564824D01*
X764072Y564659D01*
X764015Y564495D01*
X764007Y564445D01*
X763992Y564397D01*
X763971Y564225D01*
X763944Y564054D01*
X763945Y564004D01*
X763939Y563954D01*
X763949Y563780D01*
X763953Y563607D01*
X763963Y563558D01*
X763966Y563508D01*
X764007Y563340D01*
X764041Y563169D01*
X764060Y563122D01*
X764071Y563074D01*
X764142Y562915D01*
X764206Y562754D01*
X764232Y562712D01*
X764253Y562666D01*
X764350Y562522D01*
X764442Y562375D01*
X764476Y562338D01*
X764504Y562296D01*
X764670Y562113D01*
X765576Y561207D01*
X768271Y554701D01*
X768271Y547659D01*
X765576Y541153D01*
X764670Y540247D01*
X764638Y540209D01*
X764601Y540175D01*
X764495Y540038D01*
X764384Y539904D01*
X764359Y539861D01*
X764328Y539821D01*
X764249Y539667D01*
X764163Y539516D01*
X764146Y539469D01*
X764123Y539424D01*
X764072Y539259D01*
X764015Y539095D01*
X764007Y539045D01*
X763992Y538997D01*
X763971Y538825D01*
X763944Y538654D01*
X763945Y538604D01*
X763939Y538554D01*
X763949Y538380D01*
X763953Y538207D01*
X763963Y538158D01*
X763966Y538108D01*
X764007Y537940D01*
X764041Y537769D01*
X764060Y537722D01*
X764071Y537674D01*
X764142Y537515D01*
X764206Y537354D01*
X764232Y537312D01*
X764253Y537266D01*
X764350Y537122D01*
X764442Y536975D01*
X764476Y536938D01*
X764504Y536896D01*
X764670Y536713D01*
X765576Y535807D01*
X768271Y529301D01*
X768271Y522259D01*
X765576Y515753D01*
X764670Y514847D01*
X764638Y514809D01*
X764601Y514775D01*
X764495Y514638D01*
X764384Y514504D01*
X764359Y514461D01*
X764328Y514421D01*
X764249Y514267D01*
X764163Y514116D01*
X764146Y514069D01*
X764123Y514024D01*
X764072Y513859D01*
X764015Y513695D01*
X764007Y513645D01*
X763992Y513597D01*
X763971Y513425D01*
X763944Y513254D01*
X763945Y513204D01*
X763939Y513154D01*
X763949Y512980D01*
X763953Y512807D01*
X763963Y512758D01*
X763966Y512708D01*
X764007Y512540D01*
X764041Y512369D01*
X764060Y512322D01*
X764071Y512274D01*
X764142Y512115D01*
X764206Y511954D01*
X764232Y511912D01*
X764253Y511866D01*
X764350Y511722D01*
X764442Y511575D01*
X764476Y511538D01*
X764504Y511496D01*
X764670Y511313D01*
X765576Y510407D01*
X768271Y503901D01*
X768271Y496859D01*
X765576Y490353D01*
X764670Y489447D01*
X764638Y489409D01*
X764601Y489375D01*
X764495Y489238D01*
X764384Y489104D01*
X764359Y489061D01*
X764328Y489021D01*
X764249Y488867D01*
X764163Y488716D01*
X764146Y488669D01*
X764123Y488624D01*
X764072Y488459D01*
X764015Y488295D01*
X764007Y488245D01*
X763992Y488197D01*
X763971Y488025D01*
X763944Y487854D01*
X763945Y487804D01*
X763939Y487754D01*
X763949Y487580D01*
X763953Y487407D01*
X763963Y487358D01*
X763966Y487308D01*
X764007Y487140D01*
X764041Y486969D01*
X764060Y486922D01*
X764071Y486874D01*
X764142Y486715D01*
X764206Y486554D01*
X764232Y486512D01*
X764253Y486466D01*
X764350Y486322D01*
X764442Y486175D01*
X764476Y486138D01*
X764504Y486096D01*
X764670Y485913D01*
X765576Y485007D01*
X768271Y478501D01*
X768271Y471459D01*
X765576Y464953D01*
X764670Y464047D01*
X764638Y464009D01*
X764601Y463975D01*
X764495Y463838D01*
X764384Y463704D01*
X764359Y463661D01*
X764328Y463621D01*
X764249Y463467D01*
X764163Y463316D01*
X764146Y463269D01*
X764123Y463224D01*
X764072Y463059D01*
X764015Y462895D01*
X764007Y462845D01*
X763992Y462797D01*
X763971Y462625D01*
X763944Y462454D01*
X763945Y462404D01*
X763939Y462354D01*
X763949Y462180D01*
X763953Y462007D01*
X763963Y461958D01*
X763966Y461908D01*
X764007Y461740D01*
X764041Y461569D01*
X764060Y461522D01*
X764071Y461474D01*
X764142Y461315D01*
X764206Y461154D01*
X764232Y461112D01*
X764253Y461066D01*
X764350Y460922D01*
X764442Y460775D01*
X764476Y460738D01*
X764504Y460696D01*
X764670Y460513D01*
X765576Y459607D01*
X768271Y453101D01*
X768271Y446059D01*
X765576Y439553D01*
X764670Y438647D01*
X764638Y438609D01*
X764601Y438575D01*
X764495Y438438D01*
X764384Y438304D01*
X764359Y438261D01*
X764328Y438221D01*
X764249Y438067D01*
X764163Y437916D01*
X764146Y437869D01*
X764123Y437824D01*
X764072Y437659D01*
X764015Y437495D01*
X764007Y437445D01*
X763992Y437397D01*
X763971Y437225D01*
X763944Y437054D01*
X763945Y437004D01*
X763939Y436954D01*
X763949Y436780D01*
X763953Y436607D01*
X763963Y436558D01*
X763966Y436508D01*
X764007Y436340D01*
X764041Y436169D01*
X764060Y436122D01*
X764071Y436074D01*
X764142Y435915D01*
X764206Y435754D01*
X764232Y435712D01*
X764253Y435666D01*
X764350Y435522D01*
X764442Y435375D01*
X764476Y435338D01*
X764504Y435296D01*
X764670Y435113D01*
X765576Y434207D01*
X768271Y427701D01*
X768271Y420659D01*
X765576Y414153D01*
X764670Y413247D01*
X764638Y413209D01*
X764601Y413175D01*
X764495Y413038D01*
X764384Y412904D01*
X764359Y412861D01*
X764328Y412821D01*
X764249Y412667D01*
X764163Y412516D01*
X764146Y412469D01*
X764123Y412424D01*
X764072Y412259D01*
X764015Y412095D01*
X764007Y412045D01*
X763992Y411997D01*
X763971Y411825D01*
X763944Y411654D01*
X763945Y411604D01*
X763939Y411554D01*
X763949Y411380D01*
X763953Y411207D01*
X763963Y411158D01*
X763966Y411108D01*
X764007Y410940D01*
X764041Y410769D01*
X764060Y410722D01*
X764071Y410674D01*
X764142Y410515D01*
X764206Y410354D01*
X764232Y410312D01*
X764253Y410266D01*
X764350Y410122D01*
X764442Y409975D01*
X764476Y409938D01*
X764504Y409896D01*
X764670Y409713D01*
X765576Y408807D01*
X768271Y402301D01*
X768271Y395259D01*
X765576Y388753D01*
X764670Y387847D01*
X764638Y387809D01*
X764601Y387775D01*
X764495Y387638D01*
X764384Y387504D01*
X764359Y387461D01*
X764328Y387421D01*
X764249Y387267D01*
X764163Y387116D01*
X764146Y387069D01*
X764123Y387024D01*
X764072Y386859D01*
X764015Y386695D01*
X764007Y386645D01*
X763992Y386597D01*
X763971Y386425D01*
X763944Y386254D01*
X763945Y386204D01*
X763939Y386154D01*
X763949Y385980D01*
X763953Y385807D01*
X763963Y385758D01*
X763966Y385708D01*
X764007Y385540D01*
X764041Y385369D01*
X764060Y385322D01*
X764071Y385274D01*
X764142Y385115D01*
X764206Y384954D01*
X764232Y384912D01*
X764253Y384866D01*
X764350Y384722D01*
X764442Y384575D01*
X764476Y384538D01*
X764504Y384496D01*
X764670Y384313D01*
X765576Y383407D01*
X768271Y376901D01*
X768271Y369859D01*
X765576Y363353D01*
X764670Y362447D01*
X764638Y362409D01*
X764601Y362375D01*
X764495Y362238D01*
X764384Y362104D01*
X764359Y362061D01*
X764328Y362021D01*
X764249Y361867D01*
X764163Y361716D01*
X764146Y361669D01*
X764123Y361624D01*
X764072Y361459D01*
X764015Y361295D01*
X764007Y361245D01*
X763992Y361197D01*
X763971Y361025D01*
X763944Y360854D01*
X763945Y360804D01*
X763939Y360754D01*
X763949Y360580D01*
X763953Y360407D01*
X763963Y360358D01*
X763966Y360308D01*
X764007Y360140D01*
X764041Y359969D01*
X764060Y359922D01*
X764071Y359874D01*
X764142Y359715D01*
X764206Y359554D01*
X764232Y359512D01*
X764253Y359466D01*
X764350Y359322D01*
X764442Y359175D01*
X764476Y359138D01*
X764504Y359096D01*
X764670Y358913D01*
X765576Y358007D01*
X768271Y351501D01*
X768271Y344459D01*
X765576Y337953D01*
X764670Y337047D01*
X764638Y337009D01*
X764601Y336975D01*
X764495Y336838D01*
X764384Y336704D01*
X764359Y336661D01*
X764328Y336621D01*
X764249Y336467D01*
X764163Y336316D01*
X764146Y336269D01*
X764123Y336224D01*
X764072Y336059D01*
X764015Y335895D01*
X764007Y335845D01*
X763992Y335797D01*
X763971Y335625D01*
X763944Y335454D01*
X763945Y335404D01*
X763939Y335354D01*
X763949Y335180D01*
X763953Y335007D01*
X763963Y334958D01*
X763966Y334908D01*
X764007Y334740D01*
X764041Y334569D01*
X764060Y334522D01*
X764071Y334474D01*
X764142Y334315D01*
X764206Y334154D01*
X764232Y334112D01*
X764253Y334066D01*
X764350Y333922D01*
X764442Y333775D01*
X764476Y333738D01*
X764504Y333696D01*
X764670Y333513D01*
X765576Y332607D01*
X768271Y326101D01*
X768271Y319059D01*
X765576Y312553D01*
X764670Y311647D01*
X764638Y311609D01*
X764601Y311575D01*
X764495Y311438D01*
X764384Y311304D01*
X764359Y311261D01*
X764328Y311221D01*
X764249Y311067D01*
X764163Y310916D01*
X764146Y310869D01*
X764123Y310824D01*
X764072Y310659D01*
X764015Y310495D01*
X764007Y310445D01*
X763992Y310397D01*
X763971Y310225D01*
X763944Y310054D01*
X763945Y310004D01*
X763939Y309954D01*
X763949Y309780D01*
X763953Y309607D01*
X763963Y309558D01*
X763966Y309508D01*
X764007Y309340D01*
X764041Y309169D01*
X764060Y309122D01*
X764071Y309074D01*
X764142Y308915D01*
X764206Y308754D01*
X764232Y308712D01*
X764253Y308666D01*
X764350Y308522D01*
X764442Y308375D01*
X764476Y308338D01*
X764504Y308296D01*
X764670Y308113D01*
X765576Y307207D01*
X768271Y300701D01*
X768271Y293659D01*
X765576Y287153D01*
X764670Y286247D01*
X764638Y286209D01*
X764601Y286175D01*
X764495Y286038D01*
X764384Y285904D01*
X764359Y285861D01*
X764328Y285821D01*
X764249Y285667D01*
X764163Y285516D01*
X764146Y285469D01*
X764123Y285424D01*
X764072Y285259D01*
X764015Y285095D01*
X764007Y285045D01*
X763992Y284997D01*
X763971Y284825D01*
X763944Y284654D01*
X763945Y284604D01*
X763939Y284554D01*
X763949Y284380D01*
X763953Y284207D01*
X763963Y284158D01*
X763966Y284108D01*
X764007Y283940D01*
X764041Y283769D01*
X764060Y283722D01*
X764071Y283674D01*
X764142Y283515D01*
X764206Y283354D01*
X764232Y283312D01*
X764253Y283266D01*
X764350Y283122D01*
X764442Y282975D01*
X764476Y282938D01*
X764504Y282896D01*
X764670Y282713D01*
X765576Y281807D01*
X768271Y275301D01*
X768271Y268259D01*
X765576Y261753D01*
X764670Y260847D01*
X764638Y260809D01*
X764601Y260775D01*
X764495Y260638D01*
X764384Y260504D01*
X764359Y260461D01*
X764328Y260421D01*
X764249Y260267D01*
X764163Y260116D01*
X764146Y260069D01*
X764123Y260024D01*
X764072Y259859D01*
X764015Y259695D01*
X764007Y259645D01*
X763992Y259597D01*
X763971Y259425D01*
X763944Y259254D01*
X763945Y259204D01*
X763939Y259154D01*
X763949Y258980D01*
X763953Y258807D01*
X763963Y258758D01*
X763966Y258708D01*
X764007Y258540D01*
X764041Y258369D01*
X764060Y258322D01*
X764071Y258274D01*
X764142Y258115D01*
X764206Y257954D01*
X764232Y257912D01*
X764253Y257866D01*
X764350Y257722D01*
X764442Y257575D01*
X764476Y257538D01*
X764504Y257496D01*
X764670Y257313D01*
X765576Y256407D01*
X768271Y249901D01*
X768271Y242859D01*
X765576Y236353D01*
X764670Y235447D01*
X764638Y235409D01*
X764601Y235375D01*
X764495Y235238D01*
X764384Y235104D01*
X764359Y235061D01*
X764328Y235021D01*
X764249Y234867D01*
X764163Y234716D01*
X764146Y234669D01*
X764123Y234624D01*
X764072Y234459D01*
X764015Y234295D01*
X764007Y234245D01*
X763992Y234197D01*
X763971Y234025D01*
X763944Y233854D01*
X763945Y233804D01*
X763939Y233754D01*
X763949Y233580D01*
X763953Y233407D01*
X763963Y233358D01*
X763966Y233308D01*
X764007Y233140D01*
X764041Y232969D01*
X764060Y232922D01*
X764071Y232874D01*
X764142Y232715D01*
X764206Y232554D01*
X764232Y232512D01*
X764253Y232466D01*
X764350Y232322D01*
X764442Y232175D01*
X764476Y232138D01*
X764504Y232096D01*
X764670Y231913D01*
X765576Y231007D01*
X768271Y224501D01*
X768271Y217459D01*
X765576Y210953D01*
X764670Y210047D01*
X764638Y210009D01*
X764601Y209975D01*
X764495Y209838D01*
X764384Y209704D01*
X764359Y209661D01*
X764328Y209621D01*
X764248Y209467D01*
X764163Y209316D01*
X764146Y209269D01*
X764123Y209224D01*
X764072Y209058D01*
X764015Y208895D01*
X764007Y208845D01*
X763992Y208797D01*
X763971Y208625D01*
X763944Y208454D01*
X763945Y208404D01*
X763939Y208354D01*
X763949Y208180D01*
X763953Y208007D01*
X763963Y207958D01*
X763966Y207908D01*
X764007Y207739D01*
X764041Y207569D01*
X764060Y207523D01*
X764071Y207474D01*
X764142Y207315D01*
X764206Y207154D01*
X764232Y207111D01*
X764253Y207066D01*
X764350Y206922D01*
X764442Y206775D01*
X764476Y206738D01*
X764504Y206696D01*
X764670Y206513D01*
X765576Y205607D01*
X768271Y199101D01*
X768271Y192059D01*
X765576Y185553D01*
X764670Y184647D01*
X764638Y184609D01*
X764601Y184575D01*
X764495Y184438D01*
X764384Y184304D01*
X764359Y184261D01*
X764328Y184221D01*
X764249Y184067D01*
X764163Y183916D01*
X764146Y183869D01*
X764123Y183824D01*
X764072Y183659D01*
X764015Y183495D01*
X764007Y183445D01*
X763992Y183397D01*
X763971Y183225D01*
X763944Y183054D01*
X763945Y183004D01*
X763939Y182954D01*
X763949Y182780D01*
X763953Y182607D01*
X763963Y182558D01*
X763966Y182508D01*
X764007Y182340D01*
X764041Y182169D01*
X764060Y182122D01*
X764071Y182074D01*
X764142Y181915D01*
X764206Y181754D01*
X764232Y181712D01*
X764253Y181666D01*
X764350Y181522D01*
X764442Y181375D01*
X764476Y181338D01*
X764504Y181296D01*
X764670Y181113D01*
X765576Y180207D01*
X768271Y173701D01*
X768271Y166659D01*
X765576Y160153D01*
X764670Y159247D01*
X764638Y159209D01*
X764601Y159175D01*
X764495Y159038D01*
X764384Y158904D01*
X764359Y158861D01*
X764328Y158821D01*
X764249Y158667D01*
X764163Y158516D01*
X764146Y158469D01*
X764123Y158424D01*
X764072Y158259D01*
X764015Y158095D01*
X764007Y158045D01*
X763992Y157997D01*
X763971Y157825D01*
X763944Y157654D01*
X763945Y157604D01*
X763939Y157554D01*
X763949Y157380D01*
X763953Y157207D01*
X763963Y157158D01*
X763966Y157108D01*
X764007Y156940D01*
X764041Y156769D01*
X764060Y156722D01*
X764071Y156674D01*
X764142Y156515D01*
X764206Y156354D01*
X764232Y156312D01*
X764253Y156266D01*
X764350Y156122D01*
X764442Y155975D01*
X764476Y155938D01*
X764504Y155896D01*
X764670Y155713D01*
X765576Y154807D01*
X768271Y148301D01*
X768271Y141259D01*
X765576Y134753D01*
X764670Y133847D01*
X764638Y133809D01*
X764601Y133775D01*
X764495Y133638D01*
X764384Y133504D01*
X764359Y133461D01*
X764328Y133421D01*
X764249Y133267D01*
X764163Y133116D01*
X764146Y133069D01*
X764123Y133024D01*
X764072Y132859D01*
X764015Y132695D01*
X764007Y132645D01*
X763992Y132597D01*
X763971Y132425D01*
X763944Y132254D01*
X763945Y132204D01*
X763939Y132154D01*
X763949Y131980D01*
X763953Y131807D01*
X763963Y131758D01*
X763966Y131708D01*
X764007Y131540D01*
X764041Y131369D01*
X764060Y131322D01*
X764071Y131274D01*
X764142Y131115D01*
X764206Y130954D01*
X764232Y130912D01*
X764253Y130866D01*
X764350Y130722D01*
X764442Y130575D01*
X764476Y130538D01*
X764504Y130496D01*
X764670Y130313D01*
X765576Y129407D01*
X768271Y122901D01*
X768271Y115859D01*
X765576Y109353D01*
X764670Y108447D01*
X764638Y108409D01*
X764601Y108375D01*
X764495Y108238D01*
X764384Y108104D01*
X764359Y108061D01*
X764328Y108021D01*
X764249Y107867D01*
X764163Y107716D01*
X764146Y107669D01*
X764123Y107624D01*
X764072Y107459D01*
X764015Y107295D01*
X764007Y107245D01*
X763992Y107197D01*
X763971Y107025D01*
X763944Y106854D01*
X763945Y106804D01*
X763939Y106754D01*
X763949Y106580D01*
X763953Y106407D01*
X763963Y106358D01*
X763966Y106308D01*
X764007Y106140D01*
X764041Y105969D01*
X764060Y105922D01*
X764071Y105874D01*
X764142Y105715D01*
X764206Y105554D01*
X764232Y105512D01*
X764253Y105466D01*
X764350Y105322D01*
X764442Y105175D01*
X764476Y105138D01*
X764504Y105096D01*
X764670Y104913D01*
X765576Y104007D01*
X768271Y97501D01*
X768271Y90459D01*
X765576Y83953D01*
X760597Y78974D01*
X754091Y76279D01*
X747049Y76279D01*
X740543Y78974D01*
X735564Y83953D01*
X735148Y84958D01*
X735092Y85065D01*
X735045Y85177D01*
X734988Y85263D01*
X734941Y85354D01*
X734867Y85449D01*
X734800Y85551D01*
X734729Y85625D01*
X734666Y85707D01*
X734576Y85787D01*
X734493Y85875D01*
X734410Y85936D01*
X734334Y86005D01*
X734231Y86068D01*
X734133Y86140D01*
X734041Y86185D01*
X733953Y86239D01*
X733841Y86283D01*
X733732Y86336D01*
X733633Y86364D01*
X733537Y86402D01*
X733419Y86425D01*
X733302Y86458D01*
X733200Y86468D01*
X733099Y86488D01*
X732978Y86489D01*
X732858Y86501D01*
X732755Y86493D01*
X732652Y86494D01*
X732533Y86474D01*
X732413Y86465D01*
X732313Y86438D01*
X732212Y86421D01*
X732098Y86381D01*
X731981Y86349D01*
X731888Y86306D01*
X731791Y86271D01*
X731686Y86211D01*
X731577Y86159D01*
X731430Y86063D01*
X731404Y86048D01*
X731393Y86039D01*
X731370Y86024D01*
X730453Y85358D01*
X729040Y84638D01*
X727669Y84193D01*
X727669Y93980D01*
X727665Y94030D01*
X727667Y94079D01*
X727645Y94251D01*
X727629Y94425D01*
X727616Y94473D01*
X727610Y94522D01*
X727557Y94688D01*
X727511Y94855D01*
X727489Y94900D01*
X727474Y94948D01*
X727393Y95101D01*
X727318Y95258D01*
X727288Y95299D01*
X727265Y95343D01*
X727158Y95479D01*
X727056Y95620D01*
X727055Y95620D01*
X727020Y95655D01*
X726989Y95694D01*
X726988Y95694D01*
X726858Y95810D01*
X726733Y95930D01*
X726692Y95958D01*
X726654Y95991D01*
X726506Y96081D01*
X726361Y96177D01*
X726315Y96197D01*
X726273Y96223D01*
X726110Y96285D01*
X725951Y96354D01*
X725903Y96365D01*
X725856Y96383D01*
X725685Y96416D01*
X725516Y96455D01*
X725466Y96458D01*
X725417Y96467D01*
X725170Y96479D01*
X715383Y96479D01*
X715828Y97850D01*
X716548Y99263D01*
X717214Y100180D01*
X717276Y100283D01*
X717346Y100382D01*
X717390Y100475D01*
X717443Y100563D01*
X717486Y100676D01*
X717537Y100785D01*
X717564Y100885D01*
X717600Y100981D01*
X717622Y101100D01*
X717654Y101217D01*
X717662Y101319D01*
X717681Y101421D01*
X717681Y101541D01*
X717691Y101662D01*
X717681Y101764D01*
X717682Y101867D01*
X717660Y101986D01*
X717649Y102106D01*
X717621Y102206D01*
X717603Y102307D01*
X717561Y102420D01*
X717528Y102537D01*
X717483Y102629D01*
X717447Y102726D01*
X717386Y102830D01*
X717333Y102938D01*
X717272Y103021D01*
X717220Y103110D01*
X717141Y103201D01*
X717069Y103299D01*
X716994Y103370D01*
X716927Y103448D01*
X716833Y103523D01*
X716745Y103607D01*
X716659Y103663D01*
X716579Y103728D01*
X716473Y103786D01*
X716372Y103852D01*
X716213Y103927D01*
X716187Y103941D01*
X716174Y103946D01*
X716148Y103958D01*
X715143Y104374D01*
X710164Y109353D01*
X707469Y115859D01*
X707469Y122901D01*
X710164Y129407D01*
X711070Y130313D01*
X711102Y130351D01*
X711139Y130385D01*
X711245Y130522D01*
X711356Y130656D01*
X711381Y130699D01*
X711412Y130739D01*
X711492Y130893D01*
X711577Y131044D01*
X711594Y131091D01*
X711617Y131136D01*
X711668Y131302D01*
X711725Y131465D01*
X711733Y131515D01*
X711748Y131563D01*
X711769Y131735D01*
X711796Y131906D01*
X711795Y131956D01*
X711801Y132006D01*
X711791Y132179D01*
X711787Y132353D01*
X711777Y132402D01*
X711774Y132452D01*
X711733Y132621D01*
X711699Y132791D01*
X711680Y132837D01*
X711669Y132886D01*
X711598Y133045D01*
X711534Y133206D01*
X711508Y133249D01*
X711487Y133294D01*
X711390Y133438D01*
X711298Y133585D01*
X711264Y133622D01*
X711236Y133664D01*
X711070Y133847D01*
X710164Y134753D01*
X707469Y141259D01*
X707469Y148301D01*
X710164Y154807D01*
X711070Y155713D01*
X711102Y155751D01*
X711139Y155785D01*
X711245Y155922D01*
X711356Y156056D01*
X711381Y156099D01*
X711412Y156139D01*
X711492Y156293D01*
X711577Y156444D01*
X711594Y156491D01*
X711617Y156536D01*
X711668Y156702D01*
X711725Y156865D01*
X711733Y156915D01*
X711748Y156963D01*
X711769Y157135D01*
X711796Y157306D01*
X711795Y157356D01*
X711801Y157406D01*
X711791Y157580D01*
X711787Y157753D01*
X711777Y157802D01*
X711774Y157852D01*
X711733Y158021D01*
X711699Y158191D01*
X711680Y158237D01*
X711669Y158286D01*
X711598Y158445D01*
X711534Y158606D01*
X711508Y158649D01*
X711487Y158694D01*
X711390Y158838D01*
X711298Y158985D01*
X711264Y159022D01*
X711236Y159064D01*
X711070Y159247D01*
X710164Y160153D01*
X707469Y166659D01*
X707469Y168941D01*
X707453Y169127D01*
X707441Y169313D01*
X707433Y169348D01*
X707429Y169385D01*
X707380Y169566D01*
X707336Y169747D01*
X707321Y169780D01*
X707311Y169816D01*
X707230Y169985D01*
X707154Y170155D01*
X707134Y170185D01*
X707118Y170219D01*
X707008Y170370D01*
X706903Y170524D01*
X706869Y170562D01*
X706856Y170581D01*
X706829Y170606D01*
X706737Y170708D01*
X679438Y198007D01*
X679295Y198127D01*
X679155Y198251D01*
X679123Y198270D01*
X679095Y198294D01*
X678933Y198386D01*
X678773Y198483D01*
X678739Y198496D01*
X678707Y198514D01*
X678531Y198576D01*
X678356Y198643D01*
X678320Y198650D01*
X678285Y198663D01*
X678101Y198692D01*
X677918Y198727D01*
X677867Y198730D01*
X677844Y198733D01*
X677807Y198732D01*
X677671Y198739D01*
X675729Y198739D01*
X675636Y198731D01*
X675543Y198732D01*
X675414Y198711D01*
X675284Y198699D01*
X675194Y198675D01*
X675102Y198659D01*
X674979Y198615D01*
X674854Y198581D01*
X674769Y198540D01*
X674681Y198509D01*
X674569Y198444D01*
X674451Y198388D01*
X674375Y198333D01*
X674294Y198286D01*
X674195Y198202D01*
X674089Y198126D01*
X674024Y198058D01*
X673953Y197998D01*
X673870Y197897D01*
X673780Y197804D01*
X673728Y197726D01*
X673668Y197654D01*
X673604Y197540D01*
X673532Y197432D01*
X673495Y197346D01*
X673450Y197264D01*
X673407Y197141D01*
X673355Y197021D01*
X673334Y196930D01*
X673304Y196842D01*
X673284Y196713D01*
X673254Y196586D01*
X673250Y196493D01*
X673235Y196401D01*
X673239Y196270D01*
X673232Y196140D01*
X673244Y196048D01*
X673246Y195954D01*
X673273Y195826D01*
X673290Y195697D01*
X673318Y195608D01*
X673337Y195517D01*
X673420Y195284D01*
X675801Y189537D01*
X675801Y182463D01*
X673094Y175928D01*
X672233Y175067D01*
X672201Y175029D01*
X672164Y174995D01*
X672058Y174858D01*
X671947Y174724D01*
X671922Y174681D01*
X671891Y174641D01*
X671812Y174487D01*
X671726Y174336D01*
X671709Y174289D01*
X671686Y174244D01*
X671635Y174079D01*
X671578Y173915D01*
X671570Y173865D01*
X671555Y173817D01*
X671535Y173645D01*
X671507Y173474D01*
X671508Y173424D01*
X671502Y173374D01*
X671512Y173200D01*
X671516Y173027D01*
X671526Y172978D01*
X671529Y172928D01*
X671570Y172760D01*
X671604Y172589D01*
X671623Y172542D01*
X671635Y172494D01*
X671705Y172335D01*
X671769Y172174D01*
X671795Y172132D01*
X671816Y172086D01*
X671914Y171942D01*
X672005Y171795D01*
X672039Y171758D01*
X672067Y171716D01*
X672233Y171533D01*
X673094Y170672D01*
X675801Y164137D01*
X675801Y157063D01*
X673094Y150528D01*
X672233Y149667D01*
X672201Y149629D01*
X672164Y149595D01*
X672058Y149458D01*
X671947Y149324D01*
X671922Y149281D01*
X671891Y149241D01*
X671812Y149087D01*
X671726Y148936D01*
X671709Y148889D01*
X671686Y148844D01*
X671635Y148679D01*
X671578Y148515D01*
X671570Y148465D01*
X671555Y148417D01*
X671535Y148245D01*
X671507Y148074D01*
X671508Y148024D01*
X671502Y147974D01*
X671512Y147800D01*
X671516Y147627D01*
X671526Y147578D01*
X671529Y147528D01*
X671570Y147360D01*
X671604Y147189D01*
X671623Y147142D01*
X671635Y147094D01*
X671705Y146935D01*
X671769Y146774D01*
X671795Y146732D01*
X671816Y146686D01*
X671914Y146542D01*
X672005Y146395D01*
X672039Y146358D01*
X672067Y146316D01*
X672233Y146133D01*
X673094Y145272D01*
X675801Y138737D01*
X675801Y131663D01*
X673094Y125128D01*
X672233Y124267D01*
X672201Y124229D01*
X672164Y124195D01*
X672058Y124058D01*
X671947Y123924D01*
X671922Y123881D01*
X671891Y123841D01*
X671812Y123687D01*
X671726Y123536D01*
X671709Y123489D01*
X671686Y123444D01*
X671635Y123279D01*
X671578Y123115D01*
X671570Y123065D01*
X671555Y123017D01*
X671535Y122845D01*
X671507Y122674D01*
X671508Y122624D01*
X671502Y122574D01*
X671512Y122400D01*
X671516Y122227D01*
X671526Y122178D01*
X671529Y122128D01*
X671570Y121960D01*
X671604Y121789D01*
X671623Y121742D01*
X671635Y121694D01*
X671705Y121535D01*
X671769Y121374D01*
X671795Y121332D01*
X671816Y121286D01*
X671914Y121142D01*
X672005Y120995D01*
X672039Y120958D01*
X672067Y120916D01*
X672233Y120733D01*
X673094Y119872D01*
X675801Y113337D01*
X675801Y106263D01*
X673094Y99728D01*
X672233Y98867D01*
X672201Y98829D01*
X672164Y98795D01*
X672058Y98658D01*
X671947Y98524D01*
X671922Y98481D01*
X671891Y98441D01*
X671812Y98287D01*
X671726Y98136D01*
X671709Y98089D01*
X671686Y98044D01*
X671635Y97879D01*
X671578Y97715D01*
X671570Y97665D01*
X671555Y97617D01*
X671535Y97445D01*
X671507Y97274D01*
X671508Y97224D01*
X671502Y97174D01*
X671512Y97000D01*
X671516Y96827D01*
X671526Y96778D01*
X671529Y96728D01*
X671570Y96560D01*
X671604Y96389D01*
X671623Y96342D01*
X671635Y96294D01*
X671705Y96135D01*
X671769Y95974D01*
X671795Y95932D01*
X671816Y95886D01*
X671914Y95742D01*
X672005Y95595D01*
X672039Y95558D01*
X672067Y95516D01*
X672233Y95333D01*
X673094Y94472D01*
X675801Y87937D01*
X675801Y80863D01*
X673094Y74328D01*
X672233Y73467D01*
X672201Y73429D01*
X672164Y73395D01*
X672058Y73258D01*
X671947Y73124D01*
X671922Y73081D01*
X671891Y73041D01*
X671812Y72887D01*
X671726Y72736D01*
X671709Y72689D01*
X671686Y72644D01*
X671635Y72479D01*
X671578Y72315D01*
X671570Y72265D01*
X671555Y72217D01*
X671535Y72045D01*
X671507Y71874D01*
X671508Y71824D01*
X671502Y71774D01*
X671512Y71600D01*
X671516Y71427D01*
X671526Y71378D01*
X671529Y71328D01*
X671570Y71160D01*
X671604Y70989D01*
X671623Y70942D01*
X671635Y70894D01*
X671705Y70735D01*
X671769Y70574D01*
X671795Y70532D01*
X671816Y70486D01*
X671914Y70342D01*
X672005Y70195D01*
X672039Y70158D01*
X672067Y70116D01*
X672233Y69933D01*
X673094Y69072D01*
X675801Y62537D01*
X675801Y55463D01*
X673094Y48928D01*
X668092Y43926D01*
X661557Y41219D01*
X639243Y41219D01*
X635260Y42869D01*
X635124Y42912D01*
X634990Y42963D01*
X634911Y42978D01*
X634834Y43002D01*
X634692Y43020D01*
X634551Y43047D01*
X634428Y43053D01*
X634391Y43058D01*
X634364Y43056D01*
X634304Y43059D01*
X608932Y43059D01*
X608746Y43043D01*
X608560Y43031D01*
X608524Y43023D01*
X608487Y43019D01*
X608307Y42970D01*
X608126Y42926D01*
X608093Y42911D01*
X608057Y42901D01*
X607888Y42820D01*
X607718Y42744D01*
X607687Y42724D01*
X607654Y42708D01*
X607503Y42598D01*
X607349Y42493D01*
X607311Y42459D01*
X607292Y42446D01*
X607267Y42419D01*
X607165Y42327D01*
X603331Y38493D01*
X595862Y35399D01*
X587778Y35399D01*
X580309Y38493D01*
X574572Y44230D01*
X574558Y44262D01*
X574502Y44348D01*
X574454Y44440D01*
X574380Y44535D01*
X574314Y44636D01*
X574243Y44711D01*
X574180Y44792D01*
X574090Y44873D01*
X574007Y44960D01*
X573924Y45021D01*
X573847Y45090D01*
X573744Y45154D01*
X573647Y45225D01*
X573555Y45270D01*
X573467Y45324D01*
X573354Y45368D01*
X573246Y45421D01*
X573147Y45450D01*
X573051Y45487D01*
X572932Y45510D01*
X572816Y45543D01*
X572714Y45553D01*
X572613Y45573D01*
X572492Y45575D01*
X572372Y45587D01*
X572269Y45578D01*
X572166Y45580D01*
X572047Y45560D01*
X571926Y45550D01*
X571827Y45523D01*
X571725Y45507D01*
X571612Y45466D01*
X571495Y45435D01*
X571401Y45391D01*
X571305Y45356D01*
X571200Y45296D01*
X571091Y45245D01*
X570943Y45149D01*
X570917Y45134D01*
X570907Y45125D01*
X570883Y45109D01*
X570536Y44857D01*
X568756Y43950D01*
X566854Y43332D01*
X566419Y43263D01*
X566419Y55680D01*
X566417Y55708D01*
X566419Y55760D01*
X566419Y68177D01*
X566854Y68108D01*
X568756Y67490D01*
X570536Y66583D01*
X570883Y66331D01*
X570987Y66269D01*
X571085Y66198D01*
X571178Y66154D01*
X571267Y66102D01*
X571380Y66059D01*
X571489Y66007D01*
X571588Y65981D01*
X571685Y65944D01*
X571804Y65922D01*
X571920Y65891D01*
X572023Y65882D01*
X572124Y65864D01*
X572245Y65864D01*
X572365Y65853D01*
X572468Y65863D01*
X572571Y65863D01*
X572690Y65884D01*
X572810Y65896D01*
X572909Y65924D01*
X573011Y65942D01*
X573124Y65984D01*
X573240Y66016D01*
X573333Y66061D01*
X573429Y66097D01*
X573533Y66159D01*
X573642Y66212D01*
X573725Y66273D01*
X573814Y66325D01*
X573905Y66404D01*
X574002Y66475D01*
X574073Y66550D01*
X574151Y66618D01*
X574227Y66712D01*
X574310Y66799D01*
X574367Y66885D01*
X574431Y66965D01*
X574489Y67072D01*
X574555Y67173D01*
X574574Y67212D01*
X576973Y69611D01*
X577005Y69650D01*
X577042Y69683D01*
X577148Y69821D01*
X577260Y69954D01*
X577284Y69997D01*
X577315Y70037D01*
X577395Y70192D01*
X577480Y70342D01*
X577497Y70390D01*
X577520Y70434D01*
X577571Y70600D01*
X577629Y70764D01*
X577636Y70813D01*
X577651Y70861D01*
X577672Y71033D01*
X577699Y71205D01*
X577698Y71255D01*
X577704Y71305D01*
X577694Y71478D01*
X577690Y71651D01*
X577680Y71700D01*
X577677Y71750D01*
X577636Y71919D01*
X577602Y72089D01*
X577584Y72136D01*
X577572Y72184D01*
X577501Y72343D01*
X577437Y72504D01*
X577411Y72547D01*
X577390Y72593D01*
X577293Y72737D01*
X577201Y72884D01*
X577168Y72921D01*
X577139Y72962D01*
X576973Y73146D01*
X370267Y279852D01*
X368339Y284505D01*
X368339Y593565D01*
X368323Y593751D01*
X368311Y593937D01*
X368303Y593973D01*
X368299Y594010D01*
X368250Y594191D01*
X368206Y594371D01*
X368191Y594405D01*
X368181Y594441D01*
X368100Y594609D01*
X368024Y594780D01*
X368004Y594810D01*
X367988Y594844D01*
X367878Y594995D01*
X367773Y595149D01*
X367739Y595187D01*
X367726Y595205D01*
X367699Y595231D01*
X367607Y595333D01*
X366733Y596207D01*
X366589Y596327D01*
X366450Y596451D01*
X366418Y596470D01*
X366390Y596494D01*
X366228Y596586D01*
X366068Y596683D01*
X366034Y596696D01*
X366001Y596714D01*
X365825Y596776D01*
X365651Y596843D01*
X365615Y596850D01*
X365580Y596863D01*
X365396Y596892D01*
X365212Y596927D01*
X365162Y596930D01*
X365139Y596933D01*
X365102Y596932D01*
X364965Y596939D01*
X197079Y596939D01*
X196893Y596923D01*
X196707Y596911D01*
X196672Y596903D01*
X196635Y596899D01*
X196454Y596850D01*
X196273Y596806D01*
X196240Y596791D01*
X196204Y596781D01*
X196035Y596700D01*
X195865Y596624D01*
X195835Y596604D01*
X195801Y596588D01*
X195650Y596478D01*
X195496Y596373D01*
X195458Y596339D01*
X195439Y596326D01*
X195414Y596299D01*
X195312Y596207D01*
X186922Y587817D01*
X186918Y587812D01*
X186913Y587808D01*
X186775Y587641D01*
X186636Y587474D01*
X186632Y587469D01*
X186628Y587463D01*
X186521Y587272D01*
X186415Y587086D01*
X186413Y587080D01*
X186409Y587074D01*
X186339Y586870D01*
X186267Y586664D01*
X186266Y586658D01*
X186264Y586652D01*
X186230Y586438D01*
X186196Y586223D01*
X186196Y586217D01*
X186195Y586210D01*
X186201Y585991D01*
X186205Y585777D01*
X186206Y585770D01*
X186206Y585764D01*
X186252Y585545D01*
X186293Y585339D01*
X186296Y585333D01*
X186297Y585326D01*
X186380Y585093D01*
X186901Y583837D01*
X186901Y576763D01*
X184520Y571016D01*
X184492Y570927D01*
X184455Y570841D01*
X184426Y570715D01*
X184387Y570590D01*
X184375Y570497D01*
X184354Y570406D01*
X184348Y570276D01*
X184332Y570147D01*
X184337Y570053D01*
X184332Y569960D01*
X184349Y569831D01*
X184356Y569701D01*
X184378Y569610D01*
X184390Y569517D01*
X184429Y569393D01*
X184459Y569266D01*
X184497Y569180D01*
X184525Y569092D01*
X184586Y568977D01*
X184639Y568857D01*
X184691Y568779D01*
X184735Y568697D01*
X184815Y568594D01*
X184888Y568486D01*
X184953Y568419D01*
X185011Y568346D01*
X185108Y568259D01*
X185199Y568166D01*
X185275Y568111D01*
X185345Y568049D01*
X185456Y567982D01*
X185562Y567906D01*
X185647Y567866D01*
X185726Y567817D01*
X185848Y567770D01*
X185966Y567715D01*
X186056Y567690D01*
X186143Y567657D01*
X186272Y567632D01*
X186397Y567598D01*
X186490Y567591D01*
X186582Y567573D01*
X186829Y567561D01*
X195418Y567561D01*
X200072Y565633D01*
X211733Y553972D01*
X213661Y549318D01*
X213661Y334682D01*
X211733Y330028D01*
X155793Y274088D01*
X155673Y273945D01*
X155549Y273805D01*
X155530Y273773D01*
X155506Y273745D01*
X155414Y273583D01*
X155317Y273423D01*
X155304Y273389D01*
X155286Y273357D01*
X155224Y273181D01*
X155157Y273006D01*
X155150Y272970D01*
X155137Y272935D01*
X155108Y272751D01*
X155073Y272568D01*
X155070Y272517D01*
X155067Y272494D01*
X155068Y272457D01*
X155061Y272321D01*
X155061Y223453D01*
X155073Y223316D01*
X155076Y223180D01*
X155093Y223095D01*
X155101Y223008D01*
X155137Y222876D01*
X155164Y222742D01*
X155196Y222661D01*
X155219Y222577D01*
X155278Y222454D01*
X155329Y222327D01*
X155375Y222253D01*
X155412Y222174D01*
X155493Y222063D01*
X155565Y221947D01*
X155623Y221883D01*
X155674Y221812D01*
X155773Y221718D01*
X155865Y221616D01*
X155934Y221563D01*
X155996Y221503D01*
X156110Y221427D01*
X156219Y221344D01*
X156296Y221304D01*
X156368Y221256D01*
X156494Y221202D01*
X156616Y221139D01*
X156699Y221113D01*
X156779Y221079D01*
X156912Y221048D01*
X157043Y221008D01*
X157129Y220997D01*
X157214Y220978D01*
X157350Y220971D01*
X157486Y220955D01*
X157573Y220960D01*
X157660Y220955D01*
X157795Y220973D01*
X157932Y220981D01*
X158017Y221002D01*
X158103Y221013D01*
X158233Y221055D01*
X158366Y221087D01*
X158445Y221122D01*
X158528Y221149D01*
X158649Y221213D01*
X158774Y221268D01*
X158846Y221317D01*
X158923Y221358D01*
X159031Y221443D01*
X159144Y221519D01*
X159245Y221611D01*
X159274Y221634D01*
X159290Y221652D01*
X159327Y221685D01*
X162923Y225281D01*
X170111Y228259D01*
X196689Y228259D01*
X203877Y225281D01*
X209379Y219779D01*
X212357Y212591D01*
X212357Y204809D01*
X209356Y197565D01*
X209350Y197558D01*
X209239Y197424D01*
X209214Y197381D01*
X209184Y197341D01*
X209104Y197187D01*
X209018Y197036D01*
X209002Y196989D01*
X208979Y196944D01*
X208928Y196778D01*
X208870Y196615D01*
X208862Y196565D01*
X208848Y196517D01*
X208827Y196345D01*
X208799Y196174D01*
X208800Y196123D01*
X208795Y196074D01*
X208805Y195900D01*
X208808Y195727D01*
X208818Y195678D01*
X208821Y195628D01*
X208862Y195459D01*
X208897Y195289D01*
X208915Y195242D01*
X208927Y195194D01*
X208997Y195035D01*
X209062Y194874D01*
X209088Y194831D01*
X209108Y194786D01*
X209206Y194642D01*
X209298Y194495D01*
X209331Y194458D01*
X209359Y194416D01*
X209368Y194407D01*
X212357Y187191D01*
X212357Y179409D01*
X209379Y172221D01*
X203721Y166563D01*
X203654Y166483D01*
X203580Y166409D01*
X203511Y166311D01*
X203435Y166220D01*
X203383Y166129D01*
X203323Y166043D01*
X203273Y165935D01*
X203214Y165832D01*
X203179Y165733D01*
X203135Y165638D01*
X203106Y165523D01*
X203066Y165410D01*
X203049Y165307D01*
X203023Y165206D01*
X203014Y165087D01*
X202995Y164969D01*
X202997Y164865D01*
X202990Y164760D01*
X203002Y164642D01*
X203004Y164523D01*
X203025Y164420D01*
X203036Y164316D01*
X203069Y164201D01*
X203093Y164085D01*
X203131Y163988D01*
X203160Y163887D01*
X203253Y163679D01*
X203257Y163670D01*
X203259Y163667D01*
X203262Y163661D01*
X203862Y162483D01*
X204443Y160695D01*
X204443Y160693D01*
X183694Y160693D01*
X183644Y160689D01*
X183594Y160691D01*
X183423Y160669D01*
X183249Y160653D01*
X183201Y160640D01*
X183151Y160634D01*
X182986Y160581D01*
X182819Y160535D01*
X182773Y160513D01*
X182726Y160498D01*
X182573Y160417D01*
X182416Y160342D01*
X182375Y160312D01*
X182331Y160289D01*
X182195Y160182D01*
X182054Y160080D01*
X182019Y160044D01*
X181980Y160013D01*
X181865Y159883D01*
X181744Y159758D01*
X181717Y159716D01*
X181684Y159678D01*
X181593Y159530D01*
X181497Y159386D01*
X181477Y159340D01*
X181451Y159297D01*
X181389Y159135D01*
X181320Y158975D01*
X181309Y158927D01*
X181291Y158880D01*
X181258Y158709D01*
X181219Y158540D01*
X181217Y158490D01*
X181207Y158441D01*
X181195Y158194D01*
X181195Y157606D01*
X181199Y157560D01*
X181197Y157517D01*
X181197Y157514D01*
X181197Y157506D01*
X181219Y157334D01*
X181235Y157161D01*
X181248Y157113D01*
X181255Y157063D01*
X181307Y156898D01*
X181353Y156730D01*
X181375Y156685D01*
X181390Y156638D01*
X181471Y156484D01*
X181547Y156328D01*
X181576Y156287D01*
X181599Y156243D01*
X181707Y156106D01*
X181808Y155966D01*
X181845Y155931D01*
X181876Y155892D01*
X182006Y155776D01*
X182131Y155656D01*
X182172Y155629D01*
X182210Y155595D01*
X182358Y155505D01*
X182503Y155409D01*
X182549Y155389D01*
X182591Y155363D01*
X182753Y155301D01*
X182913Y155232D01*
X182961Y155221D01*
X183008Y155203D01*
X183179Y155170D01*
X183348Y155131D01*
X183398Y155128D01*
X183447Y155119D01*
X183694Y155107D01*
X204443Y155107D01*
X204443Y155105D01*
X203862Y153317D01*
X203262Y152139D01*
X203223Y152042D01*
X203175Y151949D01*
X203140Y151835D01*
X203095Y151724D01*
X203074Y151622D01*
X203043Y151522D01*
X203029Y151403D01*
X203005Y151287D01*
X203003Y151182D01*
X202990Y151078D01*
X202997Y150959D01*
X202995Y150840D01*
X203011Y150737D01*
X203017Y150632D01*
X203045Y150517D01*
X203064Y150399D01*
X203098Y150300D01*
X203123Y150198D01*
X203171Y150089D01*
X203210Y149977D01*
X203262Y149885D01*
X203304Y149790D01*
X203371Y149691D01*
X203429Y149588D01*
X203496Y149507D01*
X203555Y149420D01*
X203708Y149252D01*
X203715Y149244D01*
X203717Y149242D01*
X203721Y149237D01*
X209379Y143579D01*
X212357Y136391D01*
X212357Y128609D01*
X209356Y121365D01*
X209350Y121358D01*
X209239Y121224D01*
X209214Y121181D01*
X209184Y121141D01*
X209104Y120987D01*
X209018Y120836D01*
X209002Y120789D01*
X208979Y120744D01*
X208928Y120578D01*
X208870Y120415D01*
X208862Y120365D01*
X208848Y120317D01*
X208827Y120145D01*
X208799Y119974D01*
X208800Y119923D01*
X208795Y119874D01*
X208805Y119700D01*
X208808Y119527D01*
X208818Y119478D01*
X208821Y119428D01*
X208862Y119259D01*
X208897Y119089D01*
X208915Y119042D01*
X208927Y118994D01*
X208997Y118835D01*
X209062Y118674D01*
X209088Y118631D01*
X209108Y118586D01*
X209206Y118442D01*
X209298Y118295D01*
X209331Y118258D01*
X209359Y118216D01*
X209368Y118207D01*
X212357Y110991D01*
X212357Y105160D01*
X212361Y105110D01*
X212359Y105060D01*
X212381Y104888D01*
X212397Y104715D01*
X212410Y104667D01*
X212416Y104617D01*
X212469Y104452D01*
X212515Y104284D01*
X212537Y104239D01*
X212552Y104192D01*
X212633Y104038D01*
X212708Y103882D01*
X212738Y103841D01*
X212761Y103797D01*
X212868Y103660D01*
X212970Y103520D01*
X213006Y103485D01*
X213037Y103446D01*
X213167Y103330D01*
X213292Y103210D01*
X213334Y103183D01*
X213372Y103149D01*
X213520Y103059D01*
X213664Y102963D01*
X213710Y102943D01*
X213753Y102917D01*
X213915Y102855D01*
X214075Y102786D01*
X214123Y102775D01*
X214170Y102757D01*
X214341Y102724D01*
X214510Y102685D01*
X214560Y102682D01*
X214609Y102673D01*
X214856Y102661D01*
X223640Y102661D01*
X223690Y102665D01*
X223740Y102663D01*
X223912Y102685D01*
X224085Y102701D01*
X224133Y102714D01*
X224183Y102720D01*
X224348Y102773D01*
X224516Y102819D01*
X224561Y102841D01*
X224608Y102856D01*
X224762Y102937D01*
X224918Y103012D01*
X224959Y103042D01*
X225003Y103065D01*
X225140Y103172D01*
X225280Y103274D01*
X225315Y103310D01*
X225354Y103341D01*
X225470Y103471D01*
X225590Y103596D01*
X225617Y103638D01*
X225651Y103676D01*
X225741Y103824D01*
X225837Y103968D01*
X225857Y104014D01*
X225883Y104057D01*
X225945Y104219D01*
X226014Y104379D01*
X226025Y104427D01*
X226043Y104474D01*
X226076Y104645D01*
X226115Y104814D01*
X226118Y104864D01*
X226127Y104913D01*
X226139Y105160D01*
X226139Y226518D01*
X228067Y231172D01*
X302378Y305483D01*
X302382Y305488D01*
X302387Y305492D01*
X302524Y305658D01*
X302664Y305826D01*
X302668Y305831D01*
X302672Y305837D01*
X302779Y306028D01*
X302885Y306214D01*
X302887Y306220D01*
X302891Y306226D01*
X302961Y306431D01*
X303033Y306636D01*
X303034Y306642D01*
X303036Y306648D01*
X303070Y306862D01*
X303104Y307077D01*
X303104Y307083D01*
X303105Y307090D01*
X303099Y307309D01*
X303095Y307523D01*
X303094Y307530D01*
X303094Y307536D01*
X303049Y307752D01*
X303007Y307961D01*
X303004Y307967D01*
X303003Y307974D01*
X302920Y308207D01*
X302399Y309463D01*
X302399Y316537D01*
X305106Y323072D01*
X305967Y323933D01*
X305999Y323971D01*
X306036Y324005D01*
X306142Y324142D01*
X306253Y324276D01*
X306278Y324319D01*
X306309Y324359D01*
X306388Y324513D01*
X306474Y324664D01*
X306491Y324711D01*
X306514Y324756D01*
X306565Y324922D01*
X306622Y325085D01*
X306630Y325135D01*
X306645Y325183D01*
X306665Y325355D01*
X306693Y325526D01*
X306692Y325576D01*
X306698Y325626D01*
X306688Y325800D01*
X306684Y325973D01*
X306674Y326022D01*
X306671Y326072D01*
X306630Y326241D01*
X306596Y326411D01*
X306577Y326457D01*
X306565Y326506D01*
X306495Y326665D01*
X306431Y326826D01*
X306404Y326869D01*
X306384Y326914D01*
X306286Y327058D01*
X306195Y327205D01*
X306161Y327242D01*
X306133Y327284D01*
X305967Y327467D01*
X305106Y328328D01*
X302399Y334863D01*
X302399Y341937D01*
X305106Y348472D01*
X305967Y349333D01*
X305999Y349371D01*
X306036Y349405D01*
X306142Y349542D01*
X306253Y349676D01*
X306278Y349719D01*
X306309Y349759D01*
X306388Y349913D01*
X306474Y350064D01*
X306491Y350111D01*
X306514Y350156D01*
X306565Y350321D01*
X306622Y350485D01*
X306630Y350535D01*
X306645Y350583D01*
X306665Y350755D01*
X306693Y350926D01*
X306692Y350976D01*
X306698Y351026D01*
X306688Y351200D01*
X306684Y351373D01*
X306674Y351422D01*
X306671Y351472D01*
X306630Y351640D01*
X306596Y351811D01*
X306577Y351858D01*
X306565Y351906D01*
X306495Y352065D01*
X306431Y352226D01*
X306405Y352268D01*
X306384Y352314D01*
X306286Y352458D01*
X306195Y352605D01*
X306161Y352642D01*
X306133Y352684D01*
X305967Y352867D01*
X305106Y353728D01*
X302399Y360263D01*
X302399Y367337D01*
X305106Y373872D01*
X305967Y374733D01*
X305999Y374771D01*
X306036Y374805D01*
X306142Y374942D01*
X306253Y375076D01*
X306278Y375119D01*
X306309Y375159D01*
X306388Y375313D01*
X306474Y375464D01*
X306491Y375511D01*
X306514Y375556D01*
X306565Y375722D01*
X306622Y375885D01*
X306630Y375935D01*
X306645Y375983D01*
X306665Y376155D01*
X306693Y376326D01*
X306692Y376376D01*
X306698Y376426D01*
X306688Y376600D01*
X306684Y376773D01*
X306674Y376822D01*
X306671Y376872D01*
X306630Y377041D01*
X306596Y377211D01*
X306577Y377257D01*
X306565Y377306D01*
X306495Y377465D01*
X306431Y377626D01*
X306404Y377669D01*
X306384Y377714D01*
X306286Y377858D01*
X306195Y378005D01*
X306161Y378042D01*
X306133Y378084D01*
X305967Y378267D01*
X305106Y379128D01*
X302399Y385663D01*
X302399Y392737D01*
X305106Y399272D01*
X305967Y400133D01*
X305999Y400171D01*
X306036Y400205D01*
X306142Y400342D01*
X306253Y400476D01*
X306278Y400519D01*
X306309Y400559D01*
X306388Y400713D01*
X306474Y400864D01*
X306491Y400911D01*
X306514Y400956D01*
X306565Y401122D01*
X306622Y401285D01*
X306630Y401335D01*
X306645Y401383D01*
X306665Y401555D01*
X306693Y401726D01*
X306692Y401776D01*
X306698Y401826D01*
X306688Y402000D01*
X306684Y402173D01*
X306674Y402222D01*
X306671Y402272D01*
X306630Y402441D01*
X306596Y402611D01*
X306577Y402657D01*
X306565Y402706D01*
X306495Y402865D01*
X306431Y403026D01*
X306404Y403069D01*
X306384Y403114D01*
X306286Y403258D01*
X306195Y403405D01*
X306161Y403442D01*
X306133Y403484D01*
X305967Y403667D01*
X305106Y404528D01*
X302399Y411063D01*
X302399Y418137D01*
X305106Y424672D01*
X310108Y429674D01*
X316643Y432381D01*
X338957Y432381D01*
X345492Y429674D01*
X350494Y424672D01*
X353201Y418137D01*
X353201Y411063D01*
X350494Y404528D01*
X349633Y403667D01*
X349601Y403629D01*
X349564Y403595D01*
X349458Y403458D01*
X349347Y403324D01*
X349322Y403281D01*
X349291Y403241D01*
X349212Y403087D01*
X349126Y402936D01*
X349109Y402889D01*
X349086Y402844D01*
X349035Y402679D01*
X348978Y402515D01*
X348970Y402465D01*
X348955Y402417D01*
X348935Y402245D01*
X348907Y402074D01*
X348908Y402024D01*
X348902Y401974D01*
X348912Y401800D01*
X348916Y401627D01*
X348926Y401578D01*
X348929Y401528D01*
X348970Y401360D01*
X349004Y401189D01*
X349023Y401142D01*
X349035Y401094D01*
X349105Y400935D01*
X349169Y400774D01*
X349195Y400732D01*
X349216Y400686D01*
X349314Y400542D01*
X349405Y400395D01*
X349439Y400358D01*
X349467Y400316D01*
X349633Y400133D01*
X350494Y399272D01*
X353201Y392737D01*
X353201Y385663D01*
X350494Y379128D01*
X349633Y378267D01*
X349601Y378229D01*
X349564Y378195D01*
X349458Y378058D01*
X349347Y377924D01*
X349322Y377881D01*
X349291Y377841D01*
X349212Y377687D01*
X349126Y377536D01*
X349109Y377489D01*
X349086Y377444D01*
X349035Y377279D01*
X348978Y377115D01*
X348970Y377065D01*
X348955Y377017D01*
X348935Y376845D01*
X348907Y376674D01*
X348908Y376624D01*
X348902Y376574D01*
X348912Y376400D01*
X348916Y376227D01*
X348926Y376178D01*
X348929Y376128D01*
X348970Y375960D01*
X349004Y375789D01*
X349023Y375742D01*
X349035Y375694D01*
X349105Y375535D01*
X349169Y375374D01*
X349195Y375332D01*
X349216Y375286D01*
X349314Y375142D01*
X349405Y374995D01*
X349439Y374958D01*
X349467Y374916D01*
X349633Y374733D01*
X350494Y373872D01*
X353201Y367337D01*
X353201Y360263D01*
X350494Y353728D01*
X349633Y352867D01*
X349601Y352829D01*
X349564Y352795D01*
X349458Y352658D01*
X349347Y352524D01*
X349322Y352481D01*
X349291Y352441D01*
X349212Y352287D01*
X349126Y352136D01*
X349109Y352089D01*
X349086Y352044D01*
X349035Y351878D01*
X348978Y351715D01*
X348970Y351665D01*
X348955Y351617D01*
X348935Y351445D01*
X348907Y351274D01*
X348908Y351224D01*
X348902Y351174D01*
X348912Y351000D01*
X348916Y350827D01*
X348926Y350778D01*
X348929Y350728D01*
X348970Y350559D01*
X349004Y350389D01*
X349023Y350343D01*
X349035Y350294D01*
X349105Y350135D01*
X349169Y349974D01*
X349196Y349931D01*
X349216Y349886D01*
X349314Y349742D01*
X349405Y349595D01*
X349439Y349558D01*
X349467Y349516D01*
X349633Y349333D01*
X350494Y348472D01*
X353201Y341937D01*
X353201Y334863D01*
X350494Y328328D01*
X349633Y327467D01*
X349601Y327429D01*
X349564Y327395D01*
X349458Y327258D01*
X349347Y327124D01*
X349322Y327081D01*
X349291Y327041D01*
X349212Y326887D01*
X349126Y326736D01*
X349109Y326689D01*
X349086Y326644D01*
X349035Y326479D01*
X348978Y326315D01*
X348970Y326265D01*
X348955Y326217D01*
X348935Y326045D01*
X348907Y325874D01*
X348908Y325824D01*
X348902Y325774D01*
X348912Y325600D01*
X348916Y325427D01*
X348926Y325378D01*
X348929Y325328D01*
X348970Y325160D01*
X349004Y324989D01*
X349023Y324942D01*
X349035Y324894D01*
X349105Y324735D01*
X349169Y324574D01*
X349195Y324532D01*
X349216Y324486D01*
X349314Y324342D01*
X349405Y324195D01*
X349439Y324158D01*
X349467Y324116D01*
X349633Y323933D01*
X350494Y323072D01*
X353201Y316537D01*
X353201Y309463D01*
X350494Y302928D01*
X349633Y302067D01*
X349601Y302029D01*
X349564Y301995D01*
X349458Y301858D01*
X349347Y301724D01*
X349322Y301681D01*
X349291Y301641D01*
X349212Y301487D01*
X349126Y301336D01*
X349109Y301289D01*
X349086Y301244D01*
X349035Y301079D01*
X348978Y300915D01*
X348970Y300865D01*
X348955Y300817D01*
X348935Y300645D01*
X348907Y300474D01*
X348908Y300424D01*
X348902Y300374D01*
X348912Y300200D01*
X348916Y300027D01*
X348926Y299978D01*
X348929Y299928D01*
X348970Y299760D01*
X349004Y299589D01*
X349023Y299542D01*
X349035Y299494D01*
X349105Y299335D01*
X349169Y299174D01*
X349195Y299132D01*
X349216Y299086D01*
X349314Y298942D01*
X349405Y298795D01*
X349439Y298758D01*
X349467Y298716D01*
X349633Y298533D01*
X350494Y297672D01*
X353201Y291137D01*
X353201Y284063D01*
X350494Y277528D01*
X349633Y276667D01*
X349601Y276629D01*
X349564Y276595D01*
X349458Y276458D01*
X349347Y276324D01*
X349322Y276281D01*
X349291Y276241D01*
X349212Y276087D01*
X349126Y275936D01*
X349109Y275889D01*
X349086Y275844D01*
X349035Y275679D01*
X348978Y275515D01*
X348970Y275465D01*
X348955Y275417D01*
X348935Y275245D01*
X348907Y275074D01*
X348908Y275024D01*
X348902Y274974D01*
X348912Y274800D01*
X348916Y274627D01*
X348926Y274578D01*
X348929Y274528D01*
X348970Y274360D01*
X349004Y274189D01*
X349023Y274142D01*
X349035Y274094D01*
X349105Y273935D01*
X349169Y273774D01*
X349195Y273732D01*
X349216Y273686D01*
X349314Y273542D01*
X349405Y273395D01*
X349439Y273358D01*
X349467Y273316D01*
X349633Y273133D01*
X350494Y272272D01*
X353201Y265737D01*
X353201Y258663D01*
X350494Y252128D01*
X349633Y251267D01*
X349601Y251229D01*
X349564Y251195D01*
X349458Y251058D01*
X349347Y250924D01*
X349322Y250881D01*
X349291Y250841D01*
X349212Y250687D01*
X349126Y250536D01*
X349109Y250489D01*
X349086Y250444D01*
X349035Y250279D01*
X348978Y250115D01*
X348970Y250065D01*
X348955Y250017D01*
X348935Y249845D01*
X348907Y249674D01*
X348908Y249624D01*
X348902Y249574D01*
X348912Y249400D01*
X348916Y249227D01*
X348926Y249178D01*
X348929Y249128D01*
X348970Y248960D01*
X349004Y248789D01*
X349023Y248742D01*
X349035Y248694D01*
X349105Y248535D01*
X349169Y248374D01*
X349195Y248332D01*
X349216Y248286D01*
X349314Y248142D01*
X349405Y247995D01*
X349439Y247958D01*
X349467Y247916D01*
X349633Y247733D01*
X350494Y246872D01*
X353201Y240337D01*
X353201Y233263D01*
X350494Y226728D01*
X349633Y225867D01*
X349601Y225829D01*
X349564Y225795D01*
X349458Y225658D01*
X349347Y225524D01*
X349322Y225481D01*
X349291Y225441D01*
X349212Y225287D01*
X349126Y225136D01*
X349109Y225089D01*
X349086Y225044D01*
X349035Y224879D01*
X348978Y224715D01*
X348970Y224665D01*
X348955Y224617D01*
X348935Y224445D01*
X348907Y224274D01*
X348908Y224224D01*
X348902Y224174D01*
X348912Y224000D01*
X348916Y223827D01*
X348926Y223778D01*
X348929Y223728D01*
X348970Y223560D01*
X349004Y223389D01*
X349023Y223342D01*
X349035Y223294D01*
X349105Y223135D01*
X349169Y222974D01*
X349195Y222932D01*
X349216Y222886D01*
X349314Y222742D01*
X349405Y222595D01*
X349439Y222558D01*
X349467Y222516D01*
X349633Y222333D01*
X350494Y221472D01*
X353201Y214937D01*
X353201Y207863D01*
X350494Y201328D01*
X349633Y200467D01*
X349601Y200429D01*
X349564Y200395D01*
X349458Y200258D01*
X349347Y200124D01*
X349322Y200081D01*
X349291Y200041D01*
X349212Y199887D01*
X349126Y199736D01*
X349109Y199689D01*
X349086Y199644D01*
X349035Y199479D01*
X348978Y199315D01*
X348970Y199265D01*
X348955Y199217D01*
X348935Y199045D01*
X348907Y198874D01*
X348908Y198824D01*
X348902Y198774D01*
X348912Y198600D01*
X348916Y198427D01*
X348926Y198378D01*
X348929Y198328D01*
X348970Y198160D01*
X349004Y197989D01*
X349023Y197942D01*
X349035Y197894D01*
X349105Y197735D01*
X349169Y197574D01*
X349195Y197532D01*
X349216Y197486D01*
X349314Y197342D01*
X349405Y197195D01*
X349439Y197158D01*
X349467Y197116D01*
X349633Y196933D01*
X350494Y196072D01*
X353201Y189537D01*
X353201Y182463D01*
X350494Y175928D01*
X349633Y175067D01*
X349601Y175029D01*
X349564Y174995D01*
X349458Y174858D01*
X349347Y174724D01*
X349322Y174681D01*
X349291Y174641D01*
X349212Y174487D01*
X349126Y174336D01*
X349109Y174289D01*
X349086Y174244D01*
X349035Y174079D01*
X348978Y173915D01*
X348970Y173865D01*
X348955Y173817D01*
X348935Y173645D01*
X348907Y173474D01*
X348908Y173424D01*
X348902Y173374D01*
X348912Y173200D01*
X348916Y173027D01*
X348926Y172978D01*
X348929Y172928D01*
X348970Y172760D01*
X349004Y172589D01*
X349023Y172542D01*
X349035Y172494D01*
X349105Y172335D01*
X349169Y172174D01*
X349195Y172132D01*
X349216Y172086D01*
X349314Y171942D01*
X349405Y171795D01*
X349439Y171758D01*
X349467Y171716D01*
X349633Y171533D01*
X350494Y170672D01*
X353201Y164137D01*
X353201Y157063D01*
X350494Y150528D01*
X349633Y149667D01*
X349601Y149629D01*
X349564Y149595D01*
X349458Y149458D01*
X349347Y149324D01*
X349322Y149281D01*
X349291Y149241D01*
X349212Y149087D01*
X349126Y148936D01*
X349109Y148889D01*
X349086Y148844D01*
X349035Y148679D01*
X348978Y148515D01*
X348970Y148465D01*
X348955Y148417D01*
X348935Y148245D01*
X348907Y148074D01*
X348908Y148024D01*
X348902Y147974D01*
X348912Y147800D01*
X348916Y147627D01*
X348926Y147578D01*
X348929Y147528D01*
X348970Y147360D01*
X349004Y147189D01*
X349023Y147142D01*
X349035Y147094D01*
X349105Y146935D01*
X349169Y146774D01*
X349195Y146732D01*
X349216Y146686D01*
X349314Y146542D01*
X349405Y146395D01*
X349439Y146358D01*
X349467Y146316D01*
X349633Y146133D01*
X350494Y145272D01*
X353201Y138737D01*
X353201Y131663D01*
X350494Y125128D01*
X349633Y124267D01*
X349601Y124229D01*
X349564Y124195D01*
X349458Y124058D01*
X349347Y123924D01*
X349322Y123881D01*
X349291Y123841D01*
X349212Y123687D01*
X349126Y123536D01*
X349109Y123489D01*
X349086Y123444D01*
X349035Y123279D01*
X348978Y123115D01*
X348970Y123065D01*
X348955Y123017D01*
X348935Y122845D01*
X348907Y122674D01*
X348908Y122624D01*
X348902Y122574D01*
X348912Y122400D01*
X348916Y122227D01*
X348926Y122178D01*
X348929Y122128D01*
X348970Y121960D01*
X349004Y121789D01*
X349023Y121742D01*
X349035Y121694D01*
X349105Y121535D01*
X349169Y121374D01*
X349195Y121332D01*
X349216Y121286D01*
X349314Y121142D01*
X349405Y120995D01*
X349439Y120958D01*
X349467Y120916D01*
X349633Y120733D01*
X350494Y119872D01*
X353201Y113337D01*
X353201Y106263D01*
X350494Y99728D01*
X349633Y98867D01*
X349601Y98829D01*
X349564Y98795D01*
X349458Y98658D01*
X349347Y98524D01*
X349322Y98481D01*
X349291Y98441D01*
X349212Y98287D01*
X349126Y98136D01*
X349109Y98089D01*
X349086Y98044D01*
X349035Y97879D01*
X348978Y97715D01*
X348970Y97665D01*
X348955Y97617D01*
X348935Y97445D01*
X348907Y97274D01*
X348908Y97224D01*
X348902Y97174D01*
X348912Y97000D01*
X348916Y96827D01*
X348926Y96778D01*
X348929Y96728D01*
X348970Y96560D01*
X349004Y96389D01*
X349023Y96342D01*
X349035Y96294D01*
X349105Y96135D01*
X349169Y95974D01*
X349195Y95932D01*
X349216Y95886D01*
X349314Y95742D01*
X349405Y95595D01*
X349439Y95558D01*
X349467Y95516D01*
X349633Y95333D01*
X350494Y94472D01*
X353201Y87937D01*
X353201Y80863D01*
X350494Y74328D01*
X345492Y69326D01*
X344566Y68943D01*
X344459Y68887D01*
X344348Y68840D01*
X344262Y68783D01*
X344170Y68736D01*
X344075Y68661D01*
X343974Y68595D01*
X343899Y68525D01*
X343818Y68461D01*
X343737Y68371D01*
X343649Y68288D01*
X343588Y68205D01*
X343520Y68129D01*
X343456Y68026D01*
X343385Y67928D01*
X343339Y67836D01*
X343285Y67748D01*
X343241Y67636D01*
X343188Y67527D01*
X343160Y67428D01*
X343123Y67332D01*
X343100Y67214D01*
X343067Y67097D01*
X343057Y66995D01*
X343037Y66894D01*
X343035Y66773D01*
X343023Y66653D01*
X343032Y66550D01*
X343030Y66447D01*
X343050Y66328D01*
X343060Y66208D01*
X343086Y66108D01*
X343103Y66006D01*
X343144Y65893D01*
X343175Y65776D01*
X343219Y65683D01*
X343253Y65586D01*
X343314Y65481D01*
X343365Y65372D01*
X343461Y65225D01*
X343476Y65199D01*
X343485Y65188D01*
X343500Y65165D01*
X344110Y64325D01*
X344836Y62900D01*
X345279Y61539D01*
X327840Y61539D01*
X327812Y61537D01*
X327760Y61539D01*
X310321Y61539D01*
X310764Y62900D01*
X311490Y64325D01*
X312100Y65165D01*
X312162Y65268D01*
X312232Y65367D01*
X312276Y65460D01*
X312329Y65548D01*
X312371Y65661D01*
X312423Y65770D01*
X312450Y65870D01*
X312486Y65966D01*
X312508Y66085D01*
X312539Y66202D01*
X312548Y66304D01*
X312566Y66405D01*
X312567Y66526D01*
X312577Y66647D01*
X312567Y66749D01*
X312567Y66852D01*
X312546Y66971D01*
X312535Y67091D01*
X312507Y67191D01*
X312489Y67292D01*
X312447Y67405D01*
X312414Y67521D01*
X312369Y67614D01*
X312333Y67711D01*
X312271Y67815D01*
X312218Y67923D01*
X312158Y68006D01*
X312105Y68095D01*
X312026Y68186D01*
X311955Y68284D01*
X311880Y68355D01*
X311813Y68432D01*
X311718Y68508D01*
X311631Y68592D01*
X311545Y68648D01*
X311465Y68713D01*
X311359Y68770D01*
X311258Y68837D01*
X311099Y68912D01*
X311073Y68926D01*
X311059Y68931D01*
X311034Y68943D01*
X310108Y69326D01*
X305106Y74328D01*
X302399Y80863D01*
X302399Y87937D01*
X305106Y94472D01*
X305967Y95333D01*
X305999Y95371D01*
X306036Y95405D01*
X306142Y95542D01*
X306253Y95676D01*
X306278Y95719D01*
X306309Y95759D01*
X306388Y95913D01*
X306474Y96064D01*
X306491Y96111D01*
X306514Y96156D01*
X306565Y96322D01*
X306622Y96485D01*
X306630Y96535D01*
X306645Y96583D01*
X306665Y96755D01*
X306693Y96926D01*
X306692Y96976D01*
X306698Y97026D01*
X306688Y97200D01*
X306684Y97373D01*
X306674Y97422D01*
X306671Y97472D01*
X306630Y97641D01*
X306596Y97811D01*
X306577Y97857D01*
X306565Y97906D01*
X306495Y98065D01*
X306431Y98226D01*
X306404Y98269D01*
X306384Y98314D01*
X306286Y98458D01*
X306195Y98605D01*
X306161Y98642D01*
X306133Y98684D01*
X305967Y98867D01*
X305106Y99728D01*
X302399Y106263D01*
X302399Y113337D01*
X305106Y119872D01*
X305967Y120733D01*
X305999Y120771D01*
X306036Y120805D01*
X306142Y120942D01*
X306253Y121076D01*
X306278Y121119D01*
X306309Y121159D01*
X306388Y121313D01*
X306474Y121464D01*
X306491Y121511D01*
X306514Y121556D01*
X306565Y121722D01*
X306622Y121885D01*
X306630Y121935D01*
X306645Y121983D01*
X306665Y122155D01*
X306693Y122326D01*
X306692Y122376D01*
X306698Y122426D01*
X306688Y122600D01*
X306684Y122773D01*
X306674Y122822D01*
X306671Y122872D01*
X306630Y123041D01*
X306596Y123211D01*
X306577Y123257D01*
X306565Y123306D01*
X306495Y123465D01*
X306431Y123626D01*
X306404Y123669D01*
X306384Y123714D01*
X306286Y123858D01*
X306195Y124005D01*
X306161Y124042D01*
X306133Y124084D01*
X305967Y124267D01*
X305106Y125128D01*
X302399Y131663D01*
X302399Y138737D01*
X305106Y145272D01*
X305967Y146133D01*
X305999Y146171D01*
X306036Y146205D01*
X306142Y146342D01*
X306253Y146476D01*
X306278Y146519D01*
X306309Y146559D01*
X306388Y146713D01*
X306474Y146864D01*
X306491Y146911D01*
X306514Y146956D01*
X306565Y147122D01*
X306622Y147285D01*
X306630Y147335D01*
X306645Y147383D01*
X306665Y147555D01*
X306693Y147726D01*
X306692Y147776D01*
X306698Y147826D01*
X306688Y148000D01*
X306684Y148173D01*
X306674Y148222D01*
X306671Y148272D01*
X306630Y148441D01*
X306596Y148611D01*
X306577Y148657D01*
X306565Y148706D01*
X306495Y148865D01*
X306431Y149026D01*
X306404Y149069D01*
X306384Y149114D01*
X306286Y149258D01*
X306195Y149405D01*
X306161Y149442D01*
X306133Y149484D01*
X305967Y149667D01*
X305106Y150528D01*
X302399Y157063D01*
X302399Y164137D01*
X305106Y170672D01*
X305967Y171533D01*
X305999Y171571D01*
X306036Y171605D01*
X306142Y171742D01*
X306253Y171876D01*
X306278Y171919D01*
X306309Y171959D01*
X306388Y172113D01*
X306474Y172264D01*
X306491Y172311D01*
X306514Y172356D01*
X306565Y172522D01*
X306622Y172685D01*
X306630Y172735D01*
X306645Y172783D01*
X306665Y172955D01*
X306693Y173126D01*
X306692Y173176D01*
X306698Y173226D01*
X306688Y173400D01*
X306684Y173573D01*
X306674Y173622D01*
X306671Y173672D01*
X306630Y173841D01*
X306596Y174011D01*
X306577Y174057D01*
X306565Y174106D01*
X306495Y174265D01*
X306431Y174426D01*
X306404Y174469D01*
X306384Y174514D01*
X306286Y174658D01*
X306195Y174805D01*
X306161Y174842D01*
X306133Y174884D01*
X305967Y175067D01*
X305106Y175928D01*
X302399Y182463D01*
X302399Y189537D01*
X305106Y196072D01*
X305967Y196933D01*
X305999Y196971D01*
X306036Y197005D01*
X306142Y197142D01*
X306253Y197276D01*
X306278Y197319D01*
X306309Y197359D01*
X306388Y197513D01*
X306474Y197664D01*
X306491Y197711D01*
X306514Y197756D01*
X306565Y197922D01*
X306622Y198085D01*
X306630Y198135D01*
X306645Y198183D01*
X306665Y198355D01*
X306693Y198526D01*
X306692Y198576D01*
X306698Y198626D01*
X306688Y198800D01*
X306684Y198973D01*
X306674Y199022D01*
X306671Y199072D01*
X306630Y199241D01*
X306596Y199411D01*
X306577Y199457D01*
X306565Y199506D01*
X306495Y199665D01*
X306431Y199826D01*
X306404Y199869D01*
X306384Y199914D01*
X306286Y200058D01*
X306195Y200205D01*
X306161Y200242D01*
X306133Y200284D01*
X305967Y200467D01*
X305106Y201328D01*
X302399Y207863D01*
X302399Y214937D01*
X305106Y221472D01*
X305967Y222333D01*
X305999Y222371D01*
X306036Y222405D01*
X306142Y222542D01*
X306253Y222676D01*
X306278Y222719D01*
X306309Y222759D01*
X306388Y222913D01*
X306474Y223064D01*
X306491Y223111D01*
X306514Y223156D01*
X306565Y223322D01*
X306622Y223485D01*
X306630Y223535D01*
X306645Y223583D01*
X306665Y223755D01*
X306693Y223926D01*
X306692Y223976D01*
X306698Y224026D01*
X306688Y224200D01*
X306684Y224373D01*
X306674Y224422D01*
X306671Y224472D01*
X306630Y224641D01*
X306596Y224811D01*
X306577Y224857D01*
X306565Y224906D01*
X306495Y225065D01*
X306431Y225226D01*
X306404Y225269D01*
X306384Y225314D01*
X306286Y225458D01*
X306195Y225605D01*
X306161Y225642D01*
X306133Y225684D01*
X305967Y225867D01*
X305106Y226728D01*
X302399Y233263D01*
X302399Y240337D01*
X305106Y246872D01*
X305967Y247733D01*
X305999Y247771D01*
X306036Y247805D01*
X306142Y247942D01*
X306253Y248076D01*
X306278Y248119D01*
X306309Y248159D01*
X306388Y248313D01*
X306474Y248464D01*
X306491Y248511D01*
X306514Y248556D01*
X306565Y248722D01*
X306622Y248885D01*
X306630Y248935D01*
X306645Y248983D01*
X306665Y249155D01*
X306693Y249326D01*
X306692Y249376D01*
X306698Y249426D01*
X306688Y249600D01*
X306684Y249773D01*
X306674Y249822D01*
X306671Y249872D01*
X306630Y250041D01*
X306596Y250211D01*
X306577Y250257D01*
X306565Y250306D01*
X306495Y250465D01*
X306431Y250626D01*
X306404Y250669D01*
X306384Y250714D01*
X306286Y250858D01*
X306195Y251005D01*
X306161Y251042D01*
X306133Y251084D01*
X305967Y251267D01*
X305106Y252128D01*
X302399Y258663D01*
X302399Y263661D01*
X302387Y263797D01*
X302384Y263934D01*
X302367Y264019D01*
X302359Y264105D01*
X302323Y264238D01*
X302296Y264371D01*
X302264Y264452D01*
X302241Y264536D01*
X302182Y264660D01*
X302131Y264787D01*
X302085Y264860D01*
X302048Y264939D01*
X301967Y265050D01*
X301895Y265166D01*
X301837Y265230D01*
X301786Y265301D01*
X301687Y265396D01*
X301595Y265497D01*
X301526Y265550D01*
X301464Y265610D01*
X301350Y265686D01*
X301241Y265769D01*
X301164Y265809D01*
X301092Y265858D01*
X300966Y265912D01*
X300844Y265975D01*
X300761Y266000D01*
X300681Y266035D01*
X300548Y266065D01*
X300417Y266106D01*
X300331Y266116D01*
X300246Y266136D01*
X300110Y266142D01*
X299974Y266159D01*
X299887Y266154D01*
X299800Y266158D01*
X299665Y266140D01*
X299528Y266132D01*
X299443Y266111D01*
X299357Y266100D01*
X299227Y266059D01*
X299094Y266026D01*
X299015Y265991D01*
X298932Y265965D01*
X298811Y265901D01*
X298686Y265845D01*
X298614Y265796D01*
X298537Y265755D01*
X298429Y265671D01*
X298316Y265594D01*
X298215Y265502D01*
X298186Y265479D01*
X298170Y265462D01*
X298133Y265428D01*
X252193Y219488D01*
X252073Y219344D01*
X251949Y219205D01*
X251930Y219173D01*
X251906Y219145D01*
X251814Y218983D01*
X251717Y218823D01*
X251704Y218789D01*
X251686Y218757D01*
X251624Y218581D01*
X251557Y218406D01*
X251550Y218370D01*
X251537Y218335D01*
X251508Y218151D01*
X251473Y217968D01*
X251470Y217917D01*
X251467Y217894D01*
X251468Y217857D01*
X251461Y217721D01*
X251461Y87482D01*
X249533Y82828D01*
X245972Y79267D01*
X241318Y77339D01*
X213832Y77339D01*
X213825Y77339D01*
X213819Y77339D01*
X213605Y77319D01*
X213387Y77299D01*
X213381Y77298D01*
X213374Y77297D01*
X213169Y77239D01*
X212956Y77181D01*
X212950Y77178D01*
X212944Y77176D01*
X212752Y77083D01*
X212554Y76988D01*
X212548Y76984D01*
X212542Y76981D01*
X212370Y76855D01*
X212192Y76726D01*
X212187Y76721D01*
X212182Y76717D01*
X212033Y76561D01*
X211882Y76404D01*
X211879Y76398D01*
X211874Y76393D01*
X211756Y76213D01*
X211635Y76032D01*
X211632Y76026D01*
X211629Y76020D01*
X211523Y75796D01*
X209379Y70621D01*
X203877Y65119D01*
X196689Y62141D01*
X170111Y62141D01*
X162923Y65119D01*
X157421Y70621D01*
X154443Y77809D01*
X154443Y85591D01*
X157444Y92835D01*
X157450Y92842D01*
X157561Y92975D01*
X157586Y93019D01*
X157616Y93059D01*
X157696Y93213D01*
X157782Y93364D01*
X157798Y93411D01*
X157821Y93456D01*
X157872Y93621D01*
X157930Y93785D01*
X157938Y93835D01*
X157952Y93883D01*
X157973Y94055D01*
X158000Y94226D01*
X157999Y94276D01*
X158005Y94326D01*
X157995Y94499D01*
X157992Y94673D01*
X157982Y94722D01*
X157979Y94772D01*
X157938Y94940D01*
X157903Y95111D01*
X157885Y95157D01*
X157873Y95206D01*
X157803Y95364D01*
X157739Y95526D01*
X157712Y95568D01*
X157692Y95614D01*
X157594Y95758D01*
X157502Y95905D01*
X157469Y95942D01*
X157441Y95984D01*
X157433Y95993D01*
X154443Y103209D01*
X154443Y110991D01*
X157456Y118265D01*
X157487Y118302D01*
X157512Y118346D01*
X157543Y118385D01*
X157623Y118540D01*
X157708Y118690D01*
X157725Y118738D01*
X157748Y118782D01*
X157799Y118948D01*
X157856Y119112D01*
X157864Y119161D01*
X157879Y119209D01*
X157900Y119381D01*
X157927Y119553D01*
X157926Y119603D01*
X157932Y119653D01*
X157922Y119826D01*
X157918Y119999D01*
X157908Y120048D01*
X157905Y120099D01*
X157864Y120267D01*
X157830Y120437D01*
X157811Y120484D01*
X157800Y120533D01*
X157729Y120691D01*
X157665Y120852D01*
X157639Y120895D01*
X157618Y120941D01*
X157521Y121085D01*
X157429Y121232D01*
X157396Y121269D01*
X157367Y121310D01*
X157201Y121494D01*
X131667Y147028D01*
X129739Y151682D01*
X129739Y281118D01*
X131667Y285772D01*
X187607Y341712D01*
X187727Y341855D01*
X187851Y341995D01*
X187870Y342027D01*
X187894Y342055D01*
X187986Y342217D01*
X188083Y342377D01*
X188096Y342411D01*
X188114Y342443D01*
X188176Y342619D01*
X188243Y342794D01*
X188250Y342830D01*
X188263Y342865D01*
X188292Y343049D01*
X188327Y343232D01*
X188330Y343283D01*
X188333Y343306D01*
X188332Y343343D01*
X188339Y343479D01*
X188339Y539740D01*
X188335Y539790D01*
X188337Y539840D01*
X188315Y540012D01*
X188299Y540185D01*
X188286Y540233D01*
X188280Y540283D01*
X188227Y540448D01*
X188181Y540616D01*
X188159Y540661D01*
X188144Y540708D01*
X188063Y540862D01*
X187988Y541018D01*
X187958Y541059D01*
X187935Y541103D01*
X187828Y541240D01*
X187726Y541380D01*
X187690Y541415D01*
X187659Y541454D01*
X187529Y541570D01*
X187404Y541690D01*
X187362Y541717D01*
X187324Y541751D01*
X187176Y541841D01*
X187032Y541937D01*
X186986Y541957D01*
X186943Y541983D01*
X186781Y542045D01*
X186621Y542114D01*
X186573Y542125D01*
X186526Y542143D01*
X186355Y542176D01*
X186186Y542215D01*
X186136Y542218D01*
X186087Y542227D01*
X185840Y542239D01*
X182640Y542239D01*
X182454Y542223D01*
X182268Y542211D01*
X182232Y542203D01*
X182195Y542199D01*
X182015Y542150D01*
X181834Y542106D01*
X181800Y542091D01*
X181765Y542081D01*
X181596Y542000D01*
X181426Y541924D01*
X181395Y541904D01*
X181362Y541888D01*
X181211Y541778D01*
X181056Y541673D01*
X181019Y541639D01*
X181000Y541626D01*
X180975Y541599D01*
X180873Y541507D01*
X179192Y539826D01*
X178266Y539443D01*
X178159Y539387D01*
X178048Y539340D01*
X177962Y539283D01*
X177870Y539236D01*
X177775Y539161D01*
X177674Y539095D01*
X177599Y539025D01*
X177518Y538961D01*
X177437Y538871D01*
X177349Y538788D01*
X177288Y538705D01*
X177220Y538629D01*
X177156Y538526D01*
X177085Y538428D01*
X177039Y538336D01*
X176985Y538248D01*
X176941Y538136D01*
X176888Y538027D01*
X176860Y537928D01*
X176823Y537832D01*
X176800Y537714D01*
X176767Y537597D01*
X176757Y537495D01*
X176737Y537394D01*
X176735Y537273D01*
X176723Y537153D01*
X176732Y537050D01*
X176730Y536947D01*
X176750Y536828D01*
X176760Y536708D01*
X176786Y536608D01*
X176803Y536506D01*
X176844Y536393D01*
X176875Y536276D01*
X176919Y536183D01*
X176953Y536086D01*
X177014Y535981D01*
X177065Y535872D01*
X177161Y535725D01*
X177176Y535699D01*
X177185Y535688D01*
X177200Y535665D01*
X177810Y534825D01*
X178536Y533400D01*
X178979Y532039D01*
X161540Y532039D01*
X161512Y532037D01*
X161460Y532039D01*
X144021Y532039D01*
X144464Y533400D01*
X145190Y534825D01*
X145800Y535665D01*
X145862Y535768D01*
X145932Y535867D01*
X145976Y535960D01*
X146029Y536048D01*
X146071Y536161D01*
X146123Y536270D01*
X146150Y536370D01*
X146186Y536466D01*
X146208Y536585D01*
X146239Y536702D01*
X146248Y536804D01*
X146266Y536905D01*
X146267Y537026D01*
X146277Y537147D01*
X146267Y537249D01*
X146267Y537352D01*
X146246Y537471D01*
X146235Y537591D01*
X146207Y537691D01*
X146189Y537792D01*
X146147Y537905D01*
X146114Y538021D01*
X146069Y538114D01*
X146033Y538211D01*
X145971Y538315D01*
X145918Y538423D01*
X145858Y538506D01*
X145805Y538595D01*
X145726Y538686D01*
X145655Y538784D01*
X145580Y538855D01*
X145513Y538932D01*
X145418Y539008D01*
X145331Y539092D01*
X145245Y539148D01*
X145165Y539213D01*
X145059Y539270D01*
X144958Y539337D01*
X144799Y539412D01*
X144773Y539426D01*
X144759Y539431D01*
X144734Y539443D01*
X143808Y539826D01*
X138806Y544828D01*
X136099Y551363D01*
X136099Y558437D01*
X138480Y564184D01*
X138508Y564273D01*
X138545Y564359D01*
X138574Y564485D01*
X138613Y564610D01*
X138625Y564703D01*
X138646Y564794D01*
X138652Y564924D01*
X138668Y565053D01*
X138663Y565147D01*
X138668Y565240D01*
X138651Y565369D01*
X138644Y565499D01*
X138622Y565590D01*
X138610Y565683D01*
X138571Y565807D01*
X138541Y565934D01*
X138503Y566020D01*
X138475Y566108D01*
X138414Y566223D01*
X138361Y566343D01*
X138309Y566421D01*
X138265Y566503D01*
X138185Y566606D01*
X138112Y566714D01*
X138047Y566781D01*
X137989Y566854D01*
X137892Y566941D01*
X137801Y567034D01*
X137725Y567089D01*
X137655Y567151D01*
X137544Y567218D01*
X137438Y567294D01*
X137353Y567334D01*
X137274Y567383D01*
X137152Y567430D01*
X137034Y567485D01*
X136944Y567510D01*
X136857Y567543D01*
X136728Y567568D01*
X136603Y567602D01*
X136510Y567609D01*
X136418Y567627D01*
X136171Y567639D01*
X71210Y567639D01*
X71160Y567635D01*
X71110Y567637D01*
X70938Y567615D01*
X70765Y567599D01*
X70717Y567586D01*
X70667Y567580D01*
X70502Y567527D01*
X70334Y567481D01*
X70289Y567459D01*
X70242Y567444D01*
X70088Y567363D01*
X69932Y567288D01*
X69891Y567258D01*
X69847Y567235D01*
X69710Y567128D01*
X69570Y567026D01*
X69535Y566990D01*
X69496Y566959D01*
X69380Y566829D01*
X69260Y566704D01*
X69233Y566662D01*
X69199Y566624D01*
X69109Y566476D01*
X69013Y566332D01*
X68993Y566286D01*
X68967Y566243D01*
X68905Y566081D01*
X68836Y565921D01*
X68825Y565873D01*
X68807Y565826D01*
X68774Y565655D01*
X68735Y565486D01*
X68732Y565436D01*
X68723Y565387D01*
X68711Y565140D01*
X68711Y533986D01*
X66783Y529333D01*
X33393Y495943D01*
X33273Y495799D01*
X33149Y495660D01*
X33130Y495628D01*
X33106Y495600D01*
X33014Y495438D01*
X32917Y495278D01*
X32904Y495244D01*
X32886Y495211D01*
X32824Y495035D01*
X32757Y494861D01*
X32750Y494825D01*
X32737Y494790D01*
X32708Y494606D01*
X32673Y494422D01*
X32670Y494372D01*
X32667Y494349D01*
X32668Y494312D01*
X32661Y494175D01*
X32661Y407706D01*
X32675Y407542D01*
X32682Y407378D01*
X32695Y407320D01*
X32701Y407261D01*
X32744Y407102D01*
X32780Y406943D01*
X32803Y406888D01*
X32819Y406830D01*
X32890Y406682D01*
X32954Y406531D01*
X32987Y406481D01*
X33012Y406427D01*
X33109Y406294D01*
X33198Y406157D01*
X33239Y406114D01*
X33274Y406066D01*
X33393Y405952D01*
X33505Y405833D01*
X33553Y405797D01*
X33596Y405756D01*
X33733Y405665D01*
X33865Y405568D01*
X33919Y405542D01*
X33968Y405509D01*
X34119Y405444D01*
X34267Y405372D01*
X34324Y405355D01*
X34379Y405332D01*
X34538Y405295D01*
X34696Y405250D01*
X34756Y405244D01*
X34814Y405231D01*
X34977Y405223D01*
X35141Y405207D01*
X35200Y405211D01*
X35260Y405209D01*
X35422Y405230D01*
X35586Y405243D01*
X35644Y405259D01*
X35703Y405266D01*
X35859Y405316D01*
X36018Y405358D01*
X36072Y405384D01*
X36128Y405402D01*
X36273Y405479D01*
X36422Y405549D01*
X36494Y405595D01*
X36523Y405611D01*
X36551Y405633D01*
X36629Y405684D01*
X37685Y406451D01*
X39359Y407304D01*
X41147Y407885D01*
X43002Y408179D01*
X50547Y408179D01*
X50547Y396534D01*
X50551Y396484D01*
X50549Y396434D01*
X50570Y396272D01*
X50568Y396242D01*
X50559Y396193D01*
X50547Y395946D01*
X50547Y371134D01*
X50551Y371084D01*
X50549Y371034D01*
X50571Y370863D01*
X50587Y370689D01*
X50600Y370641D01*
X50606Y370591D01*
X50659Y370426D01*
X50705Y370259D01*
X50727Y370213D01*
X50742Y370166D01*
X50823Y370013D01*
X50898Y369856D01*
X50928Y369815D01*
X50951Y369771D01*
X51058Y369635D01*
X51160Y369494D01*
X51196Y369459D01*
X51227Y369420D01*
X51357Y369305D01*
X51482Y369184D01*
X51524Y369157D01*
X51561Y369124D01*
X51608Y369095D01*
X51647Y369046D01*
X51748Y368906D01*
X51785Y368871D01*
X51816Y368832D01*
X51946Y368716D01*
X52071Y368596D01*
X52112Y368569D01*
X52150Y368535D01*
X52298Y368445D01*
X52443Y368349D01*
X52489Y368329D01*
X52531Y368303D01*
X52693Y368241D01*
X52853Y368172D01*
X52901Y368161D01*
X52948Y368143D01*
X53119Y368110D01*
X53288Y368071D01*
X53338Y368068D01*
X53387Y368059D01*
X53634Y368047D01*
X74383Y368047D01*
X74383Y368045D01*
X73802Y366257D01*
X73202Y365079D01*
X73163Y364982D01*
X73115Y364889D01*
X73080Y364775D01*
X73035Y364664D01*
X73014Y364562D01*
X72983Y364462D01*
X72969Y364343D01*
X72945Y364227D01*
X72943Y364122D01*
X72930Y364018D01*
X72937Y363899D01*
X72935Y363780D01*
X72951Y363677D01*
X72957Y363572D01*
X72985Y363457D01*
X73004Y363339D01*
X73038Y363240D01*
X73063Y363138D01*
X73111Y363029D01*
X73150Y362917D01*
X73202Y362825D01*
X73244Y362730D01*
X73311Y362631D01*
X73369Y362528D01*
X73436Y362447D01*
X73495Y362360D01*
X73648Y362192D01*
X73655Y362184D01*
X73657Y362182D01*
X73661Y362177D01*
X79319Y356519D01*
X82297Y349331D01*
X82297Y341549D01*
X79296Y334305D01*
X79290Y334298D01*
X79179Y334165D01*
X79154Y334121D01*
X79124Y334081D01*
X79044Y333927D01*
X78958Y333776D01*
X78942Y333729D01*
X78919Y333684D01*
X78868Y333519D01*
X78810Y333355D01*
X78802Y333305D01*
X78788Y333257D01*
X78767Y333085D01*
X78740Y332914D01*
X78741Y332864D01*
X78735Y332814D01*
X78745Y332641D01*
X78748Y332467D01*
X78758Y332418D01*
X78761Y332368D01*
X78802Y332200D01*
X78837Y332029D01*
X78855Y331983D01*
X78867Y331934D01*
X78937Y331776D01*
X79001Y331614D01*
X79028Y331572D01*
X79048Y331526D01*
X79146Y331382D01*
X79238Y331235D01*
X79271Y331198D01*
X79299Y331156D01*
X79307Y331147D01*
X82297Y323931D01*
X82297Y316149D01*
X79296Y308905D01*
X79290Y308898D01*
X79179Y308765D01*
X79154Y308721D01*
X79124Y308681D01*
X79044Y308527D01*
X78958Y308376D01*
X78942Y308329D01*
X78919Y308284D01*
X78868Y308119D01*
X78810Y307955D01*
X78802Y307905D01*
X78788Y307857D01*
X78767Y307685D01*
X78740Y307514D01*
X78741Y307464D01*
X78735Y307414D01*
X78745Y307241D01*
X78748Y307067D01*
X78758Y307018D01*
X78761Y306968D01*
X78802Y306800D01*
X78837Y306629D01*
X78855Y306583D01*
X78867Y306534D01*
X78937Y306376D01*
X79001Y306214D01*
X79028Y306172D01*
X79048Y306126D01*
X79146Y305982D01*
X79238Y305835D01*
X79271Y305798D01*
X79299Y305756D01*
X79307Y305747D01*
X80354Y303220D01*
X80421Y303093D01*
X80479Y302962D01*
X80524Y302895D01*
X80562Y302824D01*
X80649Y302711D01*
X80730Y302592D01*
X80813Y302501D01*
X80836Y302471D01*
X80856Y302453D01*
X80896Y302409D01*
X81845Y301460D01*
X115333Y267972D01*
X117261Y263318D01*
X117261Y98482D01*
X115333Y93828D01*
X111421Y89916D01*
X111420Y89915D01*
X96385Y74880D01*
X92472Y70967D01*
X87818Y69039D01*
X78833Y69039D01*
X78647Y69023D01*
X78461Y69011D01*
X78425Y69003D01*
X78388Y68999D01*
X78207Y68950D01*
X78027Y68906D01*
X77993Y68891D01*
X77957Y68881D01*
X77789Y68800D01*
X77618Y68724D01*
X77588Y68704D01*
X77554Y68688D01*
X77403Y68578D01*
X77249Y68473D01*
X77211Y68439D01*
X77193Y68426D01*
X77167Y68399D01*
X77065Y68307D01*
X73877Y65119D01*
X66689Y62141D01*
X40111Y62141D01*
X32923Y65119D01*
X27421Y70621D01*
X24443Y77809D01*
X24443Y85591D01*
X27444Y92835D01*
X27450Y92842D01*
X27561Y92975D01*
X27586Y93019D01*
X27616Y93059D01*
X27696Y93213D01*
X27782Y93364D01*
X27798Y93411D01*
X27821Y93456D01*
X27872Y93621D01*
X27930Y93785D01*
X27938Y93835D01*
X27952Y93883D01*
X27973Y94055D01*
X28000Y94226D01*
X27999Y94276D01*
X28005Y94326D01*
X27995Y94499D01*
X27992Y94673D01*
X27982Y94722D01*
X27979Y94772D01*
X27938Y94940D01*
X27903Y95111D01*
X27885Y95157D01*
X27873Y95206D01*
X27803Y95364D01*
X27739Y95526D01*
X27712Y95568D01*
X27692Y95614D01*
X27594Y95758D01*
X27502Y95905D01*
X27469Y95942D01*
X27441Y95984D01*
X27433Y95993D01*
X24443Y103209D01*
X24443Y110990D01*
X27426Y118192D01*
X27441Y118240D01*
X27463Y118286D01*
X27508Y118453D01*
X27560Y118619D01*
X27566Y118668D01*
X27579Y118717D01*
X27594Y118890D01*
X27615Y119062D01*
X27612Y119112D01*
X27617Y119162D01*
X27600Y119335D01*
X27591Y119508D01*
X27579Y119557D01*
X27574Y119607D01*
X27528Y119774D01*
X27487Y119943D01*
X27467Y119988D01*
X27454Y120037D01*
X27378Y120193D01*
X27308Y120352D01*
X27280Y120393D01*
X27258Y120438D01*
X27156Y120578D01*
X27059Y120723D01*
X27024Y120759D01*
X26995Y120799D01*
X26869Y120918D01*
X26748Y121043D01*
X26707Y121072D01*
X26671Y121107D01*
X26526Y121202D01*
X26385Y121303D01*
X26339Y121325D01*
X26298Y121352D01*
X26074Y121458D01*
X25328Y121767D01*
X14427Y132668D01*
X14322Y132755D01*
X14224Y132850D01*
X14151Y132898D01*
X14084Y132954D01*
X13966Y133022D01*
X13852Y133098D01*
X13772Y133132D01*
X13696Y133175D01*
X13567Y133220D01*
X13441Y133275D01*
X13357Y133294D01*
X13275Y133323D01*
X13139Y133345D01*
X13006Y133376D01*
X12920Y133380D01*
X12834Y133394D01*
X12697Y133391D01*
X12560Y133398D01*
X12474Y133387D01*
X12387Y133385D01*
X12253Y133358D01*
X12117Y133340D01*
X12034Y133314D01*
X11949Y133297D01*
X11822Y133246D01*
X11692Y133205D01*
X11615Y133164D01*
X11534Y133132D01*
X11418Y133059D01*
X11297Y132995D01*
X11229Y132942D01*
X11155Y132896D01*
X11053Y132804D01*
X10946Y132719D01*
X10888Y132654D01*
X10824Y132596D01*
X10740Y132487D01*
X10649Y132385D01*
X10604Y132311D01*
X10551Y132242D01*
X10488Y132120D01*
X10417Y132003D01*
X10386Y131922D01*
X10346Y131845D01*
X10306Y131714D01*
X10257Y131587D01*
X10240Y131501D01*
X10215Y131418D01*
X10199Y131282D01*
X10173Y131148D01*
X10166Y131011D01*
X10162Y130974D01*
X10163Y130951D01*
X10161Y130901D01*
X10161Y38826D01*
X10169Y38733D01*
X10168Y38639D01*
X10189Y38511D01*
X10201Y38381D01*
X10225Y38291D01*
X10241Y38199D01*
X10285Y38076D01*
X10319Y37950D01*
X10360Y37866D01*
X10391Y37778D01*
X10456Y37665D01*
X10512Y37548D01*
X10567Y37472D01*
X10614Y37391D01*
X10698Y37291D01*
X10774Y37186D01*
X10842Y37121D01*
X10902Y37050D01*
X11003Y36966D01*
X11096Y36876D01*
X11174Y36825D01*
X11246Y36765D01*
X11360Y36701D01*
X11468Y36629D01*
X11554Y36592D01*
X11636Y36546D01*
X11759Y36504D01*
X11879Y36452D01*
X11969Y36431D01*
X12058Y36400D01*
X12187Y36380D01*
X12314Y36351D01*
X12407Y36346D01*
X12499Y36332D01*
X12630Y36335D01*
X12760Y36329D01*
X12852Y36341D01*
X12946Y36343D01*
X13074Y36370D01*
X13203Y36386D01*
X13292Y36415D01*
X13383Y36434D01*
X13616Y36517D01*
X20120Y39211D01*
X28140Y39211D01*
X35550Y36141D01*
X41221Y30470D01*
X44291Y23060D01*
X44291Y15040D01*
X43701Y13616D01*
X43673Y13527D01*
X43636Y13441D01*
X43607Y13315D01*
X43568Y13190D01*
X43556Y13097D01*
X43535Y13006D01*
X43529Y12876D01*
X43512Y12747D01*
X43518Y12653D01*
X43513Y12560D01*
X43530Y12431D01*
X43537Y12301D01*
X43558Y12210D01*
X43571Y12117D01*
X43610Y11993D01*
X43640Y11866D01*
X43678Y11781D01*
X43706Y11692D01*
X43767Y11576D01*
X43819Y11457D01*
X43872Y11380D01*
X43915Y11297D01*
X43996Y11194D01*
X44069Y11086D01*
X44134Y11019D01*
X44191Y10946D01*
X44289Y10859D01*
X44380Y10766D01*
X44456Y10711D01*
X44526Y10649D01*
X44637Y10582D01*
X44743Y10506D01*
X44828Y10466D01*
X44907Y10417D01*
X45029Y10370D01*
X45147Y10315D01*
X45237Y10290D01*
X45324Y10257D01*
X45452Y10232D01*
X45578Y10198D01*
X45671Y10191D01*
X45763Y10173D01*
X46010Y10161D01*
X814524Y10161D01*
X814617Y10169D01*
G37*
G36*
X85036Y100201D02*
X85036Y100201D01*
X85216Y100212D01*
X85258Y100222D01*
X85300Y100226D01*
X85475Y100275D01*
X85650Y100318D01*
X85689Y100335D01*
X85730Y100347D01*
X85893Y100425D01*
X86058Y100499D01*
X86094Y100523D01*
X86132Y100542D01*
X86278Y100648D01*
X86428Y100750D01*
X86472Y100790D01*
X86493Y100805D01*
X86519Y100832D01*
X86611Y100916D01*
X91207Y105512D01*
X91327Y105655D01*
X91451Y105795D01*
X91470Y105827D01*
X91494Y105855D01*
X91586Y106017D01*
X91683Y106177D01*
X91696Y106211D01*
X91714Y106243D01*
X91776Y106419D01*
X91843Y106593D01*
X91850Y106630D01*
X91863Y106665D01*
X91892Y106849D01*
X91927Y107032D01*
X91930Y107083D01*
X91933Y107106D01*
X91932Y107143D01*
X91939Y107279D01*
X91939Y254521D01*
X91923Y254707D01*
X91911Y254893D01*
X91903Y254928D01*
X91899Y254965D01*
X91850Y255146D01*
X91806Y255327D01*
X91791Y255360D01*
X91781Y255396D01*
X91700Y255565D01*
X91624Y255735D01*
X91604Y255765D01*
X91588Y255799D01*
X91478Y255950D01*
X91373Y256104D01*
X91339Y256142D01*
X91326Y256161D01*
X91299Y256186D01*
X91207Y256288D01*
X84897Y262598D01*
X84826Y262658D01*
X84760Y262725D01*
X84654Y262801D01*
X84554Y262884D01*
X84473Y262930D01*
X84397Y262985D01*
X84279Y263040D01*
X84166Y263105D01*
X84078Y263136D01*
X83993Y263176D01*
X83868Y263210D01*
X83745Y263253D01*
X83652Y263268D01*
X83562Y263292D01*
X83432Y263303D01*
X83304Y263324D01*
X83210Y263322D01*
X83117Y263330D01*
X82987Y263317D01*
X82857Y263315D01*
X82765Y263296D01*
X82672Y263287D01*
X82547Y263252D01*
X82419Y263226D01*
X82332Y263192D01*
X82242Y263167D01*
X82125Y263110D01*
X82004Y263062D01*
X81925Y263012D01*
X81841Y262971D01*
X81735Y262894D01*
X81625Y262826D01*
X81556Y262763D01*
X81480Y262708D01*
X81390Y262613D01*
X81294Y262526D01*
X81237Y262452D01*
X81172Y262384D01*
X81101Y262275D01*
X81021Y262172D01*
X80978Y262089D01*
X80927Y262011D01*
X80821Y261787D01*
X79319Y258161D01*
X73817Y252659D01*
X66629Y249681D01*
X40052Y249681D01*
X36116Y251311D01*
X36027Y251339D01*
X35941Y251376D01*
X35815Y251406D01*
X35690Y251445D01*
X35597Y251456D01*
X35506Y251477D01*
X35376Y251484D01*
X35247Y251500D01*
X35153Y251495D01*
X35060Y251500D01*
X34931Y251483D01*
X34801Y251476D01*
X34710Y251454D01*
X34617Y251442D01*
X34493Y251402D01*
X34366Y251372D01*
X34281Y251335D01*
X34192Y251306D01*
X34077Y251245D01*
X33957Y251193D01*
X33879Y251141D01*
X33797Y251097D01*
X33694Y251016D01*
X33586Y250944D01*
X33519Y250879D01*
X33446Y250821D01*
X33359Y250723D01*
X33266Y250633D01*
X33211Y250557D01*
X33149Y250487D01*
X33082Y250375D01*
X33006Y250269D01*
X32966Y250185D01*
X32917Y250105D01*
X32870Y249983D01*
X32815Y249866D01*
X32790Y249776D01*
X32757Y249688D01*
X32732Y249560D01*
X32698Y249434D01*
X32691Y249341D01*
X32673Y249249D01*
X32661Y249002D01*
X32661Y228913D01*
X32669Y228820D01*
X32668Y228726D01*
X32689Y228598D01*
X32701Y228468D01*
X32725Y228378D01*
X32741Y228286D01*
X32785Y228163D01*
X32819Y228037D01*
X32860Y227953D01*
X32891Y227865D01*
X32956Y227752D01*
X33012Y227635D01*
X33067Y227559D01*
X33114Y227478D01*
X33198Y227378D01*
X33274Y227273D01*
X33342Y227208D01*
X33402Y227136D01*
X33503Y227053D01*
X33596Y226963D01*
X33674Y226912D01*
X33746Y226852D01*
X33860Y226788D01*
X33968Y226716D01*
X34054Y226679D01*
X34136Y226633D01*
X34259Y226590D01*
X34379Y226539D01*
X34469Y226518D01*
X34558Y226487D01*
X34687Y226467D01*
X34814Y226438D01*
X34907Y226433D01*
X34999Y226419D01*
X35130Y226422D01*
X35260Y226416D01*
X35352Y226428D01*
X35446Y226430D01*
X35574Y226456D01*
X35703Y226473D01*
X35792Y226502D01*
X35883Y226521D01*
X36116Y226604D01*
X40112Y228259D01*
X66689Y228259D01*
X73877Y225281D01*
X79379Y219779D01*
X82357Y212591D01*
X82357Y204809D01*
X79356Y197565D01*
X79350Y197558D01*
X79239Y197424D01*
X79214Y197381D01*
X79184Y197341D01*
X79104Y197187D01*
X79018Y197036D01*
X79002Y196989D01*
X78979Y196944D01*
X78928Y196778D01*
X78870Y196615D01*
X78862Y196565D01*
X78848Y196517D01*
X78827Y196345D01*
X78799Y196174D01*
X78800Y196123D01*
X78795Y196074D01*
X78805Y195900D01*
X78808Y195727D01*
X78818Y195678D01*
X78821Y195628D01*
X78862Y195459D01*
X78897Y195289D01*
X78915Y195242D01*
X78927Y195194D01*
X78997Y195035D01*
X79062Y194874D01*
X79088Y194831D01*
X79108Y194786D01*
X79206Y194642D01*
X79298Y194495D01*
X79331Y194458D01*
X79359Y194416D01*
X79368Y194407D01*
X82357Y187191D01*
X82357Y179409D01*
X79379Y172221D01*
X73721Y166563D01*
X73654Y166483D01*
X73580Y166409D01*
X73511Y166312D01*
X73435Y166220D01*
X73383Y166129D01*
X73323Y166044D01*
X73273Y165935D01*
X73214Y165832D01*
X73179Y165733D01*
X73135Y165638D01*
X73106Y165523D01*
X73066Y165410D01*
X73049Y165307D01*
X73023Y165206D01*
X73014Y165087D01*
X72995Y164969D01*
X72997Y164865D01*
X72990Y164760D01*
X73002Y164642D01*
X73004Y164523D01*
X73025Y164420D01*
X73036Y164316D01*
X73069Y164202D01*
X73093Y164085D01*
X73131Y163988D01*
X73160Y163887D01*
X73254Y163679D01*
X73257Y163670D01*
X73259Y163667D01*
X73262Y163661D01*
X73862Y162483D01*
X74443Y160695D01*
X74443Y160693D01*
X53694Y160693D01*
X53644Y160689D01*
X53594Y160691D01*
X53423Y160669D01*
X53249Y160653D01*
X53201Y160640D01*
X53151Y160634D01*
X52986Y160581D01*
X52819Y160535D01*
X52773Y160513D01*
X52726Y160498D01*
X52573Y160417D01*
X52416Y160342D01*
X52375Y160312D01*
X52331Y160289D01*
X52195Y160182D01*
X52054Y160080D01*
X52019Y160044D01*
X51980Y160013D01*
X51865Y159883D01*
X51744Y159758D01*
X51717Y159716D01*
X51684Y159678D01*
X51593Y159530D01*
X51497Y159386D01*
X51477Y159340D01*
X51451Y159297D01*
X51389Y159135D01*
X51320Y158975D01*
X51309Y158927D01*
X51291Y158880D01*
X51258Y158709D01*
X51219Y158540D01*
X51217Y158490D01*
X51207Y158441D01*
X51195Y158194D01*
X51195Y157606D01*
X51199Y157560D01*
X51197Y157517D01*
X51197Y157514D01*
X51197Y157506D01*
X51219Y157334D01*
X51235Y157161D01*
X51248Y157113D01*
X51255Y157063D01*
X51307Y156898D01*
X51353Y156730D01*
X51375Y156685D01*
X51390Y156638D01*
X51471Y156484D01*
X51547Y156328D01*
X51576Y156287D01*
X51599Y156243D01*
X51707Y156106D01*
X51808Y155966D01*
X51845Y155931D01*
X51876Y155892D01*
X52006Y155776D01*
X52131Y155656D01*
X52172Y155629D01*
X52210Y155595D01*
X52358Y155505D01*
X52503Y155409D01*
X52549Y155389D01*
X52591Y155363D01*
X52753Y155301D01*
X52913Y155232D01*
X52961Y155221D01*
X53008Y155203D01*
X53179Y155170D01*
X53348Y155131D01*
X53398Y155128D01*
X53447Y155119D01*
X53694Y155107D01*
X74443Y155107D01*
X74443Y155105D01*
X73862Y153317D01*
X73262Y152139D01*
X73223Y152042D01*
X73175Y151949D01*
X73140Y151835D01*
X73095Y151724D01*
X73074Y151622D01*
X73043Y151522D01*
X73029Y151403D01*
X73005Y151287D01*
X73003Y151182D01*
X72990Y151078D01*
X72997Y150959D01*
X72995Y150840D01*
X73011Y150737D01*
X73017Y150632D01*
X73045Y150517D01*
X73064Y150399D01*
X73098Y150300D01*
X73123Y150198D01*
X73171Y150089D01*
X73210Y149977D01*
X73262Y149885D01*
X73304Y149790D01*
X73371Y149691D01*
X73429Y149588D01*
X73496Y149507D01*
X73555Y149420D01*
X73708Y149252D01*
X73715Y149244D01*
X73717Y149242D01*
X73721Y149237D01*
X79379Y143579D01*
X82357Y136391D01*
X82357Y128609D01*
X79356Y121365D01*
X79350Y121358D01*
X79239Y121224D01*
X79214Y121181D01*
X79184Y121141D01*
X79104Y120987D01*
X79018Y120836D01*
X79002Y120789D01*
X78979Y120744D01*
X78928Y120578D01*
X78870Y120415D01*
X78862Y120365D01*
X78848Y120317D01*
X78827Y120145D01*
X78799Y119974D01*
X78800Y119923D01*
X78795Y119874D01*
X78805Y119700D01*
X78808Y119527D01*
X78818Y119478D01*
X78821Y119428D01*
X78862Y119259D01*
X78897Y119089D01*
X78915Y119042D01*
X78927Y118994D01*
X78997Y118835D01*
X79062Y118674D01*
X79088Y118631D01*
X79108Y118586D01*
X79206Y118442D01*
X79298Y118295D01*
X79331Y118258D01*
X79359Y118216D01*
X79368Y118207D01*
X82357Y110991D01*
X82357Y102894D01*
X82351Y102857D01*
X82352Y102814D01*
X82346Y102772D01*
X82356Y102591D01*
X82360Y102410D01*
X82368Y102368D01*
X82370Y102326D01*
X82412Y102149D01*
X82448Y101972D01*
X82464Y101933D01*
X82474Y101891D01*
X82546Y101725D01*
X82613Y101557D01*
X82635Y101521D01*
X82653Y101482D01*
X82753Y101331D01*
X82849Y101178D01*
X82878Y101146D01*
X82902Y101111D01*
X83027Y100981D01*
X83149Y100847D01*
X83183Y100821D01*
X83212Y100790D01*
X83359Y100685D01*
X83503Y100575D01*
X83541Y100555D01*
X83576Y100530D01*
X83739Y100453D01*
X83900Y100369D01*
X83940Y100357D01*
X83979Y100339D01*
X84154Y100291D01*
X84327Y100238D01*
X84369Y100233D01*
X84410Y100222D01*
X84591Y100207D01*
X84770Y100185D01*
X84813Y100188D01*
X84856Y100184D01*
X85036Y100201D01*
G37*
%LPC*%
G36*
X567539Y564289D02*
X567539Y564289D01*
X560222Y567320D01*
X554620Y572922D01*
X551589Y580239D01*
X551589Y588161D01*
X554620Y595478D01*
X560222Y601080D01*
X567539Y604111D01*
X575461Y604111D01*
X582778Y601080D01*
X588380Y595478D01*
X591411Y588161D01*
X591411Y580239D01*
X588380Y572922D01*
X582778Y567320D01*
X575461Y564289D01*
X567539Y564289D01*
G37*
%LPD*%
%LPC*%
G36*
X110687Y627239D02*
X110687Y627239D01*
X104196Y629928D01*
X99228Y634896D01*
X96539Y641387D01*
X96539Y648413D01*
X99228Y654904D01*
X104196Y659872D01*
X110687Y662561D01*
X117713Y662561D01*
X124204Y659872D01*
X129172Y654904D01*
X131861Y648413D01*
X131861Y641387D01*
X129172Y634896D01*
X124204Y629928D01*
X117713Y627239D01*
X110687Y627239D01*
G37*
%LPD*%
%LPC*%
G36*
X110687Y447239D02*
X110687Y447239D01*
X104196Y449928D01*
X99228Y454896D01*
X96539Y461387D01*
X96539Y468413D01*
X99228Y474904D01*
X104196Y479872D01*
X110687Y482561D01*
X117713Y482561D01*
X124204Y479872D01*
X129172Y474904D01*
X131861Y468413D01*
X131861Y461387D01*
X129172Y454896D01*
X124204Y449928D01*
X117713Y447239D01*
X110687Y447239D01*
G37*
%LPD*%
%LPC*%
G36*
X56133Y373633D02*
X56133Y373633D01*
X56133Y393447D01*
X74383Y393447D01*
X74383Y393445D01*
X73802Y391657D01*
X72949Y389983D01*
X71844Y388462D01*
X70516Y387134D01*
X68995Y386029D01*
X68481Y385767D01*
X68342Y385680D01*
X68199Y385599D01*
X68153Y385561D01*
X68102Y385529D01*
X67981Y385419D01*
X67855Y385314D01*
X67816Y385268D01*
X67772Y385228D01*
X67673Y385098D01*
X67567Y384972D01*
X67537Y384921D01*
X67501Y384873D01*
X67426Y384727D01*
X67345Y384585D01*
X67325Y384529D01*
X67298Y384476D01*
X67250Y384319D01*
X67195Y384164D01*
X67185Y384105D01*
X67168Y384048D01*
X67149Y383885D01*
X67123Y383723D01*
X67124Y383664D01*
X67117Y383604D01*
X67127Y383441D01*
X67130Y383276D01*
X67141Y383218D01*
X67145Y383159D01*
X67185Y383000D01*
X67217Y382838D01*
X67238Y382783D01*
X67253Y382725D01*
X67320Y382575D01*
X67380Y382422D01*
X67411Y382372D01*
X67435Y382317D01*
X67528Y382182D01*
X67614Y382042D01*
X67654Y381998D01*
X67688Y381949D01*
X67803Y381832D01*
X67913Y381710D01*
X67960Y381674D01*
X68002Y381631D01*
X68136Y381537D01*
X68266Y381436D01*
X68340Y381394D01*
X68367Y381375D01*
X68399Y381360D01*
X68481Y381313D01*
X68995Y381051D01*
X70516Y379946D01*
X71844Y378618D01*
X72949Y377097D01*
X73802Y375423D01*
X74383Y373635D01*
X74383Y373633D01*
X56133Y373633D01*
G37*
%LPD*%
%LPC*%
G36*
X56133Y399033D02*
X56133Y399033D01*
X56133Y408179D01*
X63678Y408179D01*
X65533Y407885D01*
X67321Y407304D01*
X68995Y406451D01*
X70516Y405346D01*
X71844Y404018D01*
X72949Y402497D01*
X73802Y400823D01*
X74383Y399035D01*
X74383Y399033D01*
X56133Y399033D01*
G37*
%LPD*%
%LPC*%
G36*
X164039Y519339D02*
X164039Y519339D01*
X164039Y526961D01*
X178979Y526961D01*
X178536Y525600D01*
X177810Y524175D01*
X176870Y522881D01*
X175739Y521750D01*
X174445Y520810D01*
X173020Y520084D01*
X171499Y519589D01*
X169920Y519339D01*
X164039Y519339D01*
G37*
%LPD*%
%LPC*%
G36*
X330339Y48839D02*
X330339Y48839D01*
X330339Y56461D01*
X345279Y56461D01*
X344836Y55100D01*
X344110Y53675D01*
X343170Y52381D01*
X342039Y51250D01*
X340745Y50310D01*
X339320Y49584D01*
X337799Y49089D01*
X336220Y48839D01*
X330339Y48839D01*
G37*
%LPD*%
%LPC*%
G36*
X153080Y519339D02*
X153080Y519339D01*
X151501Y519589D01*
X149980Y520084D01*
X148555Y520810D01*
X147261Y521750D01*
X146130Y522881D01*
X145190Y524175D01*
X144464Y525600D01*
X144021Y526961D01*
X158961Y526961D01*
X158961Y519339D01*
X153080Y519339D01*
G37*
%LPD*%
%LPC*%
G36*
X319380Y48839D02*
X319380Y48839D01*
X317801Y49089D01*
X316280Y49584D01*
X314855Y50310D01*
X313561Y51250D01*
X312430Y52381D01*
X311490Y53675D01*
X310764Y55100D01*
X310321Y56461D01*
X325261Y56461D01*
X325261Y48839D01*
X319380Y48839D01*
G37*
%LPD*%
%LPC*%
G36*
X551423Y58259D02*
X551423Y58259D01*
X551492Y58694D01*
X552110Y60596D01*
X553017Y62377D01*
X554192Y63994D01*
X555606Y65408D01*
X557223Y66583D01*
X559004Y67490D01*
X560906Y68108D01*
X561341Y68177D01*
X561341Y58259D01*
X551423Y58259D01*
G37*
%LPD*%
%LPC*%
G36*
X560906Y43332D02*
X560906Y43332D01*
X559004Y43950D01*
X557223Y44857D01*
X555606Y46032D01*
X554192Y47446D01*
X553017Y49063D01*
X552110Y50844D01*
X551492Y52746D01*
X551423Y53181D01*
X561341Y53181D01*
X561341Y43263D01*
X560906Y43332D01*
G37*
%LPD*%
%LPC*%
G36*
X524749Y587449D02*
X524749Y587449D01*
X524749Y596067D01*
X526218Y595590D01*
X527942Y594712D01*
X529507Y593575D01*
X530875Y592207D01*
X532012Y590642D01*
X532890Y588918D01*
X533367Y587449D01*
X524749Y587449D01*
G37*
%LPD*%
%LPC*%
G36*
X509633Y587449D02*
X509633Y587449D01*
X510110Y588918D01*
X510988Y590642D01*
X512125Y592207D01*
X513493Y593575D01*
X515058Y594712D01*
X516782Y595590D01*
X518251Y596067D01*
X518251Y587449D01*
X509633Y587449D01*
G37*
%LPD*%
%LPC*%
G36*
X524749Y580951D02*
X524749Y580951D01*
X533367Y580951D01*
X532890Y579482D01*
X532012Y577758D01*
X530875Y576193D01*
X529507Y574825D01*
X527942Y573688D01*
X526218Y572810D01*
X524749Y572333D01*
X524749Y580951D01*
G37*
%LPD*%
%LPC*%
G36*
X516782Y572810D02*
X516782Y572810D01*
X515058Y573688D01*
X513493Y574825D01*
X512125Y576193D01*
X510988Y577758D01*
X510110Y579482D01*
X509633Y580951D01*
X518251Y580951D01*
X518251Y572333D01*
X516782Y572810D01*
G37*
%LPD*%
%LPC*%
G36*
X721300Y84638D02*
X721300Y84638D01*
X719886Y85358D01*
X718603Y86291D01*
X717481Y87413D01*
X716548Y88696D01*
X715828Y90110D01*
X715383Y91481D01*
X722671Y91481D01*
X722671Y84193D01*
X721300Y84638D01*
G37*
%LPD*%
D10*
X169120Y529500D02*
X153880Y529500D01*
X153880Y554900D02*
X169120Y554900D01*
X169120Y580300D02*
X153880Y580300D01*
X642780Y414600D02*
X658020Y414600D01*
X658020Y389200D02*
X642780Y389200D01*
X642780Y363800D02*
X658020Y363800D01*
X658020Y338400D02*
X642780Y338400D01*
X642780Y313000D02*
X658020Y313000D01*
X658020Y287600D02*
X642780Y287600D01*
X642780Y262200D02*
X658020Y262200D01*
X658020Y236800D02*
X642780Y236800D01*
X642780Y211400D02*
X658020Y211400D01*
X658020Y186000D02*
X642780Y186000D01*
X642780Y160600D02*
X658020Y160600D01*
X658020Y135200D02*
X642780Y135200D01*
X642780Y109800D02*
X658020Y109800D01*
X658020Y84400D02*
X642780Y84400D01*
X642780Y59000D02*
X658020Y59000D01*
X335420Y414600D02*
X320180Y414600D01*
X320180Y389200D02*
X335420Y389200D01*
X335420Y363800D02*
X320180Y363800D01*
X320180Y338400D02*
X335420Y338400D01*
X335420Y313000D02*
X320180Y313000D01*
X320180Y287600D02*
X335420Y287600D01*
X335420Y262200D02*
X320180Y262200D01*
X320180Y236800D02*
X335420Y236800D01*
X335420Y211400D02*
X320180Y211400D01*
X320180Y186000D02*
X335420Y186000D01*
X335420Y160600D02*
X320180Y160600D01*
X320180Y135200D02*
X335420Y135200D01*
X335420Y109800D02*
X320180Y109800D01*
X320180Y84400D02*
X335420Y84400D01*
X335420Y59000D02*
X320180Y59000D01*
D11*
X192798Y81700D02*
X174002Y81700D01*
X174002Y107100D02*
X192798Y107100D01*
X192798Y132500D02*
X174002Y132500D01*
X174002Y157900D02*
X192798Y157900D01*
X192798Y183300D02*
X174002Y183300D01*
X174002Y208700D02*
X192798Y208700D01*
X62798Y81700D02*
X44002Y81700D01*
X44002Y107100D02*
X62798Y107100D01*
X62798Y132500D02*
X44002Y132500D01*
X44002Y157900D02*
X62798Y157900D01*
X62798Y183300D02*
X44002Y183300D01*
X44002Y208700D02*
X62798Y208700D01*
D12*
X571500Y584200D03*
X521500Y584200D03*
D13*
X725170Y576580D03*
X750570Y576580D03*
X725170Y551180D03*
X750570Y551180D03*
X725170Y525780D03*
X750570Y525780D03*
X725170Y500380D03*
X750570Y500380D03*
X725170Y474980D03*
X750570Y474980D03*
X725170Y449580D03*
X750570Y449580D03*
X725170Y424180D03*
X750570Y424180D03*
X725170Y398780D03*
X750570Y398780D03*
X725170Y373380D03*
X750570Y373380D03*
X725170Y347980D03*
X750570Y347980D03*
X725170Y322580D03*
X750570Y322580D03*
X725170Y297180D03*
X750570Y297180D03*
X725170Y271780D03*
X750570Y271780D03*
X725170Y246380D03*
X750570Y246380D03*
X725170Y220980D03*
X750570Y220980D03*
X725170Y195580D03*
X750570Y195580D03*
X725170Y170180D03*
X750570Y170180D03*
X725170Y144780D03*
X750570Y144780D03*
X725170Y119380D03*
X750570Y119380D03*
X725170Y93980D03*
X750570Y93980D03*
D11*
X62738Y396240D02*
X43942Y396240D01*
X43942Y370840D02*
X62738Y370840D01*
X62738Y345440D02*
X43942Y345440D01*
X43942Y320040D02*
X62738Y320040D01*
X62738Y294640D02*
X43942Y294640D01*
X43942Y269240D02*
X62738Y269240D01*
D14*
X381000Y609600D03*
X406400Y609600D03*
D15*
X591820Y55720D03*
X563880Y55720D03*
D16*
X20000Y145000D02*
X20000Y500455D01*
X591820Y55720D02*
X647120Y55720D01*
X650400Y59000D01*
X591820Y55720D02*
X591820Y76204D01*
X381000Y287024D02*
X381000Y609600D01*
X381000Y287024D02*
X591820Y76204D01*
X381000Y609600D02*
X190800Y609600D01*
X161500Y580300D01*
X63300Y580300D01*
X56050Y573050D02*
X56050Y536505D01*
X20000Y500455D01*
X56050Y573050D02*
X63300Y580300D01*
X53400Y132500D02*
X32500Y132500D01*
X20000Y145000D01*
X161500Y554900D02*
X192900Y554900D01*
X201000Y546800D01*
X201000Y337200D01*
X183400Y132500D02*
X183300Y132400D01*
X142400Y278600D02*
X201000Y337200D01*
X142400Y278600D02*
X142400Y154200D01*
X164100Y132500D01*
X183400Y132500D01*
X650400Y414600D02*
X685380Y449580D01*
X725170Y449580D01*
X709350Y262200D02*
X650400Y262200D01*
X709350Y262200D02*
X725170Y246380D01*
X238800Y90000D02*
X183400Y90000D01*
X238800Y90000D02*
X238800Y224000D01*
X327800Y313000D01*
X183400Y90000D02*
X183400Y81700D01*
X650400Y211400D02*
X683950Y211400D01*
X725170Y170180D01*
X85300Y81700D02*
X53400Y81700D01*
X104600Y101000D02*
X104600Y260800D01*
X70760Y294640D01*
X53340Y294640D01*
X104600Y101000D02*
X85300Y81700D01*
M02*
