G04 EAGLE Gerber RS-274X export*
G75*
%MOMM*%
%FSLAX34Y34*%
%LPD*%
%IN*%
%IPPOS*%
%AMOC8*
5,1,8,0,0,1.08239X$1,22.5*%
G01*
%ADD10C,0.254000*%


D10*
X0Y0D02*
X863400Y0D01*
X863400Y688850D01*
X0Y688850D01*
X0Y0D01*
X121700Y644532D02*
X121628Y643798D01*
X121484Y643075D01*
X121270Y642370D01*
X120988Y641689D01*
X120641Y641040D01*
X120231Y640427D01*
X119764Y639857D01*
X119243Y639336D01*
X118673Y638869D01*
X118060Y638459D01*
X117411Y638112D01*
X116730Y637830D01*
X116025Y637616D01*
X115302Y637472D01*
X114568Y637400D01*
X113832Y637400D01*
X113098Y637472D01*
X112375Y637616D01*
X111670Y637830D01*
X110989Y638112D01*
X110340Y638459D01*
X109727Y638869D01*
X109157Y639336D01*
X108636Y639857D01*
X108169Y640427D01*
X107759Y641040D01*
X107412Y641689D01*
X107130Y642370D01*
X106916Y643075D01*
X106772Y643798D01*
X106700Y644532D01*
X106700Y645268D01*
X106772Y646002D01*
X106916Y646725D01*
X107130Y647430D01*
X107412Y648111D01*
X107759Y648760D01*
X108169Y649373D01*
X108636Y649943D01*
X109157Y650464D01*
X109727Y650931D01*
X110340Y651341D01*
X110989Y651688D01*
X111670Y651970D01*
X112375Y652184D01*
X113098Y652328D01*
X113832Y652400D01*
X114568Y652400D01*
X115302Y652328D01*
X116025Y652184D01*
X116730Y651970D01*
X117411Y651688D01*
X118060Y651341D01*
X118673Y650931D01*
X119243Y650464D01*
X119764Y649943D01*
X120231Y649373D01*
X120641Y648760D01*
X120988Y648111D01*
X121270Y647430D01*
X121484Y646725D01*
X121628Y646002D01*
X121700Y645268D01*
X121700Y644532D01*
X121700Y464532D02*
X121628Y463798D01*
X121484Y463075D01*
X121270Y462370D01*
X120988Y461689D01*
X120641Y461040D01*
X120231Y460427D01*
X119764Y459857D01*
X119243Y459336D01*
X118673Y458869D01*
X118060Y458459D01*
X117411Y458112D01*
X116730Y457830D01*
X116025Y457616D01*
X115302Y457472D01*
X114568Y457400D01*
X113832Y457400D01*
X113098Y457472D01*
X112375Y457616D01*
X111670Y457830D01*
X110989Y458112D01*
X110340Y458459D01*
X109727Y458869D01*
X109157Y459336D01*
X108636Y459857D01*
X108169Y460427D01*
X107759Y461040D01*
X107412Y461689D01*
X107130Y462370D01*
X106916Y463075D01*
X106772Y463798D01*
X106700Y464532D01*
X106700Y465268D01*
X106772Y466002D01*
X106916Y466725D01*
X107130Y467430D01*
X107412Y468111D01*
X107759Y468760D01*
X108169Y469373D01*
X108636Y469943D01*
X109157Y470464D01*
X109727Y470931D01*
X110340Y471341D01*
X110989Y471688D01*
X111670Y471970D01*
X112375Y472184D01*
X113098Y472328D01*
X113832Y472400D01*
X114568Y472400D01*
X115302Y472328D01*
X116025Y472184D01*
X116730Y471970D01*
X117411Y471688D01*
X118060Y471341D01*
X118673Y470931D01*
X119243Y470464D01*
X119764Y469943D01*
X120231Y469373D01*
X120641Y468760D01*
X120988Y468111D01*
X121270Y467430D01*
X121484Y466725D01*
X121628Y466002D01*
X121700Y465268D01*
X121700Y464532D01*
X846930Y667583D02*
X846854Y666714D01*
X846702Y665854D01*
X846476Y665010D01*
X846178Y664190D01*
X845809Y663398D01*
X845372Y662642D01*
X844871Y661927D01*
X844310Y661258D01*
X843692Y660640D01*
X843023Y660079D01*
X842308Y659578D01*
X841552Y659141D01*
X840760Y658772D01*
X839940Y658474D01*
X839096Y658248D01*
X838237Y658096D01*
X837367Y658020D01*
X836493Y658020D01*
X835624Y658096D01*
X834764Y658248D01*
X833920Y658474D01*
X833100Y658772D01*
X832308Y659141D01*
X831552Y659578D01*
X830837Y660079D01*
X830168Y660640D01*
X829550Y661258D01*
X828989Y661927D01*
X828488Y662642D01*
X828051Y663398D01*
X827682Y664190D01*
X827384Y665010D01*
X827158Y665854D01*
X827006Y666714D01*
X826930Y667583D01*
X826930Y668457D01*
X827006Y669327D01*
X827158Y670186D01*
X827384Y671030D01*
X827682Y671850D01*
X828051Y672642D01*
X828488Y673398D01*
X828989Y674113D01*
X829550Y674782D01*
X830168Y675400D01*
X830837Y675961D01*
X831552Y676462D01*
X832308Y676899D01*
X833100Y677268D01*
X833920Y677566D01*
X834764Y677792D01*
X835624Y677944D01*
X836493Y678020D01*
X837367Y678020D01*
X838237Y677944D01*
X839096Y677792D01*
X839940Y677566D01*
X840760Y677268D01*
X841552Y676899D01*
X842308Y676462D01*
X843023Y675961D01*
X843692Y675400D01*
X844310Y674782D01*
X844871Y674113D01*
X845372Y673398D01*
X845809Y672642D01*
X846178Y671850D01*
X846476Y671030D01*
X846702Y670186D01*
X846854Y669327D01*
X846930Y668457D01*
X846930Y667583D01*
X34130Y667583D02*
X34054Y666714D01*
X33902Y665854D01*
X33676Y665010D01*
X33378Y664190D01*
X33009Y663398D01*
X32572Y662642D01*
X32071Y661927D01*
X31510Y661258D01*
X30892Y660640D01*
X30223Y660079D01*
X29508Y659578D01*
X28752Y659141D01*
X27960Y658772D01*
X27140Y658474D01*
X26296Y658248D01*
X25437Y658096D01*
X24567Y658020D01*
X23693Y658020D01*
X22824Y658096D01*
X21964Y658248D01*
X21120Y658474D01*
X20300Y658772D01*
X19508Y659141D01*
X18752Y659578D01*
X18037Y660079D01*
X17368Y660640D01*
X16750Y661258D01*
X16189Y661927D01*
X15688Y662642D01*
X15251Y663398D01*
X14882Y664190D01*
X14584Y665010D01*
X14358Y665854D01*
X14206Y666714D01*
X14130Y667583D01*
X14130Y668457D01*
X14206Y669327D01*
X14358Y670186D01*
X14584Y671030D01*
X14882Y671850D01*
X15251Y672642D01*
X15688Y673398D01*
X16189Y674113D01*
X16750Y674782D01*
X17368Y675400D01*
X18037Y675961D01*
X18752Y676462D01*
X19508Y676899D01*
X20300Y677268D01*
X21120Y677566D01*
X21964Y677792D01*
X22824Y677944D01*
X23693Y678020D01*
X24567Y678020D01*
X25437Y677944D01*
X26296Y677792D01*
X27140Y677566D01*
X27960Y677268D01*
X28752Y676899D01*
X29508Y676462D01*
X30223Y675961D01*
X30892Y675400D01*
X31510Y674782D01*
X32071Y674113D01*
X32572Y673398D01*
X33009Y672642D01*
X33378Y671850D01*
X33676Y671030D01*
X33902Y670186D01*
X34054Y669327D01*
X34130Y668457D01*
X34130Y667583D01*
X34130Y18613D02*
X34054Y17744D01*
X33902Y16884D01*
X33676Y16040D01*
X33378Y15220D01*
X33009Y14428D01*
X32572Y13672D01*
X32071Y12957D01*
X31510Y12288D01*
X30892Y11670D01*
X30223Y11109D01*
X29508Y10608D01*
X28752Y10171D01*
X27960Y9802D01*
X27140Y9504D01*
X26296Y9278D01*
X25437Y9126D01*
X24567Y9050D01*
X23693Y9050D01*
X22824Y9126D01*
X21964Y9278D01*
X21120Y9504D01*
X20300Y9802D01*
X19508Y10171D01*
X18752Y10608D01*
X18037Y11109D01*
X17368Y11670D01*
X16750Y12288D01*
X16189Y12957D01*
X15688Y13672D01*
X15251Y14428D01*
X14882Y15220D01*
X14584Y16040D01*
X14358Y16884D01*
X14206Y17744D01*
X14130Y18613D01*
X14130Y19487D01*
X14206Y20357D01*
X14358Y21216D01*
X14584Y22060D01*
X14882Y22880D01*
X15251Y23672D01*
X15688Y24428D01*
X16189Y25143D01*
X16750Y25812D01*
X17368Y26430D01*
X18037Y26991D01*
X18752Y27492D01*
X19508Y27929D01*
X20300Y28298D01*
X21120Y28596D01*
X21964Y28822D01*
X22824Y28974D01*
X23693Y29050D01*
X24567Y29050D01*
X25437Y28974D01*
X26296Y28822D01*
X27140Y28596D01*
X27960Y28298D01*
X28752Y27929D01*
X29508Y27492D01*
X30223Y26991D01*
X30892Y26430D01*
X31510Y25812D01*
X32071Y25143D01*
X32572Y24428D01*
X33009Y23672D01*
X33378Y22880D01*
X33676Y22060D01*
X33902Y21216D01*
X34054Y20357D01*
X34130Y19487D01*
X34130Y18613D01*
X846930Y17343D02*
X846854Y16474D01*
X846702Y15614D01*
X846476Y14770D01*
X846178Y13950D01*
X845809Y13158D01*
X845372Y12402D01*
X844871Y11687D01*
X844310Y11018D01*
X843692Y10400D01*
X843023Y9839D01*
X842308Y9338D01*
X841552Y8901D01*
X840760Y8532D01*
X839940Y8234D01*
X839096Y8008D01*
X838237Y7856D01*
X837367Y7780D01*
X836493Y7780D01*
X835624Y7856D01*
X834764Y8008D01*
X833920Y8234D01*
X833100Y8532D01*
X832308Y8901D01*
X831552Y9338D01*
X830837Y9839D01*
X830168Y10400D01*
X829550Y11018D01*
X828989Y11687D01*
X828488Y12402D01*
X828051Y13158D01*
X827682Y13950D01*
X827384Y14770D01*
X827158Y15614D01*
X827006Y16474D01*
X826930Y17343D01*
X826930Y18217D01*
X827006Y19087D01*
X827158Y19946D01*
X827384Y20790D01*
X827682Y21610D01*
X828051Y22402D01*
X828488Y23158D01*
X828989Y23873D01*
X829550Y24542D01*
X830168Y25160D01*
X830837Y25721D01*
X831552Y26222D01*
X832308Y26659D01*
X833100Y27028D01*
X833920Y27326D01*
X834764Y27552D01*
X835624Y27704D01*
X836493Y27780D01*
X837367Y27780D01*
X838237Y27704D01*
X839096Y27552D01*
X839940Y27326D01*
X840760Y27028D01*
X841552Y26659D01*
X842308Y26222D01*
X843023Y25721D01*
X843692Y25160D01*
X844310Y24542D01*
X844871Y23873D01*
X845372Y23158D01*
X845809Y22402D01*
X846178Y21610D01*
X846476Y20790D01*
X846702Y19946D01*
X846854Y19087D01*
X846930Y18217D01*
X846930Y17343D01*
X12180Y571410D02*
X13259Y571339D01*
X14331Y571198D01*
X15391Y570987D01*
X16435Y570708D01*
X17459Y570360D01*
X18457Y569946D01*
X19427Y569468D01*
X20363Y568928D01*
X21262Y568327D01*
X22119Y567669D01*
X22932Y566957D01*
X23697Y566192D01*
X24409Y565379D01*
X25067Y564522D01*
X25668Y563623D01*
X26208Y562687D01*
X26686Y561717D01*
X27100Y560719D01*
X27448Y559695D01*
X27727Y558651D01*
X27938Y557591D01*
X28079Y556519D01*
X28150Y555440D01*
X28150Y554360D01*
X28079Y553281D01*
X27938Y552209D01*
X27727Y551149D01*
X27448Y550105D01*
X27100Y549081D01*
X26686Y548083D01*
X26208Y547113D01*
X25668Y546177D01*
X25067Y545278D01*
X24409Y544421D01*
X23697Y543608D01*
X22932Y542844D01*
X22119Y542131D01*
X21262Y541473D01*
X20363Y540872D01*
X19427Y540332D01*
X18457Y539854D01*
X17459Y539440D01*
X16435Y539092D01*
X15391Y538813D01*
X14331Y538602D01*
X13259Y538461D01*
X12180Y538390D01*
X11100Y538390D01*
X10021Y538461D01*
X8949Y538602D01*
X7889Y538813D01*
X6845Y539092D01*
X5821Y539440D01*
X4823Y539854D01*
X3853Y540332D01*
X2917Y540872D01*
X2018Y541473D01*
X1161Y542131D01*
X348Y542844D01*
X-417Y543608D01*
X-1129Y544421D01*
X-1787Y545278D01*
X-2388Y546177D01*
X-2928Y547113D01*
X-3406Y548083D01*
X-3820Y549081D01*
X-4168Y550105D01*
X-4447Y551149D01*
X-4658Y552209D01*
X-4799Y553281D01*
X-4870Y554360D01*
X-4870Y555440D01*
X-4799Y556519D01*
X-4658Y557591D01*
X-4447Y558651D01*
X-4168Y559695D01*
X-3820Y560719D01*
X-3406Y561717D01*
X-2928Y562687D01*
X-2388Y563623D01*
X-1787Y564522D01*
X-1129Y565379D01*
X-417Y566192D01*
X348Y566957D01*
X1161Y567669D01*
X2018Y568327D01*
X2917Y568928D01*
X3853Y569468D01*
X4823Y569946D01*
X5821Y570360D01*
X6845Y570708D01*
X7889Y570987D01*
X8949Y571198D01*
X10021Y571339D01*
X11100Y571410D01*
X12180Y571410D01*
M02*
