G04 EAGLE Gerber RS-274X export*
G75*
%MOMM*%
%FSLAX34Y34*%
%LPD*%
%INSoldermask Top*%
%IPPOS*%
%AMOC8*
5,1,8,0,0,1.08239X$1,22.5*%
G01*
%ADD10C,1.703200*%
%ADD11C,2.203200*%
%ADD12C,1.727200*%
%ADD13C,3.505200*%
%ADD14C,2.082800*%
%ADD15C,2.153200*%
%ADD16C,1.711200*%
%ADD17C,2.082800*%

G36*
X563866Y50573D02*
X563866Y50573D01*
X563992Y50572D01*
X565003Y50711D01*
X565051Y50727D01*
X565141Y50746D01*
X566096Y51108D01*
X566139Y51134D01*
X566223Y51173D01*
X567073Y51737D01*
X567110Y51772D01*
X567182Y51829D01*
X567886Y52569D01*
X567914Y52611D01*
X567972Y52682D01*
X568493Y53560D01*
X568511Y53607D01*
X568552Y53689D01*
X568865Y54661D01*
X568872Y54711D01*
X568893Y54800D01*
X568982Y55818D01*
X568977Y55868D01*
X568978Y55959D01*
X568847Y56923D01*
X568831Y56971D01*
X568812Y57060D01*
X568470Y57971D01*
X568444Y58014D01*
X568405Y58098D01*
X567868Y58909D01*
X567833Y58945D01*
X567777Y59018D01*
X567073Y59690D01*
X567031Y59718D01*
X566960Y59776D01*
X566125Y60274D01*
X566077Y60292D01*
X565995Y60332D01*
X565070Y60632D01*
X565019Y60639D01*
X564930Y60661D01*
X563961Y60747D01*
X563914Y60743D01*
X563839Y60746D01*
X562863Y60644D01*
X562815Y60630D01*
X562725Y60614D01*
X561796Y60298D01*
X561752Y60274D01*
X561667Y60237D01*
X560832Y59723D01*
X560795Y59689D01*
X560720Y59635D01*
X560021Y58947D01*
X559991Y58906D01*
X559931Y58837D01*
X559402Y58010D01*
X559383Y57964D01*
X559339Y57883D01*
X559007Y56960D01*
X558999Y56910D01*
X558974Y56821D01*
X558856Y55847D01*
X558859Y55797D01*
X558855Y55711D01*
X558950Y54709D01*
X558964Y54660D01*
X558980Y54570D01*
X559296Y53614D01*
X559320Y53569D01*
X559356Y53485D01*
X559877Y52624D01*
X559910Y52586D01*
X559963Y52511D01*
X560663Y51787D01*
X560704Y51758D01*
X560773Y51697D01*
X561616Y51147D01*
X561662Y51127D01*
X561743Y51083D01*
X562687Y50735D01*
X562737Y50726D01*
X562825Y50701D01*
X563823Y50571D01*
X563866Y50573D01*
G37*
G36*
X591857Y50573D02*
X591857Y50573D01*
X591983Y50572D01*
X592994Y50711D01*
X593042Y50727D01*
X593132Y50746D01*
X594087Y51108D01*
X594130Y51134D01*
X594214Y51173D01*
X595064Y51737D01*
X595101Y51772D01*
X595173Y51829D01*
X595877Y52569D01*
X595905Y52611D01*
X595963Y52682D01*
X596484Y53560D01*
X596502Y53607D01*
X596543Y53689D01*
X596856Y54661D01*
X596863Y54711D01*
X596884Y54800D01*
X596973Y55818D01*
X596968Y55868D01*
X596969Y55959D01*
X596838Y56923D01*
X596822Y56971D01*
X596803Y57060D01*
X596461Y57971D01*
X596435Y58014D01*
X596396Y58098D01*
X595859Y58909D01*
X595824Y58945D01*
X595768Y59018D01*
X595064Y59690D01*
X595022Y59718D01*
X594951Y59776D01*
X594116Y60274D01*
X594068Y60292D01*
X593986Y60332D01*
X593061Y60632D01*
X593010Y60639D01*
X592921Y60661D01*
X591952Y60747D01*
X591905Y60743D01*
X591830Y60746D01*
X590854Y60644D01*
X590806Y60630D01*
X590716Y60614D01*
X589787Y60298D01*
X589743Y60274D01*
X589658Y60237D01*
X588823Y59723D01*
X588786Y59689D01*
X588711Y59635D01*
X588012Y58947D01*
X587982Y58906D01*
X587922Y58837D01*
X587393Y58010D01*
X587374Y57964D01*
X587330Y57883D01*
X586998Y56960D01*
X586990Y56910D01*
X586965Y56821D01*
X586847Y55847D01*
X586850Y55797D01*
X586846Y55711D01*
X586941Y54709D01*
X586955Y54660D01*
X586971Y54570D01*
X587287Y53614D01*
X587311Y53569D01*
X587347Y53485D01*
X587868Y52624D01*
X587901Y52586D01*
X587954Y52511D01*
X588654Y51787D01*
X588695Y51758D01*
X588764Y51697D01*
X589607Y51147D01*
X589653Y51127D01*
X589734Y51083D01*
X590678Y50735D01*
X590728Y50726D01*
X590816Y50701D01*
X591814Y50571D01*
X591857Y50573D01*
G37*
D10*
X114200Y644900D03*
X114200Y464900D03*
D11*
X836930Y668020D03*
X24130Y668020D03*
X24130Y19050D03*
X836930Y17780D03*
D12*
X169120Y529500D02*
X153880Y529500D01*
X153880Y554900D02*
X169120Y554900D01*
X169120Y580300D02*
X153880Y580300D01*
D13*
X11640Y554900D03*
D12*
X642780Y414600D02*
X658020Y414600D01*
X658020Y389200D02*
X642780Y389200D01*
X642780Y363800D02*
X658020Y363800D01*
X658020Y338400D02*
X642780Y338400D01*
X642780Y313000D02*
X658020Y313000D01*
X658020Y287600D02*
X642780Y287600D01*
X642780Y262200D02*
X658020Y262200D01*
X658020Y236800D02*
X642780Y236800D01*
X642780Y211400D02*
X658020Y211400D01*
X658020Y186000D02*
X642780Y186000D01*
X642780Y160600D02*
X658020Y160600D01*
X658020Y135200D02*
X642780Y135200D01*
X642780Y109800D02*
X658020Y109800D01*
X658020Y84400D02*
X642780Y84400D01*
X642780Y59000D02*
X658020Y59000D01*
X335420Y414600D02*
X320180Y414600D01*
X320180Y389200D02*
X335420Y389200D01*
X335420Y363800D02*
X320180Y363800D01*
X320180Y338400D02*
X335420Y338400D01*
X335420Y313000D02*
X320180Y313000D01*
X320180Y287600D02*
X335420Y287600D01*
X335420Y262200D02*
X320180Y262200D01*
X320180Y236800D02*
X335420Y236800D01*
X335420Y211400D02*
X320180Y211400D01*
X320180Y186000D02*
X335420Y186000D01*
X335420Y160600D02*
X320180Y160600D01*
X320180Y135200D02*
X335420Y135200D01*
X335420Y109800D02*
X320180Y109800D01*
X320180Y84400D02*
X335420Y84400D01*
X335420Y59000D02*
X320180Y59000D01*
D14*
X192798Y81700D02*
X174002Y81700D01*
X174002Y107100D02*
X192798Y107100D01*
X192798Y132500D02*
X174002Y132500D01*
X174002Y157900D02*
X192798Y157900D01*
X192798Y183300D02*
X174002Y183300D01*
X174002Y208700D02*
X192798Y208700D01*
X62798Y81700D02*
X44002Y81700D01*
X44002Y107100D02*
X62798Y107100D01*
X62798Y132500D02*
X44002Y132500D01*
X44002Y157900D02*
X62798Y157900D01*
X62798Y183300D02*
X44002Y183300D01*
X44002Y208700D02*
X62798Y208700D01*
D15*
X571500Y584200D03*
X521500Y584200D03*
D16*
X725170Y576580D03*
X750570Y576580D03*
X725170Y551180D03*
X750570Y551180D03*
X725170Y525780D03*
X750570Y525780D03*
X725170Y500380D03*
X750570Y500380D03*
X725170Y474980D03*
X750570Y474980D03*
X725170Y449580D03*
X750570Y449580D03*
X725170Y424180D03*
X750570Y424180D03*
X725170Y398780D03*
X750570Y398780D03*
X725170Y373380D03*
X750570Y373380D03*
X725170Y347980D03*
X750570Y347980D03*
X725170Y322580D03*
X750570Y322580D03*
X725170Y297180D03*
X750570Y297180D03*
X725170Y271780D03*
X750570Y271780D03*
X725170Y246380D03*
X750570Y246380D03*
X725170Y220980D03*
X750570Y220980D03*
X725170Y195580D03*
X750570Y195580D03*
X725170Y170180D03*
X750570Y170180D03*
X725170Y144780D03*
X750570Y144780D03*
X725170Y119380D03*
X750570Y119380D03*
X725170Y93980D03*
X750570Y93980D03*
D14*
X62738Y396240D02*
X43942Y396240D01*
X43942Y370840D02*
X62738Y370840D01*
X62738Y345440D02*
X43942Y345440D01*
X43942Y320040D02*
X62738Y320040D01*
X62738Y294640D02*
X43942Y294640D01*
X43942Y269240D02*
X62738Y269240D01*
D17*
X381000Y609600D03*
X406400Y609600D03*
M02*
