G04 EAGLE Gerber RS-274X export*
G75*
%MOMM*%
%FSLAX34Y34*%
%LPD*%
%INSoldermask Bottom*%
%IPPOS*%
%AMOC8*
5,1,8,0,0,1.08239X$1,22.5*%
G01*
%ADD10C,1.703200*%
%ADD11C,2.203200*%
%ADD12C,1.727200*%
%ADD13C,3.505200*%
%ADD14C,2.082800*%
%ADD15C,2.153200*%
%ADD16C,1.711200*%
%ADD17C,2.082800*%

G36*
X565640Y45679D02*
X565640Y45679D01*
X565683Y45691D01*
X565749Y45700D01*
X567366Y46154D01*
X567407Y46173D01*
X567435Y46182D01*
X567445Y46184D01*
X567449Y46186D01*
X567470Y46193D01*
X568984Y46921D01*
X569020Y46947D01*
X569079Y46977D01*
X570444Y47958D01*
X570475Y47990D01*
X570528Y48030D01*
X571702Y49232D01*
X571727Y49269D01*
X571772Y49317D01*
X572719Y50705D01*
X572737Y50746D01*
X572773Y50802D01*
X573465Y52333D01*
X573476Y52376D01*
X573502Y52437D01*
X573917Y54066D01*
X573920Y54110D01*
X573935Y54175D01*
X574061Y55850D01*
X574057Y55897D01*
X574059Y55969D01*
X573854Y57805D01*
X573840Y57851D01*
X573828Y57926D01*
X573268Y59687D01*
X573245Y59729D01*
X573219Y59801D01*
X572326Y61418D01*
X572296Y61456D01*
X572256Y61521D01*
X571065Y62933D01*
X571028Y62964D01*
X570976Y63020D01*
X569532Y64173D01*
X569490Y64196D01*
X569428Y64240D01*
X567787Y65089D01*
X567741Y65104D01*
X567672Y65135D01*
X565897Y65648D01*
X565849Y65653D01*
X565774Y65671D01*
X563934Y65827D01*
X563890Y65823D01*
X563825Y65827D01*
X561994Y65667D01*
X561948Y65654D01*
X561872Y65644D01*
X560108Y65130D01*
X560064Y65109D01*
X559992Y65084D01*
X558362Y64235D01*
X558324Y64206D01*
X558258Y64167D01*
X556825Y63017D01*
X556793Y62981D01*
X556736Y62930D01*
X555555Y61522D01*
X555531Y61481D01*
X555485Y61420D01*
X555275Y61038D01*
X554601Y59808D01*
X554586Y59763D01*
X554552Y59694D01*
X554000Y57941D01*
X553994Y57894D01*
X553974Y57820D01*
X553775Y55993D01*
X553778Y55947D01*
X553772Y55878D01*
X553895Y54202D01*
X553906Y54159D01*
X553912Y54093D01*
X554324Y52463D01*
X554342Y52423D01*
X554360Y52359D01*
X555048Y50826D01*
X555073Y50789D01*
X555102Y50729D01*
X556046Y49339D01*
X556077Y49307D01*
X556115Y49253D01*
X557286Y48047D01*
X557323Y48021D01*
X557370Y47975D01*
X558732Y46991D01*
X558773Y46972D01*
X558827Y46935D01*
X560340Y46202D01*
X560383Y46190D01*
X560394Y46185D01*
X560421Y46172D01*
X560426Y46171D01*
X560443Y46163D01*
X562060Y45705D01*
X562105Y45700D01*
X562169Y45684D01*
X563841Y45513D01*
X563889Y45517D01*
X563968Y45513D01*
X565640Y45679D01*
G37*
G36*
X593631Y45679D02*
X593631Y45679D01*
X593674Y45691D01*
X593740Y45700D01*
X595357Y46154D01*
X595398Y46173D01*
X595426Y46182D01*
X595436Y46184D01*
X595440Y46186D01*
X595461Y46193D01*
X596975Y46921D01*
X597011Y46947D01*
X597070Y46977D01*
X598435Y47958D01*
X598466Y47990D01*
X598519Y48030D01*
X599693Y49232D01*
X599718Y49269D01*
X599763Y49317D01*
X600710Y50705D01*
X600728Y50746D01*
X600764Y50802D01*
X601456Y52333D01*
X601467Y52376D01*
X601493Y52437D01*
X601908Y54066D01*
X601911Y54110D01*
X601926Y54175D01*
X602052Y55850D01*
X602048Y55897D01*
X602050Y55969D01*
X601845Y57805D01*
X601831Y57851D01*
X601819Y57926D01*
X601259Y59687D01*
X601236Y59729D01*
X601210Y59801D01*
X600317Y61418D01*
X600287Y61456D01*
X600247Y61521D01*
X599056Y62933D01*
X599019Y62964D01*
X598967Y63020D01*
X597523Y64173D01*
X597481Y64196D01*
X597419Y64240D01*
X595778Y65089D01*
X595732Y65104D01*
X595663Y65135D01*
X593888Y65648D01*
X593840Y65653D01*
X593765Y65671D01*
X591925Y65827D01*
X591881Y65823D01*
X591816Y65827D01*
X589985Y65667D01*
X589939Y65654D01*
X589863Y65644D01*
X588099Y65130D01*
X588055Y65109D01*
X587983Y65084D01*
X586353Y64235D01*
X586315Y64206D01*
X586249Y64167D01*
X584816Y63017D01*
X584784Y62981D01*
X584727Y62930D01*
X583546Y61522D01*
X583522Y61481D01*
X583476Y61420D01*
X583266Y61038D01*
X582592Y59808D01*
X582577Y59763D01*
X582543Y59694D01*
X581991Y57941D01*
X581985Y57894D01*
X581965Y57820D01*
X581766Y55993D01*
X581769Y55947D01*
X581763Y55878D01*
X581886Y54202D01*
X581897Y54159D01*
X581903Y54093D01*
X582315Y52463D01*
X582333Y52423D01*
X582351Y52359D01*
X583039Y50826D01*
X583064Y50789D01*
X583093Y50729D01*
X584037Y49339D01*
X584068Y49307D01*
X584106Y49253D01*
X585277Y48047D01*
X585314Y48021D01*
X585361Y47975D01*
X586723Y46991D01*
X586764Y46972D01*
X586818Y46935D01*
X588331Y46202D01*
X588374Y46190D01*
X588385Y46185D01*
X588412Y46172D01*
X588417Y46171D01*
X588434Y46163D01*
X590051Y45705D01*
X590096Y45700D01*
X590160Y45684D01*
X591832Y45513D01*
X591880Y45517D01*
X591959Y45513D01*
X593631Y45679D01*
G37*
D10*
X114200Y644900D03*
X114200Y464900D03*
D11*
X836930Y668020D03*
X24130Y668020D03*
X24130Y19050D03*
X836930Y17780D03*
D12*
X169120Y529500D02*
X153880Y529500D01*
X153880Y554900D02*
X169120Y554900D01*
X169120Y580300D02*
X153880Y580300D01*
D13*
X11640Y554900D03*
D12*
X642780Y414600D02*
X658020Y414600D01*
X658020Y389200D02*
X642780Y389200D01*
X642780Y363800D02*
X658020Y363800D01*
X658020Y338400D02*
X642780Y338400D01*
X642780Y313000D02*
X658020Y313000D01*
X658020Y287600D02*
X642780Y287600D01*
X642780Y262200D02*
X658020Y262200D01*
X658020Y236800D02*
X642780Y236800D01*
X642780Y211400D02*
X658020Y211400D01*
X658020Y186000D02*
X642780Y186000D01*
X642780Y160600D02*
X658020Y160600D01*
X658020Y135200D02*
X642780Y135200D01*
X642780Y109800D02*
X658020Y109800D01*
X658020Y84400D02*
X642780Y84400D01*
X642780Y59000D02*
X658020Y59000D01*
X335420Y414600D02*
X320180Y414600D01*
X320180Y389200D02*
X335420Y389200D01*
X335420Y363800D02*
X320180Y363800D01*
X320180Y338400D02*
X335420Y338400D01*
X335420Y313000D02*
X320180Y313000D01*
X320180Y287600D02*
X335420Y287600D01*
X335420Y262200D02*
X320180Y262200D01*
X320180Y236800D02*
X335420Y236800D01*
X335420Y211400D02*
X320180Y211400D01*
X320180Y186000D02*
X335420Y186000D01*
X335420Y160600D02*
X320180Y160600D01*
X320180Y135200D02*
X335420Y135200D01*
X335420Y109800D02*
X320180Y109800D01*
X320180Y84400D02*
X335420Y84400D01*
X335420Y59000D02*
X320180Y59000D01*
D14*
X192798Y81700D02*
X174002Y81700D01*
X174002Y107100D02*
X192798Y107100D01*
X192798Y132500D02*
X174002Y132500D01*
X174002Y157900D02*
X192798Y157900D01*
X192798Y183300D02*
X174002Y183300D01*
X174002Y208700D02*
X192798Y208700D01*
X62798Y81700D02*
X44002Y81700D01*
X44002Y107100D02*
X62798Y107100D01*
X62798Y132500D02*
X44002Y132500D01*
X44002Y157900D02*
X62798Y157900D01*
X62798Y183300D02*
X44002Y183300D01*
X44002Y208700D02*
X62798Y208700D01*
D15*
X571500Y584200D03*
X521500Y584200D03*
D16*
X725170Y576580D03*
X750570Y576580D03*
X725170Y551180D03*
X750570Y551180D03*
X725170Y525780D03*
X750570Y525780D03*
X725170Y500380D03*
X750570Y500380D03*
X725170Y474980D03*
X750570Y474980D03*
X725170Y449580D03*
X750570Y449580D03*
X725170Y424180D03*
X750570Y424180D03*
X725170Y398780D03*
X750570Y398780D03*
X725170Y373380D03*
X750570Y373380D03*
X725170Y347980D03*
X750570Y347980D03*
X725170Y322580D03*
X750570Y322580D03*
X725170Y297180D03*
X750570Y297180D03*
X725170Y271780D03*
X750570Y271780D03*
X725170Y246380D03*
X750570Y246380D03*
X725170Y220980D03*
X750570Y220980D03*
X725170Y195580D03*
X750570Y195580D03*
X725170Y170180D03*
X750570Y170180D03*
X725170Y144780D03*
X750570Y144780D03*
X725170Y119380D03*
X750570Y119380D03*
X725170Y93980D03*
X750570Y93980D03*
D14*
X62738Y396240D02*
X43942Y396240D01*
X43942Y370840D02*
X62738Y370840D01*
X62738Y345440D02*
X43942Y345440D01*
X43942Y320040D02*
X62738Y320040D01*
X62738Y294640D02*
X43942Y294640D01*
X43942Y269240D02*
X62738Y269240D01*
D17*
X381000Y609600D03*
X406400Y609600D03*
M02*
